<svg width="681" height="503" viewBox="0 0 681 503" fill="none" xmlns="http://www.w3.org/2000/svg">
<path fill-rule="evenodd" clip-rule="evenodd" d="M246.87 907C170.513 907 73.0913 885.863 3.3165 848.874L98.1048 167.211C103.371 132.863 109.953 87.9474 109.953 72.0947C109.953 48.3158 96.7883 36.4263 63.8757 32.4632L2 25.8579L7.26604 -13.7737L274.516 -97L302.163 -75.8631L207.375 496.153L221.856 502.758C304.796 300.637 390.369 216.09 497.006 216.09C608.909 216.09 680 307.242 680 456.521C680 704.879 493.056 907 246.87 907ZM269.25 840.947C387.736 823.774 494.373 656 494.373 467.089C494.373 381.221 468.043 332.342 423.281 332.342C342.975 332.342 225.806 555.6 174.462 807.921C210.008 826.416 237.654 835.663 269.25 840.947Z" stroke="white" stroke-opacity="0.5" stroke-width="2"/>
</svg>
