<svg width="58" height="58" viewBox="0 0 58 58" fill="none" xmlns="http://www.w3.org/2000/svg">
<path opacity="0.4" d="M31.3068 7.25H26.6932C24.1451 7.25 22.0795 9.19756 22.0795 11.6C22.0795 14.3492 19.138 16.0971 16.7233 14.7827L16.4781 14.6492C14.2714 13.4479 11.4497 14.1608 10.1757 16.2414L7.86889 20.0086C6.59486 22.0892 7.35092 24.7496 9.5576 25.9508C11.9734 27.2659 11.9734 30.7341 9.5576 32.0492C7.35092 33.2504 6.59486 35.9108 7.86888 37.9914L10.1757 41.7586C11.4497 43.8392 14.2714 44.5521 16.4781 43.3508L16.7233 43.2173C19.138 41.9029 22.0795 43.6508 22.0795 46.4C22.0795 48.8024 24.1451 50.75 26.6932 50.75H31.3068C33.8549 50.75 35.9205 48.8024 35.9205 46.4C35.9205 43.6508 38.862 41.9029 41.2767 43.2173L41.5219 43.3508C43.7286 44.552 46.5503 43.8392 47.8243 41.7586L50.1311 37.9914C51.4051 35.9108 50.6491 33.2504 48.4424 32.0492C46.0266 30.7341 46.0266 27.2659 48.4424 25.9508C50.6491 24.7496 51.4051 22.0892 50.1311 20.0086L47.8243 16.2414C46.5503 14.1608 43.7286 13.448 41.5219 14.6492L41.2767 14.7827C38.862 16.0971 35.9205 14.3492 35.9205 11.6C35.9205 9.19756 33.8549 7.25 31.3068 7.25Z" fill="#000080"/>
<circle cx="29" cy="29" r="7.25" fill="#000080"/>
</svg>
