<svg width="162" height="39" viewBox="0 0 162 39" fill="none" xmlns="http://www.w3.org/2000/svg">
<path fill-rule="evenodd" clip-rule="evenodd" d="M0.689697 19.5471C11.8099 19.5471 18.1848 13.1722 18.1848 2.052C18.1848 13.1722 24.5596 19.5471 35.6798 19.5471C24.5596 19.5471 18.1848 25.922 18.1848 37.0421C18.1848 25.922 11.8099 19.5471 0.689697 19.5471Z" fill="#ACB2B8"/>
<path d="M42.5904 27.427L48.6977 10.7272H52.1331L58.2405 27.427H54.996L53.66 23.5622H47.147L45.7872 27.427H42.5904ZM47.982 21.1765H52.825L50.3916 14.2342L47.982 21.1765Z" fill="#ACB2B8"/>
<path d="M64.3654 27.7133C63.1566 27.7133 62.091 27.4509 61.1686 26.926C60.2461 26.4012 59.5145 25.6696 58.9737 24.7312C58.4489 23.7928 58.1865 22.7193 58.1865 21.5105C58.1865 20.3018 58.4489 19.2282 58.9737 18.2898C59.5145 17.3515 60.2461 16.6199 61.1686 16.095C62.091 15.5702 63.1566 15.3077 64.3654 15.3077C65.8763 15.3077 67.1487 15.7053 68.1825 16.5006C69.2163 17.2799 69.8763 18.3614 70.1626 19.7451H66.9419C66.7829 19.1725 66.4648 18.7272 65.9877 18.4091C65.5264 18.0751 64.9777 17.9081 64.3415 17.9081C63.4986 17.9081 62.7829 18.2262 62.1944 18.8624C61.6059 19.4986 61.3117 20.3813 61.3117 21.5105C61.3117 22.6397 61.6059 23.5225 62.1944 24.1586C62.7829 24.7948 63.4986 25.1129 64.3415 25.1129C64.9777 25.1129 65.5264 24.9539 65.9877 24.6358C66.4648 24.3177 66.7829 23.8644 66.9419 23.2759H70.1626C69.8763 24.6119 69.2163 25.6855 68.1825 26.4966C67.1487 27.3078 65.8763 27.7133 64.3654 27.7133Z" fill="#ACB2B8"/>
<path d="M71.6802 27.427V15.594H74.376L74.6384 17.1924C75.0201 16.6199 75.5211 16.1666 76.1414 15.8326C76.7776 15.4827 77.5092 15.3077 78.3362 15.3077C80.1653 15.3077 81.4615 16.0155 82.2249 17.431C82.6543 16.7789 83.2269 16.262 83.9426 15.8803C84.6742 15.4986 85.4694 15.3077 86.3283 15.3077C87.871 15.3077 89.0559 15.769 89.883 16.6914C90.71 17.6139 91.1235 18.9658 91.1235 20.7471V27.427H88.0698V21.0334C88.0698 20.0155 87.871 19.2362 87.4734 18.6954C87.0917 18.1547 86.4953 17.8843 85.6842 17.8843C84.8571 17.8843 84.1891 18.1865 83.6802 18.7908C83.1871 19.3952 82.9406 20.2382 82.9406 21.3197V27.427H79.8869V21.0334C79.8869 20.0155 79.6881 19.2362 79.2905 18.6954C78.8929 18.1547 78.2806 17.8843 77.4535 17.8843C76.6424 17.8843 75.9823 18.1865 75.4734 18.7908C74.9804 19.3952 74.7338 20.2382 74.7338 21.3197V27.427H71.6802Z" fill="#ACB2B8"/>
<path d="M98.5794 27.7133C97.3865 27.7133 96.3289 27.4588 95.4064 26.9499C94.4839 26.441 93.7603 25.7252 93.2354 24.8028C92.7106 23.8803 92.4482 22.8147 92.4482 21.606C92.4482 20.3813 92.7026 19.2918 93.2116 18.3376C93.7364 17.3833 94.4521 16.6437 95.3587 16.1189C96.2812 15.5781 97.3627 15.3077 98.6032 15.3077C99.7643 15.3077 100.79 15.5622 101.681 16.0711C102.571 16.5801 103.263 17.2799 103.756 18.1706C104.265 19.0453 104.52 20.0234 104.52 21.105C104.52 21.2799 104.512 21.4628 104.496 21.6537C104.496 21.8445 104.488 22.0433 104.472 22.2501H95.478C95.5416 23.1726 95.8597 23.8962 96.4323 24.4211C97.0207 24.9459 97.7285 25.2083 98.5555 25.2083C99.1758 25.2083 99.6927 25.0732 100.106 24.8028C100.536 24.5165 100.854 24.1507 101.06 23.7054H104.162C103.939 24.4529 103.565 25.1368 103.041 25.7571C102.532 26.3614 101.895 26.8386 101.132 27.1885C100.385 27.5384 99.5336 27.7133 98.5794 27.7133ZM98.6032 17.7888C97.8557 17.7888 97.1957 18.0036 96.6231 18.433C96.0505 18.8465 95.6847 19.4827 95.5257 20.3415H101.418C101.371 19.5622 101.084 18.9419 100.559 18.4807C100.035 18.0195 99.3826 17.7888 98.6032 17.7888Z" fill="#ACB2B8"/>
<path d="M118.021 27.7133C116.335 27.7133 114.888 27.3555 113.679 26.6398C112.471 25.9081 111.54 24.8982 110.888 23.6099C110.236 22.3058 109.91 20.8028 109.91 19.101C109.91 17.3992 110.236 15.8962 110.888 14.592C111.54 13.2878 112.471 12.2699 113.679 11.5383C114.888 10.8067 116.335 10.4409 118.021 10.4409C120.025 10.4409 121.663 10.9419 122.936 11.9439C124.224 12.93 125.027 14.3216 125.345 16.1189H121.982C121.775 15.2123 121.329 14.5045 120.646 13.9956C119.978 13.4707 119.087 13.2083 117.974 13.2083C116.431 13.2083 115.222 13.7332 114.347 14.7829C113.473 15.8326 113.035 17.2719 113.035 19.101C113.035 20.93 113.473 22.3694 114.347 23.4191C115.222 24.4529 116.431 24.9698 117.974 24.9698C119.087 24.9698 119.978 24.7312 120.646 24.2541C121.329 23.761 121.775 23.0851 121.982 22.2262H125.345C125.027 23.9439 124.224 25.2879 122.936 26.258C121.663 27.2282 120.025 27.7133 118.021 27.7133Z" fill="#ACB2B8"/>
<path d="M132.462 27.7133C131.317 27.7133 130.283 27.4509 129.361 26.926C128.454 26.4012 127.73 25.6775 127.19 24.7551C126.665 23.8167 126.402 22.7352 126.402 21.5105C126.402 20.2859 126.673 19.2123 127.213 18.2898C127.754 17.3515 128.478 16.6199 129.384 16.095C130.307 15.5702 131.341 15.3077 132.486 15.3077C133.615 15.3077 134.633 15.5702 135.539 16.095C136.462 16.6199 137.186 17.3515 137.71 18.2898C138.251 19.2123 138.522 20.2859 138.522 21.5105C138.522 22.7352 138.251 23.8167 137.71 24.7551C137.186 25.6775 136.462 26.4012 135.539 26.926C134.617 27.4509 133.591 27.7133 132.462 27.7133ZM132.462 25.0652C133.257 25.0652 133.949 24.771 134.538 24.1825C135.126 23.5781 135.42 22.6875 135.42 21.5105C135.42 20.3336 135.126 19.4509 134.538 18.8624C133.949 18.258 133.265 17.9558 132.486 17.9558C131.675 17.9558 130.975 18.258 130.386 18.8624C129.814 19.4509 129.528 20.3336 129.528 21.5105C129.528 22.6875 129.814 23.5781 130.386 24.1825C130.975 24.771 131.667 25.0652 132.462 25.0652Z" fill="#ACB2B8"/>
<path d="M140.059 27.427V15.594H142.779L143.065 17.8127C143.494 17.0493 144.075 16.4449 144.807 15.9996C145.554 15.5383 146.429 15.3077 147.431 15.3077V18.5284H146.572C145.904 18.5284 145.308 18.6318 144.783 18.8385C144.258 19.0453 143.844 19.4032 143.542 19.9121C143.256 20.4211 143.113 21.1288 143.113 22.0354V27.427H140.059Z" fill="#ACB2B8"/>
<path d="M148.325 32.6756V15.594H151.045L151.379 17.2879C151.761 16.763 152.262 16.3018 152.882 15.9041C153.518 15.5065 154.337 15.3077 155.339 15.3077C156.452 15.3077 157.446 15.5781 158.321 16.1189C159.196 16.6596 159.888 17.3992 160.397 18.3376C160.906 19.2759 161.16 20.3415 161.16 21.5344C161.16 22.7272 160.906 23.7928 160.397 24.7312C159.888 25.6537 159.196 26.3853 158.321 26.926C157.446 27.4509 156.452 27.7133 155.339 27.7133C154.448 27.7133 153.669 27.5463 153.001 27.2123C152.333 26.8783 151.792 26.4091 151.379 25.8048V32.6756H148.325ZM154.695 25.0413C155.665 25.0413 156.468 24.7153 157.104 24.0632C157.741 23.4111 158.059 22.5682 158.059 21.5344C158.059 20.5006 157.741 19.6497 157.104 18.9817C156.468 18.3137 155.665 17.9797 154.695 17.9797C153.709 17.9797 152.898 18.3137 152.262 18.9817C151.641 19.6338 151.331 20.4767 151.331 21.5105C151.331 22.5443 151.641 23.3952 152.262 24.0632C152.898 24.7153 153.709 25.0413 154.695 25.0413Z" fill="#ACB2B8"/>
</svg>
