<svg width="155" height="155" viewBox="0 0 155 155" fill="none" xmlns="http://www.w3.org/2000/svg">
<path d="M77.6865 4.73267C87.297 4.73267 96.8135 6.62561 105.693 10.3034C114.572 13.9812 122.639 19.3719 129.435 26.1676C136.231 32.9633 141.621 41.0309 145.299 49.9099C148.977 58.7889 150.87 68.3054 150.87 77.916C150.87 87.5266 148.977 97.043 145.299 105.922C141.621 114.801 136.231 122.869 129.435 129.664C122.639 136.46 114.572 141.851 105.692 145.529C96.8135 149.206 87.297 151.099 77.6865 151.099C68.0759 151.099 58.5594 149.206 49.6804 145.529C40.8014 141.851 32.7337 136.46 25.938 129.664C19.1423 122.869 13.7517 114.801 10.0739 105.922C6.39611 97.043 4.50317 87.5265 4.50317 77.9159C4.50318 68.3054 6.39613 58.7889 10.0739 49.9099C13.7517 41.0309 19.1424 32.9632 25.9381 26.1675C32.7338 19.3718 40.8015 13.9812 49.6805 10.3034C58.5595 6.6256 68.076 4.73266 77.6865 4.73267L77.6865 4.73267Z" stroke="#F2F4F7" stroke-width="7.70351" stroke-linecap="round" stroke-linejoin="round"/>
<path d="M77.6865 4.73267C94.4369 4.73267 110.68 10.4788 123.705 21.0117C136.729 31.5445 145.746 46.2266 149.251 62.6064C152.755 78.9862 150.534 96.0724 142.959 111.012C135.383 125.952 122.913 137.841 107.628 144.694C92.3438 151.547 75.1711 152.95 58.9773 148.667C42.7834 144.385 28.5487 134.677 18.6498 121.165C8.75082 107.652 3.78684 91.1529 4.58665 74.4216C5.38646 57.6902 11.9016 41.7396 23.0444 29.2329" stroke="#000080" stroke-width="7.70351" stroke-linecap="round" stroke-linejoin="round"/>
<path d="M77.6864 16.2878C85.7795 16.2878 93.7934 17.8819 101.27 20.979C108.747 24.0761 115.541 28.6156 121.264 34.3383C126.987 40.061 131.526 46.8548 134.623 54.3319C137.72 61.8089 139.314 69.8228 139.314 77.9159C139.314 86.009 137.72 94.0229 134.623 101.5C131.526 108.977 126.987 115.771 121.264 121.494C115.541 127.216 108.747 131.756 101.27 134.853C93.7934 137.95 85.7795 139.544 77.6864 139.544C69.5933 139.544 61.5794 137.95 54.1023 134.853C46.6253 131.756 39.8315 127.216 34.1088 121.493C28.3861 115.771 23.8466 108.977 20.7495 101.5C17.6524 94.0228 16.0583 86.009 16.0583 77.9159C16.0584 69.8227 17.6524 61.8089 20.7495 54.3318C23.8466 46.8548 28.3861 40.0609 34.1088 34.3383C39.8315 28.6156 46.6253 24.0761 54.1024 20.979C61.5795 17.8819 69.5933 16.2878 77.6864 16.2878L77.6864 16.2878Z" stroke="#F2F4F7" stroke-width="7.70351" stroke-linecap="round" stroke-linejoin="round"/>
<path d="M77.6864 16.2878C90.2742 16.2878 102.56 20.1425 112.892 27.3334C123.224 34.5244 131.106 44.7066 135.478 56.5108C139.85 68.315 140.502 81.1749 137.348 93.3611C134.193 105.547 127.382 116.475 117.831 124.675C108.281 132.875 96.4479 137.953 83.9247 139.227C71.4015 140.502 58.7885 137.91 47.7819 131.802C36.7753 125.694 27.9032 116.362 22.3586 105.061C16.8141 93.76 14.8632 81.0322 16.7682 68.5893" stroke="#005DE8" stroke-width="7.70351" stroke-linecap="round" stroke-linejoin="round"/>
<path d="M77.6864 27.843C84.2621 27.843 90.7734 29.1382 96.8485 31.6546C102.924 34.171 108.444 37.8593 113.093 42.509C117.743 47.1587 121.431 52.6787 123.948 58.7538C126.464 64.8289 127.759 71.3402 127.759 77.9158C127.759 84.4915 126.464 91.0027 123.948 97.0778C121.431 103.153 117.743 108.673 113.093 113.323C108.444 117.972 102.924 121.661 96.8484 124.177C90.7733 126.693 84.2621 127.989 77.6864 127.989C71.1108 127.989 64.5995 126.693 58.5244 124.177C52.4493 121.661 46.9293 117.972 42.2796 113.323C37.6299 108.673 33.9416 103.153 31.4252 97.0778C28.9088 91.0027 27.6136 84.4914 27.6136 77.9158C27.6137 71.3401 28.9088 64.8289 31.4252 58.7538C33.9416 52.6786 37.63 47.1587 42.2796 42.509C46.9293 37.8593 52.4493 34.171 58.5244 31.6546C64.5996 29.1382 71.1108 27.843 77.6865 27.843L77.6864 27.843Z" stroke="#F2F4F7" stroke-width="7.70351" stroke-linecap="round" stroke-linejoin="round"/>
<path d="M77.6864 27.843C86.3977 27.843 94.9583 30.1157 102.522 34.4364C110.087 38.7572 116.393 44.9766 120.818 52.4803C125.243 59.9839 127.634 68.5122 127.754 77.2226C127.875 85.933 125.721 94.5242 121.505 102.148C117.29 109.771 111.158 116.162 103.717 120.691C96.275 125.219 87.7806 127.728 79.0727 127.969C70.3648 128.211 61.7446 126.176 54.0637 122.066C46.3827 117.956 39.9069 111.914 35.2757 104.536" stroke="#AFCFFF" stroke-width="7.70351" stroke-linecap="round" stroke-linejoin="round"/>
<path d="M59.636 101.853C59.5443 101.853 59.4832 101.818 59.4526 101.746L57.2058 97.0081C57.1956 96.9775 57.1752 96.9623 57.1447 96.9623H54.5463C54.5056 96.9623 54.4852 96.9826 54.4852 97.0234V101.7C54.4852 101.802 54.4342 101.853 54.3323 101.853H53.5528C53.4509 101.853 53.4 101.802 53.4 101.7V91.307C53.4 91.2051 53.4509 91.1542 53.5528 91.1542H57.5115C58.3878 91.1542 59.096 91.4293 59.636 91.9795C60.1761 92.5196 60.4461 93.2278 60.4461 94.1041C60.4461 94.8174 60.2525 95.4236 59.8653 95.9229C59.4781 96.4222 58.9533 96.7432 58.291 96.8858C58.2502 96.9062 58.2401 96.9317 58.2604 96.9623L60.5531 101.67C60.5633 101.69 60.5684 101.716 60.5684 101.746C60.5684 101.818 60.5276 101.853 60.4461 101.853H59.636ZM54.5463 92.1018C54.5056 92.1018 54.4852 92.1222 54.4852 92.163V96.0299C54.4852 96.0707 54.5056 96.0911 54.5463 96.0911H57.3892C57.9802 96.0911 58.4591 95.9076 58.826 95.5408C59.1928 95.174 59.3762 94.6951 59.3762 94.1041C59.3762 93.5131 59.1928 93.0342 58.826 92.6673C58.4591 92.2903 57.9802 92.1018 57.3892 92.1018H54.5463ZM67.6661 96.6871C67.7068 96.9725 67.7272 97.3291 67.7272 97.7571V98.2462C67.7272 98.348 67.6763 98.399 67.5744 98.399H62.6375C62.5967 98.399 62.5764 98.4194 62.5764 98.4601C62.5967 99.0206 62.6273 99.3823 62.6681 99.5453C62.7802 100.004 63.0196 100.366 63.3864 100.631C63.7533 100.895 64.222 101.028 64.7926 101.028C65.2206 101.028 65.5976 100.931 65.9236 100.738C66.2497 100.544 66.5045 100.269 66.6879 99.9122C66.749 99.8204 66.8203 99.8001 66.9019 99.851L67.4979 100.203C67.5795 100.254 67.5998 100.325 67.5591 100.417C67.3043 100.906 66.9222 101.293 66.4127 101.578C65.9033 101.853 65.3174 101.991 64.655 101.991C63.9316 101.981 63.3253 101.807 62.8362 101.471C62.3471 101.135 61.9956 100.666 61.7816 100.065C61.5982 99.5759 61.5065 98.8728 61.5065 97.9557C61.5065 97.5278 61.5116 97.1813 61.5217 96.9164C61.5421 96.6413 61.5829 96.3967 61.644 96.1828C61.8172 95.5204 62.1637 94.9906 62.6834 94.5932C63.2132 94.1958 63.8501 93.9971 64.5939 93.9971C65.5212 93.9971 66.2344 94.2314 66.7337 94.7002C67.233 95.1689 67.5438 95.8312 67.6661 96.6871ZM64.5939 94.9447C64.0946 94.9447 63.6768 95.0772 63.3406 95.3421C63.0145 95.5969 62.8005 95.9433 62.6986 96.3815C62.6375 96.5954 62.5967 96.9419 62.5764 97.4208C62.5764 97.4616 62.5967 97.4819 62.6375 97.4819H66.5962C66.6369 97.4819 66.6573 97.4616 66.6573 97.4208C66.6369 96.9623 66.6064 96.6362 66.5656 96.4426C66.4535 95.9841 66.2242 95.6223 65.8778 95.3574C65.5415 95.0823 65.1136 94.9447 64.5939 94.9447ZM70.8988 101.853C70.8071 101.853 70.746 101.813 70.7154 101.731L68.2088 94.2875L68.1935 94.2264C68.1935 94.155 68.2394 94.1194 68.3311 94.1194H69.2023C69.294 94.1194 69.3551 94.1601 69.3857 94.2416L71.2962 100.233C71.3064 100.254 71.3217 100.264 71.3421 100.264C71.3625 100.264 71.3778 100.254 71.3879 100.233L73.2985 94.2416C73.3291 94.1601 73.3902 94.1194 73.4819 94.1194L74.3531 94.1346C74.4652 94.1346 74.506 94.1907 74.4754 94.3028L71.9688 101.731C71.9382 101.813 71.877 101.853 71.7853 101.853H70.8988ZM81.0937 96.6871C81.1344 96.9725 81.1548 97.3291 81.1548 97.7571V98.2462C81.1548 98.348 81.1038 98.399 81.002 98.399H76.0651C76.0243 98.399 76.004 98.4194 76.004 98.4601C76.0243 99.0206 76.0549 99.3823 76.0957 99.5453C76.2077 100.004 76.4472 100.366 76.814 100.631C77.1809 100.895 77.6496 101.028 78.2202 101.028C78.6482 101.028 79.0252 100.931 79.3512 100.738C79.6773 100.544 79.932 100.269 80.1155 99.9122C80.1766 99.8204 80.2479 99.8001 80.3294 99.851L80.9255 100.203C81.007 100.254 81.0274 100.325 80.9867 100.417C80.7319 100.906 80.3498 101.293 79.8403 101.578C79.3309 101.853 78.745 101.991 78.0826 101.991C77.3592 101.981 76.7529 101.807 76.2638 101.471C75.7747 101.135 75.4231 100.666 75.2092 100.065C75.0258 99.5759 74.934 98.8728 74.934 97.9557C74.934 97.5278 74.9391 97.1813 74.9493 96.9164C74.9697 96.6413 75.0105 96.3967 75.0716 96.1828C75.2448 95.5204 75.5913 94.9906 76.1109 94.5932C76.6408 94.1958 77.2777 93.9971 78.0215 93.9971C78.9487 93.9971 79.662 94.2314 80.1613 94.7002C80.6606 95.1689 80.9714 95.8312 81.0937 96.6871ZM78.0215 94.9447C77.5222 94.9447 77.1044 95.0772 76.7682 95.3421C76.4421 95.5969 76.2281 95.9433 76.1262 96.3815C76.0651 96.5954 76.0243 96.9419 76.004 97.4208C76.004 97.4616 76.0243 97.4819 76.0651 97.4819H80.0238C80.0645 97.4819 80.0849 97.4616 80.0849 97.4208C80.0645 96.9623 80.0339 96.6362 79.9932 96.4426C79.8811 95.9841 79.6518 95.6223 79.3054 95.3574C78.9691 95.0823 78.5412 94.9447 78.0215 94.9447ZM85.7585 94.0124C86.5737 94.0124 87.2207 94.2518 87.6996 94.7307C88.1887 95.2097 88.4333 95.8516 88.4333 96.6566V101.7C88.4333 101.802 88.3823 101.853 88.2804 101.853H87.5009C87.399 101.853 87.3481 101.802 87.3481 101.7V96.8706C87.3481 96.3101 87.1749 95.8516 86.8284 95.495C86.4922 95.1383 86.054 94.96 85.514 94.96C84.9535 94.96 84.5001 95.1332 84.1536 95.4797C83.8072 95.8261 83.634 96.2796 83.634 96.84V101.7C83.634 101.802 83.583 101.853 83.4811 101.853H82.7016C82.5997 101.853 82.5488 101.802 82.5488 101.7V94.2722C82.5488 94.1703 82.5997 94.1194 82.7016 94.1194H83.4811C83.583 94.1194 83.634 94.1703 83.634 94.2722V94.9294C83.634 94.9498 83.6391 94.9651 83.6493 94.9753C83.6696 94.9855 83.6849 94.9804 83.6951 94.96C84.1435 94.3282 84.8313 94.0124 85.7585 94.0124ZM94.7008 94.2722C94.7008 94.1703 94.7518 94.1194 94.8537 94.1194H95.6332C95.7351 94.1194 95.786 94.1703 95.786 94.2722V101.7C95.786 101.802 95.7351 101.853 95.6332 101.853H94.8537C94.7518 101.853 94.7008 101.802 94.7008 101.7V101.043C94.7008 101.023 94.6907 101.008 94.6703 100.997C94.6499 100.987 94.6346 100.992 94.6244 101.013C94.1965 101.644 93.5188 101.96 92.5916 101.96C92.1025 101.96 91.6491 101.863 91.2313 101.67C90.8237 101.466 90.4976 101.176 90.2531 100.799C90.0187 100.422 89.9015 99.9682 89.9015 99.4383V94.2722C89.9015 94.1703 89.9525 94.1194 90.0544 94.1194H90.8339C90.9358 94.1194 90.9867 94.1703 90.9867 94.2722V99.1174C90.9867 99.6982 91.1498 100.162 91.4758 100.508C91.8019 100.845 92.2451 101.013 92.8056 101.013C93.3864 101.013 93.8449 100.839 94.1812 100.493C94.5276 100.147 94.7008 99.688 94.7008 99.1174V94.2722ZM103.384 96.6871C103.425 96.9725 103.446 97.3291 103.446 97.7571V98.2462C103.446 98.348 103.395 98.399 103.293 98.399H98.3558C98.3151 98.399 98.2947 98.4194 98.2947 98.4601C98.3151 99.0206 98.3457 99.3823 98.3864 99.5453C98.4985 100.004 98.738 100.366 99.1048 100.631C99.4716 100.895 99.9403 101.028 100.511 101.028C100.939 101.028 101.316 100.931 101.642 100.738C101.968 100.544 102.223 100.269 102.406 99.9122C102.467 99.8204 102.539 99.8001 102.62 99.851L103.216 100.203C103.298 100.254 103.318 100.325 103.277 100.417C103.023 100.906 102.641 101.293 102.131 101.578C101.622 101.853 101.036 101.991 100.373 101.991C99.6499 101.981 99.0436 101.807 98.5545 101.471C98.0654 101.135 97.7139 100.666 97.4999 100.065C97.3165 99.5759 97.2248 98.8728 97.2248 97.9557C97.2248 97.5278 97.2299 97.1813 97.2401 96.9164C97.2605 96.6413 97.3012 96.3967 97.3624 96.1828C97.5356 95.5204 97.882 94.9906 98.4017 94.5932C98.9316 94.1958 99.5684 93.9971 100.312 93.9971C101.239 93.9971 101.953 94.2314 102.452 94.7002C102.951 95.1689 103.262 95.8312 103.384 96.6871ZM100.312 94.9447C99.813 94.9447 99.3952 95.0772 99.0589 95.3421C98.7329 95.5969 98.5189 95.9433 98.417 96.3815C98.3558 96.5954 98.3151 96.9419 98.2947 97.4208C98.2947 97.4616 98.3151 97.4819 98.3558 97.4819H102.315C102.355 97.4819 102.376 97.4616 102.376 97.4208C102.355 96.9623 102.325 96.6362 102.284 96.4426C102.172 95.9841 101.943 95.6223 101.596 95.3574C101.26 95.0823 100.832 94.9447 100.312 94.9447Z" fill="#425466" fill-opacity="0.4"/>
<path d="M56.1326 73.1968C56.1326 74.5192 55.7224 75.6074 54.9022 76.4611C54.0819 77.3148 52.9436 77.8338 51.4872 78.0179C51.4035 78.0514 51.3617 78.1016 51.3617 78.1686L51.3868 79.8258C51.3868 79.9095 51.3533 79.9765 51.2863 80.0267C51.2361 80.0937 51.1692 80.1272 51.0855 80.1272H49.1269C49.0432 80.1272 48.9678 80.0937 48.9009 80.0267C48.8507 79.9765 48.8255 79.9095 48.8255 79.8258L48.8507 78.1435C48.8507 78.0765 48.8088 78.0263 48.7251 77.9928C47.2687 77.7584 46.122 77.2144 45.285 76.3607C44.4648 75.4902 44.0546 74.3937 44.0546 73.0712V72.4435C44.0546 72.3598 44.0797 72.2928 44.13 72.2426C44.1969 72.1756 44.2722 72.1422 44.3559 72.1422H46.4652C46.5489 72.1422 46.6159 72.1756 46.6661 72.2426C46.733 72.2928 46.7665 72.3598 46.7665 72.4435V72.9206C46.7665 73.6906 47.0929 74.3351 47.7458 74.854C48.3987 75.3563 49.2859 75.6074 50.4075 75.6074C51.3951 75.6074 52.1317 75.3897 52.6172 74.9545C53.1194 74.5192 53.3705 73.9585 53.3705 73.2721C53.3705 72.8034 53.2365 72.41 52.9687 72.0919C52.7009 71.7571 52.3075 71.4642 51.7885 71.2131C51.2863 70.9452 50.533 70.6021 49.5286 70.1836C48.407 69.7483 47.4947 69.3382 46.7916 68.9532C46.0885 68.5682 45.5026 68.0492 45.0339 67.3964C44.5652 66.7267 44.3308 65.8981 44.3308 64.9105C44.3308 63.6382 44.7159 62.592 45.4859 61.7717C46.2727 60.9514 47.3357 60.4409 48.6749 60.24C48.7586 60.2065 48.8004 60.1563 48.8004 60.0893L48.7502 58.2312C48.7502 58.1475 48.7753 58.0805 48.8255 58.0303C48.8925 57.9633 48.9678 57.9298 49.0515 57.9298H51.0101C51.0938 57.9298 51.1608 57.9633 51.211 58.0303C51.278 58.0805 51.3114 58.1475 51.3114 58.2312L51.2612 60.1144C51.2612 60.1814 51.3031 60.2316 51.3868 60.2651C52.8097 60.4994 53.9313 61.0686 54.7515 61.9726C55.5885 62.8765 56.007 63.9897 56.007 65.3122V65.7391C56.007 65.8228 55.9735 65.8981 55.9066 65.9651C55.8564 66.0153 55.7894 66.0404 55.7057 66.0404H53.5713C53.4876 66.0404 53.4123 66.0153 53.3454 65.9651C53.2951 65.8981 53.27 65.8228 53.27 65.7391V65.4629C53.27 64.6761 52.9603 64.0149 52.341 63.4792C51.7383 62.9268 50.9013 62.6505 49.8299 62.6505C48.9427 62.6505 48.2564 62.8431 47.7709 63.2281C47.2855 63.6131 47.0427 64.1571 47.0427 64.8602C47.0427 65.3624 47.1683 65.7726 47.4194 66.0906C47.6872 66.4087 48.0722 66.7016 48.5744 66.9695C49.0934 67.2206 49.8802 67.547 50.9348 67.9488C52.0731 68.4008 52.9771 68.8109 53.6467 69.1792C54.333 69.5474 54.9189 70.0664 55.4044 70.736C55.8898 71.3889 56.1326 72.2091 56.1326 73.1968ZM69.099 70.6858C69.1827 70.6858 69.2497 70.7193 69.2999 70.7862C69.3668 70.8364 69.4003 70.9034 69.4003 70.9871V72.9959C69.4003 73.0796 69.3668 73.1549 69.2999 73.2219C69.2497 73.2721 69.1827 73.2972 69.099 73.2972H68.0444C67.9607 73.2972 67.9188 73.3391 67.9188 73.4228V77.6162C67.9188 77.6999 67.8853 77.7752 67.8184 77.8422C67.7682 77.8924 67.7012 77.9175 67.6175 77.9175H65.3074C65.2237 77.9175 65.1483 77.8924 65.0814 77.8422C65.0312 77.7752 65.0061 77.6999 65.0061 77.6162V73.4228C65.0061 73.3391 64.9642 73.2972 64.8805 73.2972H57.247C57.1633 73.2972 57.088 73.2721 57.021 73.2219C56.9708 73.1549 56.9457 73.0796 56.9457 72.9959V71.3889C56.9457 71.2884 56.9708 71.1629 57.021 71.0122L61.7669 60.5664C61.8338 60.4157 61.951 60.3404 62.1184 60.3404H64.5792C64.6964 60.3404 64.7717 60.3739 64.8052 60.4409C64.8554 60.4911 64.8554 60.5748 64.8052 60.692L60.3356 70.5351C60.3188 70.5686 60.3188 70.6021 60.3356 70.6356C60.3523 70.669 60.3774 70.6858 60.4109 70.6858H64.8805C64.9642 70.6858 65.0061 70.6439 65.0061 70.5602V67.1453C65.0061 67.0616 65.0312 66.9946 65.0814 66.9444C65.1483 66.8774 65.2237 66.8439 65.3074 66.8439H67.6175C67.7012 66.8439 67.7682 66.8774 67.8184 66.9444C67.8853 66.9946 67.9188 67.0616 67.9188 67.1453V70.5602C67.9188 70.6439 67.9607 70.6858 68.0444 70.6858H69.099ZM76.5306 78.1937C74.7729 78.1937 73.3751 77.6999 72.3372 76.7122C71.3161 75.7078 70.8055 74.3602 70.8055 72.6695V65.5884C70.8055 63.9144 71.3161 62.592 72.3372 61.621C73.3751 60.6334 74.7729 60.1395 76.5306 60.1395C78.2883 60.1395 79.6861 60.6334 80.724 61.621C81.7786 62.592 82.3059 63.9144 82.3059 65.5884V72.6695C82.3059 74.3602 81.7786 75.7078 80.724 76.7122C79.6861 77.6999 78.2883 78.1937 76.5306 78.1937ZM76.5306 75.6576C77.4011 75.6576 78.0958 75.4065 78.6147 74.9043C79.1337 74.3853 79.3932 73.6906 79.3932 72.8201V65.488C79.3932 64.6175 79.1337 63.9312 78.6147 63.429C78.0958 62.91 77.4011 62.6505 76.5306 62.6505C75.6769 62.6505 74.9905 62.91 74.4716 63.429C73.9694 63.9312 73.7183 64.6175 73.7183 65.488V72.8201C73.7183 73.6906 73.9694 74.3853 74.4716 74.9043C74.9905 75.4065 75.6769 75.6576 76.5306 75.6576ZM89.5467 78.1937C87.7889 78.1937 86.3912 77.6999 85.3533 76.7122C84.3321 75.7078 83.8216 74.3602 83.8216 72.6695V65.5884C83.8216 63.9144 84.3321 62.592 85.3533 61.621C86.3912 60.6334 87.7889 60.1395 89.5467 60.1395C91.3044 60.1395 92.7022 60.6334 93.74 61.621C94.7947 62.592 95.322 63.9144 95.322 65.5884V72.6695C95.322 74.3602 94.7947 75.7078 93.74 76.7122C92.7022 77.6999 91.3044 78.1937 89.5467 78.1937ZM89.5467 75.6576C90.4171 75.6576 91.1119 75.4065 91.6308 74.9043C92.1497 74.3853 92.4092 73.6906 92.4092 72.8201V65.488C92.4092 64.6175 92.1497 63.9312 91.6308 63.429C91.1119 62.91 90.4171 62.6505 89.5467 62.6505C88.6929 62.6505 88.0066 62.91 87.4876 63.429C86.9854 63.9312 86.7343 64.6175 86.7343 65.488V72.8201C86.7343 73.6906 86.9854 74.3853 87.4876 74.9043C88.0066 75.4065 88.6929 75.6576 89.5467 75.6576ZM108.614 60.5413C108.698 60.4074 108.815 60.3404 108.966 60.3404H111.276C111.36 60.3404 111.427 60.3739 111.477 60.4409C111.544 60.4911 111.577 60.558 111.577 60.6417V77.6162C111.577 77.6999 111.544 77.7752 111.477 77.8422C111.427 77.8924 111.36 77.9175 111.276 77.9175H108.966C108.882 77.9175 108.807 77.8924 108.74 77.8422C108.69 77.7752 108.664 77.6999 108.664 77.6162V65.6386C108.664 65.5884 108.639 65.5549 108.589 65.5382C108.556 65.5215 108.531 65.5382 108.514 65.5884L105.375 70.4096C105.291 70.5435 105.174 70.6104 105.023 70.6104H103.868C103.718 70.6104 103.601 70.5435 103.517 70.4096L100.353 65.6135C100.336 65.5633 100.303 65.5466 100.253 65.5633C100.219 65.5801 100.202 65.6135 100.202 65.6638V77.6162C100.202 77.6999 100.169 77.7752 100.102 77.8422C100.052 77.8924 99.9847 77.9175 99.901 77.9175H97.5909C97.5072 77.9175 97.4319 77.8924 97.3649 77.8422C97.3147 77.7752 97.2896 77.6999 97.2896 77.6162V60.6417C97.2896 60.558 97.3147 60.4911 97.3649 60.4409C97.4319 60.3739 97.5072 60.3404 97.5909 60.3404H99.901C100.052 60.3404 100.169 60.4074 100.253 60.5413L104.346 66.7435C104.379 66.777 104.412 66.7937 104.446 66.7937C104.479 66.7937 104.505 66.777 104.521 66.7435L108.614 60.5413Z" fill="#05263F"/>
</svg>
