<svg width="34" height="33" viewBox="0 0 34 33" fill="none" xmlns="http://www.w3.org/2000/svg">
<path d="M5.12182 11.4323V24.8972M12.6958 11.4323V24.8972M21.1113 11.4323V24.8972M28.6853 11.4323V24.8972M1.75562 27.5901L1.75562 28.9366C1.75562 29.8792 1.75562 30.3505 1.93906 30.7106C2.10043 31.0273 2.35791 31.2848 2.67461 31.4461C3.03464 31.6296 3.50595 31.6296 4.44858 31.6296H29.3585C30.3011 31.6296 30.7725 31.6296 31.1325 31.4461C31.4492 31.2848 31.7067 31.0273 31.868 30.7106C32.0515 30.3505 32.0515 29.8792 32.0515 28.9366V27.5901C32.0515 26.6475 32.0515 26.1762 31.868 25.8161C31.7067 25.4994 31.4492 25.242 31.1325 25.0806C30.7725 24.8972 30.3011 24.8972 29.3585 24.8972H4.44858C3.50596 24.8972 3.03464 24.8972 2.67461 25.0806C2.35791 25.242 2.10043 25.4994 1.93906 25.8161C1.75562 26.1762 1.75562 26.6475 1.75562 27.5901ZM16.3194 1.46352L3.8644 4.23129C3.11195 4.3985 2.73572 4.4821 2.45489 4.68443C2.20718 4.86288 2.01267 5.10536 1.8922 5.38588C1.75562 5.70392 1.75562 6.08932 1.75562 6.86013L1.75562 8.73935C1.75562 9.68198 1.75562 10.1533 1.93906 10.5133C2.10043 10.83 2.35791 11.0875 2.67461 11.2489C3.03464 11.4323 3.50595 11.4323 4.44858 11.4323H29.3585C30.3011 11.4323 30.7725 11.4323 31.1325 11.2489C31.4492 11.0875 31.7067 10.83 31.868 10.5133C32.0515 10.1533 32.0515 9.68198 32.0515 8.73936V6.86013C32.0515 6.08932 32.0515 5.70392 31.9149 5.38588C31.7944 5.10536 31.5999 4.86289 31.3522 4.68443C31.0714 4.48211 30.6952 4.3985 29.9427 4.23129L17.4877 1.46352C17.2697 1.41507 17.1607 1.39085 17.0506 1.38119C16.9527 1.37261 16.8544 1.37261 16.7565 1.38119C16.6464 1.39085 16.5374 1.41507 16.3194 1.46352Z" stroke="#000080" stroke-width="2.18349" stroke-linecap="round" stroke-linejoin="round"/>
</svg>
