<svg width="295" height="275" viewBox="0 0 295 275" fill="none" xmlns="http://www.w3.org/2000/svg">
    <g filter="url(#filter0_d_3863_2588)">
        <g clip-path="url(#clip0_3863_2588)">
            <rect width="203.734" height="119.434" rx="10.1822" transform="matrix(0.865647 0.500655 -0.499345 0.866403 87.2541 19.6729)" fill="#9999CC"/>
            <g clip-path="url(#clip1_3863_2588)">
                <path d="M121.201 58.5907C121.57 60.9197 121.127 63.3049 119.945 65.3453C118.717 67.4707 116.848 68.9938 114.723 69.8106L114.311 68.742C116.268 67.9912 117.907 66.5895 118.953 64.7725C120.043 62.8832 120.385 60.7678 120.069 58.7681L121.201 58.5907ZM118.372 59.0347C118.639 60.7169 118.318 62.4397 117.464 63.9134C116.578 65.4481 115.228 66.5482 113.694 67.1389L113.282 66.0698C114.627 65.5535 115.754 64.5898 116.472 63.3407C117.222 62.0421 117.457 60.5871 117.241 59.2129L118.372 59.035L118.372 59.0347ZM115.543 59.4792C115.707 60.5144 115.51 61.5746 114.984 62.4815C114.439 63.4259 113.608 64.103 112.664 64.4664L112.252 63.3973C112.986 63.1157 113.6 62.5901 113.992 61.9088C114.401 61.2005 114.53 60.4068 114.411 59.6574L115.543 59.4795L115.543 59.4792ZM112.713 59.9237C112.775 60.3119 112.701 60.7095 112.504 61.0497C112.3 61.4038 111.988 61.6576 111.634 61.7939L111.016 60.1905L112.714 59.9239L112.713 59.9237Z" fill="white"/>
            </g>
            <path d="M261.56 135.787C265.659 133.508 270.654 133.549 274.715 135.894L362.714 186.7C367.096 189.23 367.045 195.573 362.622 198.032L244.409 263.753C240.309 266.032 235.315 265.992 231.253 263.647L143.255 212.841C138.872 210.311 138.923 203.968 143.346 201.509L261.56 135.787Z" stroke="#E03900" stroke-width="0.636389"/>
            <path d="M64.4248 97.0112L63.7453 96.6188C63.818 96.4002 63.8468 96.1879 63.8317 95.9819C63.8185 95.777 63.7697 95.5832 63.6852 95.4005C63.6036 95.217 63.4917 95.0501 63.3495 94.8998C63.2074 94.7495 63.0431 94.6206 62.8568 94.513C62.517 94.3169 62.1597 94.225 61.7847 94.2375C61.4116 94.251 61.0472 94.3779 60.6917 94.6184C60.3379 94.8598 60.0208 95.2235 59.7403 95.7094C59.4597 96.1953 59.3033 96.6518 59.2711 97.0789C59.2407 97.507 59.3129 97.886 59.4878 98.2159C59.6644 98.5469 59.9227 98.8104 60.2624 99.0066C60.4487 99.1142 60.6425 99.1919 60.8438 99.2399C61.045 99.2879 61.2449 99.3023 61.4436 99.283C61.6451 99.263 61.8379 99.2075 62.022 99.1165C62.2089 99.0247 62.3784 98.8936 62.5304 98.7231L63.2099 99.1155C62.9932 99.3727 62.7518 99.5756 62.4859 99.724C62.2199 99.8725 61.9406 99.9682 61.6479 100.011C61.3563 100.052 61.0616 100.042 60.7639 99.9793C60.4681 99.9181 60.1785 99.8057 59.8954 99.6423C59.4168 99.366 59.0587 99.0033 58.8211 98.5544C58.5834 98.1054 58.4822 97.6037 58.5174 97.0492C58.5525 96.4947 58.741 95.9216 59.0827 95.3297C59.4244 94.7379 59.8265 94.2881 60.2891 93.9804C60.7517 93.6727 61.2369 93.5095 61.7445 93.4909C62.2521 93.4722 62.7452 93.601 63.2238 93.8773C63.5069 94.0408 63.749 94.2354 63.9499 94.461C64.1527 94.6877 64.3087 94.9385 64.4179 95.2134C64.5281 95.4865 64.5855 95.7753 64.5899 96.0799C64.5953 96.3826 64.5403 96.693 64.4248 97.0112ZM64.3431 102.239C64.0764 102.085 63.8633 101.895 63.704 101.669C63.5457 101.442 63.4579 101.195 63.4408 100.929C63.4247 100.662 63.4958 100.391 63.654 100.117C63.7932 99.876 63.9535 99.708 64.135 99.613C64.3175 99.5163 64.513 99.4708 64.7215 99.4767C64.93 99.4826 65.1423 99.5199 65.3583 99.5887C65.5772 99.6566 65.7918 99.7342 66.002 99.8215C66.2768 99.9363 66.4983 100.031 66.6667 100.107C66.838 100.181 66.9723 100.219 67.0697 100.219C67.1688 100.22 67.2484 100.168 67.3085 100.064L67.3212 100.042C67.4773 99.7721 67.5246 99.5193 67.4631 99.2841C67.4035 99.0499 67.2248 98.8469 66.927 98.675C66.6183 98.4968 66.3372 98.4246 66.0838 98.4585C65.8304 98.4925 65.6238 98.5656 65.464 98.6779L64.9768 98.1044C65.234 97.9119 65.4951 97.7972 65.7601 97.7601C66.0279 97.7224 66.2868 97.7379 66.5369 97.8068C66.7898 97.8749 67.0222 97.9701 67.2341 98.0924C67.3693 98.1705 67.5151 98.2766 67.6715 98.4107C67.8307 98.544 67.9641 98.7075 68.0715 98.901C68.1808 99.0956 68.2327 99.3241 68.2274 99.5865C68.222 99.8489 68.1229 100.147 67.9299 100.482L66.329 103.254L65.6823 102.881L66.0114 102.311L65.9785 102.292C65.8819 102.358 65.7524 102.414 65.59 102.459C65.4276 102.504 65.2404 102.514 65.0283 102.489C64.8162 102.464 64.5878 102.381 64.3431 102.239ZM64.7771 101.715C65.0328 101.863 65.2773 101.937 65.5107 101.938C65.7459 101.94 65.9541 101.887 66.1354 101.78C66.3185 101.674 66.4606 101.533 66.5619 101.358L66.9036 100.766C66.8572 100.783 66.7795 100.778 66.6705 100.752C66.5644 100.725 66.4453 100.686 66.3131 100.637C66.1839 100.586 66.0584 100.536 65.9367 100.485C65.8179 100.434 65.7211 100.392 65.6464 100.361C65.4657 100.286 65.2881 100.231 65.1135 100.196C64.9417 100.16 64.7832 100.165 64.6378 100.21C64.4953 100.255 64.3765 100.359 64.2816 100.523C64.1519 100.748 64.1369 100.966 64.2367 101.177C64.3394 101.387 64.5195 101.567 64.7771 101.715ZM67.4629 103.909L69.8928 99.7005L70.5175 100.061L70.1505 100.697L70.1943 100.722C70.3913 100.558 70.6276 100.469 70.9034 100.456C71.1792 100.442 71.4432 100.508 71.6953 100.653C71.7428 100.681 71.8016 100.716 71.8718 100.759C71.942 100.802 71.9943 100.836 72.0287 100.861L71.649 101.518C71.6303 101.5 71.5848 101.463 71.5126 101.407C71.4432 101.349 71.3656 101.296 71.2798 101.247C71.0752 101.128 70.8678 101.066 70.6574 101.059C70.45 101.051 70.2565 101.095 70.0768 101.191C69.9001 101.287 69.7569 101.429 69.6472 101.619L68.1095 104.282L67.4629 103.909ZM71.6979 106.471C71.3472 106.269 71.0887 106.001 70.9225 105.669C70.7573 105.335 70.6928 104.962 70.7289 104.549C70.7661 104.134 70.9133 103.704 71.1707 103.259C71.4259 102.817 71.7232 102.477 72.0625 102.239C72.4018 102.001 72.7578 101.872 73.1305 101.851C73.5031 101.83 73.8666 101.922 74.221 102.126C74.495 102.284 74.6851 102.455 74.7913 102.638C74.9003 102.821 74.9637 102.993 74.9812 103.157C75.0017 103.32 75.0146 103.452 75.0199 103.552L75.0747 103.584L76.2706 101.512L76.9173 101.886L73.6775 107.497L73.0528 107.136L73.4261 106.49L73.3494 106.445C73.2576 106.495 73.1341 106.553 72.9789 106.619C72.8248 106.683 72.6401 106.714 72.4248 106.712C72.2106 106.707 71.9683 106.627 71.6979 106.471ZM72.121 105.941C72.3803 106.091 72.6386 106.15 72.8956 106.118C73.1537 106.084 73.399 105.974 73.6313 105.786C73.8648 105.597 74.0732 105.344 74.2567 105.026C74.4381 104.712 74.5512 104.41 74.5959 104.122C74.6417 103.832 74.613 103.569 74.5099 103.334C74.4079 103.098 74.2254 102.903 73.9623 102.751C73.6883 102.593 73.4194 102.532 73.1555 102.567C72.8945 102.601 72.6493 102.712 72.4198 102.898C72.1932 103.084 71.9945 103.325 71.8236 103.621C71.6507 103.921 71.5392 104.219 71.4892 104.517C71.4421 104.813 71.4673 105.086 71.5648 105.335C71.6652 105.583 71.8506 105.785 72.121 105.941ZM77.0136 106.048L75.5519 108.579L74.9053 108.206L78.1451 102.594L78.7917 102.968L77.6021 105.028L77.6569 105.06C77.881 104.899 78.1287 104.812 78.3998 104.798C78.6737 104.784 78.976 104.872 79.3067 105.063C79.5935 105.228 79.8114 105.431 79.9605 105.67C80.1107 105.908 80.1771 106.179 80.1598 106.483C80.1453 106.786 80.0337 107.119 79.8249 107.481L78.2809 110.155L77.6343 109.782L79.153 107.151C79.346 106.817 79.4084 106.508 79.3403 106.225C79.2752 105.942 79.09 105.712 78.785 105.536C78.5731 105.413 78.3573 105.349 78.1376 105.341C77.9197 105.335 77.7127 105.389 77.5168 105.505C77.3227 105.622 77.1549 105.803 77.0136 106.048ZM81.0768 111.886C80.6968 111.667 80.4157 111.384 80.2333 111.037C80.0527 110.692 79.9759 110.31 80.0029 109.892C80.0317 109.475 80.1716 109.05 80.4226 108.615C80.6757 108.176 80.9761 107.84 81.3238 107.604C81.6734 107.37 82.0428 107.245 82.4322 107.229C82.8234 107.213 83.2089 107.315 83.5889 107.535C83.9688 107.754 84.2491 108.037 84.4296 108.382C84.612 108.728 84.6883 109.111 84.6584 109.53C84.6304 109.949 84.4898 110.378 84.2367 110.817C83.9857 111.252 83.6859 111.585 83.3375 111.818C82.9908 112.051 82.6219 112.175 82.2307 112.19C81.8414 112.207 81.4567 112.105 81.0768 111.886ZM81.4121 111.305C81.7007 111.472 81.9809 111.535 82.2527 111.494C82.5244 111.454 82.7746 111.339 83.0034 111.15C83.2321 110.96 83.4276 110.725 83.59 110.444C83.7525 110.162 83.859 109.874 83.9098 109.58C83.9606 109.285 83.936 109.009 83.8362 108.752C83.7363 108.494 83.5421 108.282 83.2535 108.116C82.9649 107.949 82.6842 107.887 82.4114 107.929C82.1386 107.971 81.8873 108.088 81.6575 108.279C81.4278 108.471 81.2317 108.707 81.0693 108.988C80.9068 109.269 80.8008 109.557 80.7511 109.849C80.7014 110.142 80.727 110.416 80.8279 110.672C80.9288 110.927 81.1235 111.138 81.4121 111.305ZM87.8616 108.204L84.6218 113.816L83.9752 113.442L87.215 107.831L87.8616 108.204ZM87.2985 115.478C86.9478 115.276 86.6893 115.008 86.5231 114.676C86.3579 114.342 86.2934 113.969 86.3295 113.556C86.3666 113.141 86.5139 112.711 86.7712 112.266C87.0264 111.824 87.3237 111.484 87.663 111.246C88.0024 111.008 88.3584 110.879 88.731 110.858C89.1037 110.837 89.4672 110.929 89.8215 111.133C90.0955 111.291 90.2856 111.462 90.3918 111.645C90.5009 111.828 90.5642 112 90.5818 112.164C90.6023 112.327 90.6152 112.459 90.6205 112.559L90.6753 112.591L91.8712 110.519L92.5178 110.893L89.278 116.504L88.6533 116.143L89.0267 115.497L88.9499 115.452C88.8582 115.502 88.7347 115.56 88.5795 115.626C88.4254 115.69 88.2407 115.721 88.0254 115.719C87.8111 115.714 87.5688 115.634 87.2985 115.478ZM87.7215 114.948C87.9809 115.098 88.2391 115.157 88.4962 115.125C88.7543 115.091 88.9995 114.981 89.2319 114.793C89.4653 114.604 89.6738 114.351 89.8573 114.033C90.0387 113.719 90.1517 113.417 90.1964 113.129C90.2422 112.839 90.2136 112.576 90.1105 112.341C90.0085 112.105 89.8259 111.91 89.5629 111.758C89.2889 111.6 89.02 111.539 88.7561 111.574C88.4951 111.608 88.2499 111.719 88.0204 111.905C87.7938 112.091 87.595 112.332 87.4242 112.628C87.2512 112.928 87.1398 113.226 87.0898 113.524C87.0427 113.82 87.0679 114.093 87.1654 114.342C87.2658 114.59 87.4512 114.792 87.7215 114.948ZM92.2198 118.319C91.8142 118.085 91.5161 117.794 91.3254 117.445C91.1375 117.095 91.0575 116.713 91.0852 116.298C91.1158 115.882 91.2556 115.459 91.5045 115.028C91.7534 114.596 92.0513 114.262 92.3982 114.024C92.748 113.785 93.1178 113.655 93.5074 113.634C93.8999 113.612 94.2862 113.711 94.6661 113.93C94.8853 114.057 95.0807 114.218 95.2522 114.415C95.4237 114.611 95.5497 114.842 95.6302 115.108C95.7117 115.372 95.727 115.668 95.6761 115.997C95.6252 116.325 95.4863 116.686 95.2596 117.079L95.1014 117.353L91.8572 115.48L92.18 114.921L94.7665 116.414C94.9036 116.177 94.9784 115.937 94.991 115.696C95.0054 115.456 94.957 115.232 94.8457 115.024C94.7362 114.817 94.5646 114.646 94.3307 114.511C94.0732 114.362 93.8134 114.298 93.5515 114.317C93.2924 114.335 93.0541 114.417 92.8365 114.562C92.619 114.707 92.4433 114.895 92.3093 115.127L92.0942 115.5C91.9107 115.817 91.8099 116.118 91.7919 116.403C91.7768 116.686 91.8346 116.943 91.9655 117.172C92.0974 117.399 92.2939 117.588 92.5551 117.738C92.725 117.837 92.8922 117.901 93.0566 117.933C93.2239 117.964 93.3857 117.96 93.5421 117.921C93.6995 117.88 93.8478 117.803 93.987 117.688L94.5104 118.224C94.3223 118.398 94.1042 118.521 93.8562 118.592C93.6092 118.661 93.3456 118.675 93.0656 118.632C92.7867 118.588 92.5047 118.484 92.2198 118.319ZM94.9504 119.779L97.3802 115.57L98.0049 115.931L97.6379 116.567L97.6818 116.592C97.8787 116.428 98.1151 116.339 98.3909 116.326C98.6667 116.312 98.9307 116.378 99.1827 116.523C99.2302 116.551 99.2891 116.586 99.3593 116.629C99.4294 116.672 99.4817 116.706 99.5162 116.73L99.1365 117.388C99.1178 117.37 99.0723 117.333 99 117.276C98.9307 117.219 98.8531 117.166 98.7673 117.116C98.5627 116.998 98.3552 116.936 98.1449 116.929C97.9375 116.921 97.7439 116.965 97.5643 117.061C97.3876 117.156 97.2443 117.299 97.1347 117.489L95.597 120.152L94.9504 119.779ZM107.676 119.644L104.436 125.256L103.778 124.876L103.264 118.705L103.21 118.673L100.666 123.079L99.9864 122.686L103.226 117.075L103.884 117.455L104.402 123.643L104.457 123.675L107.007 119.258L107.676 119.644ZM106.843 126.777C106.577 126.623 106.364 126.433 106.204 126.207C106.046 125.979 105.958 125.732 105.941 125.467C105.925 125.199 105.996 124.929 106.154 124.655C106.293 124.414 106.454 124.246 106.635 124.151C106.818 124.054 107.013 124.008 107.222 124.014C107.43 124.02 107.643 124.057 107.859 124.126C108.078 124.194 108.292 124.272 108.502 124.359C108.777 124.474 108.999 124.569 109.167 124.644C109.338 124.719 109.473 124.756 109.57 124.756C109.669 124.757 109.749 124.706 109.809 124.602L109.822 124.58C109.978 124.31 110.025 124.057 109.963 123.822C109.904 123.587 109.725 123.384 109.427 123.213C109.119 123.034 108.838 122.962 108.584 122.996C108.331 123.03 108.124 123.103 107.964 123.215L107.477 122.642C107.734 122.449 107.995 122.335 108.26 122.298C108.528 122.26 108.787 122.275 109.037 122.344C109.29 122.412 109.523 122.508 109.734 122.63C109.87 122.708 110.015 122.814 110.172 122.948C110.331 123.082 110.464 123.245 110.572 123.439C110.681 123.633 110.733 123.862 110.728 124.124C110.722 124.386 110.623 124.685 110.43 125.019L108.829 127.792L108.183 127.419L108.512 126.849L108.479 126.83C108.382 126.896 108.253 126.951 108.09 126.996C107.928 127.041 107.741 127.051 107.529 127.026C107.317 127.001 107.088 126.918 106.843 126.777ZM107.277 126.253C107.533 126.401 107.778 126.475 108.011 126.476C108.246 126.477 108.454 126.425 108.636 126.317C108.819 126.211 108.961 126.071 109.062 125.895L109.404 125.303C109.357 125.32 109.28 125.316 109.171 125.289C109.065 125.262 108.946 125.224 108.813 125.174C108.684 125.124 108.559 125.074 108.437 125.023C108.318 124.971 108.221 124.93 108.147 124.899C107.966 124.824 107.788 124.769 107.614 124.734C107.442 124.698 107.283 124.703 107.138 124.748C106.996 124.792 106.877 124.897 106.782 125.061C106.652 125.286 106.637 125.503 106.737 125.715C106.84 125.925 107.02 126.104 107.277 126.253ZM109.963 128.447L112.393 124.238L113.018 124.599L112.638 125.256L112.693 125.288C112.91 125.114 113.153 125.021 113.42 125.01C113.688 124.997 113.959 125.069 114.233 125.227C114.511 125.388 114.705 125.584 114.817 125.817C114.932 126.048 114.976 126.307 114.951 126.591L114.994 126.617C115.228 126.462 115.489 126.382 115.778 126.379C116.069 126.374 116.365 126.458 116.666 126.632C117.042 126.849 117.282 127.145 117.385 127.519C117.49 127.891 117.399 128.324 117.113 128.819L115.487 131.636L114.84 131.262L116.467 128.446C116.646 128.135 116.689 127.864 116.596 127.633C116.503 127.401 116.342 127.219 116.112 127.086C115.816 126.916 115.535 126.873 115.269 126.958C115.004 127.041 114.793 127.219 114.636 127.491L113.054 130.231L112.396 129.851L114.061 126.969C114.199 126.73 114.232 126.492 114.161 126.256C114.092 126.019 113.934 125.829 113.689 125.688C113.521 125.591 113.338 125.545 113.141 125.55C112.945 125.556 112.756 125.613 112.575 125.72C112.396 125.827 112.248 125.983 112.129 126.19L110.61 128.82L109.963 128.447ZM118.337 133.398C117.931 133.164 117.633 132.873 117.443 132.524C117.255 132.174 117.175 131.792 117.202 131.377C117.233 130.961 117.373 130.537 117.622 130.106C117.871 129.675 118.168 129.341 118.515 129.103C118.865 128.864 119.235 128.734 119.625 128.713C120.017 128.691 120.403 128.79 120.783 129.009C121.003 129.136 121.198 129.297 121.369 129.494C121.541 129.69 121.667 129.921 121.747 130.187C121.829 130.451 121.844 130.747 121.793 131.075C121.742 131.404 121.604 131.765 121.377 132.157L121.219 132.431L117.974 130.558L118.297 129.999L120.884 131.493C121.021 131.255 121.096 131.016 121.108 130.775C121.123 130.535 121.074 130.311 120.963 130.103C120.853 129.896 120.682 129.725 120.448 129.59C120.19 129.441 119.931 129.376 119.669 129.396C119.41 129.414 119.171 129.496 118.954 129.641C118.736 129.785 118.56 129.974 118.427 130.206L118.211 130.578C118.028 130.896 117.927 131.197 117.909 131.482C117.894 131.765 117.952 132.021 118.083 132.25C118.215 132.477 118.411 132.666 118.672 132.817C118.842 132.915 119.009 132.98 119.174 133.012C119.341 133.043 119.503 133.039 119.659 133C119.817 132.959 119.965 132.882 120.104 132.767L120.628 133.303C120.44 133.477 120.221 133.6 119.973 133.671C119.726 133.74 119.463 133.753 119.183 133.711C118.904 133.667 118.622 133.563 118.337 133.398Z" fill="white"/>
            <path d="M46.8194 116.485L55.9023 109.031L57.1192 109.734L48.195 117.279L46.8194 116.485ZM54.1868 120.739L56.2594 109.237L57.5425 109.978L55.6418 121.579L54.1868 120.739ZM50.8232 113.735L55.9288 116.683L55.2568 117.847L50.1512 114.899L50.8232 113.735ZM57.0366 122.384L60.9313 115.638L62.2407 116.394L61.2709 118.074L61.337 118.112L58.4122 123.178L57.0366 122.384ZM60.4435 119.66L61.1956 117.96C61.6853 117.478 62.2106 117.2 62.7717 117.124C63.3328 117.048 63.8823 117.166 64.4202 117.476C64.623 117.593 64.7539 117.692 64.8129 117.773L64.0645 119.07C64.0306 119.027 63.974 118.982 63.8946 118.936C63.8204 118.882 63.7259 118.821 63.6113 118.755C62.9499 118.373 62.3524 118.258 61.8188 118.408C61.294 118.563 60.8355 118.981 60.4435 119.66ZM65.049 127.186C64.2642 126.733 63.7909 126.219 63.6293 125.644C63.4816 125.064 63.6139 124.418 64.0263 123.704L67.6385 117.447L69.2987 117.718L65.3811 124.503C65.1774 124.856 65.1198 125.17 65.2083 125.444C65.2967 125.719 65.5482 125.975 65.9626 126.215C66.1213 126.306 66.2701 126.375 66.4088 126.419C66.5475 126.464 66.6712 126.494 66.7797 126.51L66.1382 127.621C66.0158 127.609 65.8587 127.566 65.6671 127.49C65.4755 127.415 65.2694 127.314 65.049 127.186ZM64.762 119.314L65.3958 118.216L70.0253 120.889L69.3914 121.986L64.762 119.314ZM67.4348 128.387L72.9332 118.864L74.3088 119.658L68.8104 129.182L67.4348 128.387ZM72.223 131.152L74.7278 126.813C74.9977 126.346 75.0797 125.929 74.974 125.562C74.8771 125.201 74.5994 124.887 74.1408 124.623C73.744 124.394 73.3404 124.278 72.9299 124.276C72.5283 124.28 72.1502 124.385 71.7957 124.591C71.4499 124.803 71.1549 125.121 70.9105 125.544L71.6702 123.831C72.1809 123.456 72.7495 123.255 73.376 123.229C74.0025 123.202 74.62 123.365 75.2285 123.716C75.9516 124.134 76.4032 124.665 76.5835 125.31C76.7638 125.955 76.6604 126.612 76.2735 127.282L73.5854 131.938L72.223 131.152ZM77.4981 134.374C77.0484 134.114 76.7051 133.792 76.4681 133.409C76.2362 133.016 76.1199 132.596 76.1194 132.149C76.1277 131.707 76.2566 131.27 76.506 130.838L79.1941 126.182L80.5697 126.976L78.0649 131.315C77.7951 131.782 77.7086 132.197 77.8055 132.558C77.9024 132.92 78.1625 133.223 78.5858 133.467C78.965 133.686 79.351 133.792 79.7438 133.783C80.1454 133.78 80.5191 133.672 80.8648 133.461C81.2245 133.245 81.5239 132.93 81.7632 132.515L81.0035 134.228C80.4979 134.595 79.9293 134.796 79.2977 134.831C78.68 134.862 78.0801 134.71 77.4981 134.374ZM80.0215 135.654L80.9379 134.067L80.885 134.037L83.8633 128.878L85.2257 129.665L81.331 136.41L80.0215 135.654ZM83.2582 137.523L87.1529 130.777L88.4624 131.533L87.4925 133.213L87.5587 133.251L84.6338 138.317L83.2582 137.523ZM86.6652 134.799L87.4173 133.099C87.9069 132.618 88.4323 132.339 88.9934 132.263C89.5545 132.187 90.104 132.305 90.6419 132.615C90.8447 132.732 90.9756 132.831 91.0346 132.912L90.2862 134.209C90.2523 134.166 90.1956 134.121 90.1163 134.075C90.042 134.021 89.9476 133.96 89.8329 133.894C89.1716 133.512 88.5741 133.397 88.0404 133.547C87.5156 133.703 87.0572 134.12 86.6652 134.799ZM93.6028 143.495L98.4368 135.123L95.2226 133.267L95.887 132.116L103.717 136.637L103.053 137.788L99.8389 135.932L95.0049 144.305L93.6028 143.495ZM102.331 148.535C102.384 148.342 102.46 148.139 102.56 147.926C102.668 147.718 102.806 147.469 102.974 147.178L102.908 147.139L104.763 143.925C105.013 143.493 105.089 143.108 104.99 142.769C104.906 142.426 104.63 142.12 104.163 141.85C103.713 141.59 103.301 141.47 102.925 141.488C102.559 141.512 102.26 141.674 102.027 141.975L100.718 141.219C101.146 140.62 101.725 140.278 102.456 140.194C103.186 140.11 103.979 140.315 104.834 140.809C105.716 141.318 106.258 141.907 106.459 142.576C106.666 143.237 106.54 143.963 106.082 144.757L104.257 147.918C104.14 148.121 104.033 148.336 103.938 148.563C103.842 148.79 103.752 149.038 103.667 149.306L102.331 148.535ZM99.927 147.323C99.2392 146.926 98.7892 146.443 98.5771 145.874C98.37 145.295 98.4344 144.715 98.7705 144.133C99.1167 143.534 99.6007 143.184 100.222 143.085C100.858 142.981 101.613 143.1 102.487 143.44L104.915 144.365L104.358 145.331L102.164 144.488C101.673 144.299 101.265 144.222 100.939 144.257C100.622 144.297 100.372 144.476 100.188 144.793C100.01 145.102 99.9767 145.394 100.088 145.67C100.213 145.942 100.474 146.193 100.871 146.422C101.4 146.727 101.91 146.851 102.402 146.794C102.902 146.742 103.264 146.522 103.488 146.134L103.095 147.212C102.666 147.588 102.176 147.787 101.622 147.808C101.074 147.821 100.509 147.659 99.927 147.323ZM103.961 153.091L107.733 150.313L108.263 150.037L113.376 145.917L114.804 146.742L105.376 153.908L103.961 153.091ZM107.087 151.281L108.098 142.87L109.593 143.733L108.535 151.217L107.087 151.281ZM112.037 154.139L117.536 144.615L118.911 145.409L113.413 154.933L112.037 154.139ZM118.204 157.875C117.516 157.478 116.999 156.98 116.652 156.38C116.31 155.771 116.146 155.117 116.16 154.42C116.18 153.714 116.386 153.022 116.778 152.343C117.175 151.655 117.669 151.135 118.26 150.783C118.861 150.436 119.5 150.264 120.18 150.269C120.873 150.269 121.564 150.468 122.252 150.865C122.948 151.267 123.47 151.769 123.817 152.369C124.17 152.96 124.337 153.597 124.318 154.281C124.309 154.969 124.106 155.657 123.709 156.345C123.317 157.024 122.82 157.548 122.218 157.918C121.631 158.284 120.988 158.471 120.289 158.48C119.596 158.479 118.901 158.278 118.204 157.875ZM118.853 156.751C119.268 156.99 119.683 157.095 120.1 157.066C120.526 157.041 120.932 156.899 121.317 156.639C121.702 156.379 122.034 156.007 122.314 155.522C122.732 154.799 122.866 154.118 122.717 153.48C122.583 152.837 122.211 152.341 121.603 151.989C121.003 151.643 120.387 151.57 119.755 151.769C119.131 151.973 118.613 152.433 118.201 153.147C117.921 153.632 117.76 154.104 117.719 154.562C117.687 155.025 117.766 155.447 117.958 155.828C118.158 156.214 118.457 156.522 118.853 156.751ZM123.159 160.56L127.054 153.814L128.363 154.57L127.393 156.25L127.459 156.288L124.535 161.354L123.159 160.56ZM126.566 157.836L127.318 156.136C127.808 155.654 128.333 155.376 128.894 155.3C129.455 155.224 130.005 155.341 130.543 155.652C130.746 155.769 130.876 155.868 130.935 155.949L130.187 157.245C130.153 157.202 130.096 157.158 130.017 157.112C129.943 157.057 129.848 156.997 129.734 156.931C129.072 156.549 128.475 156.433 127.941 156.584C127.416 156.739 126.958 157.157 126.566 157.836Z" fill="white"/>
            <g filter="url(#filter1_ii_3863_2588)">
                <path d="M89.6853 41.2613C90.2125 40.3482 91.3802 40.0353 92.2933 40.5625L106.623 48.8355C107.536 49.3627 107.849 50.5304 107.321 51.4435L101.594 61.3638C101.067 62.277 99.8991 62.5898 98.986 62.0626L84.6567 53.7896C83.7435 53.2624 83.4306 52.0947 83.9578 51.1816L89.6853 41.2613Z" fill="white"/>
                <path d="M94.9408 48.7046L98.2476 50.6138L96.3384 53.9205L93.0317 52.0114L94.9408 48.7046Z" fill="white"/>
            </g>
            <path d="M94.9408 48.7046L98.2476 50.6138M94.9408 48.7046L93.0317 52.0114M94.9408 48.7046L94.6253 46.7316C94.5345 46.1639 94.1926 45.6673 93.6947 45.3798L88.9043 42.6141M98.2476 50.6138L96.3384 53.9205M98.2476 50.6138L100.278 49.9285C100.797 49.7531 101.368 49.8097 101.843 50.0841L106.54 52.7963M96.3384 53.9205L93.0317 52.0114M96.3384 53.9205L96.76 56.0211C96.868 56.559 97.2021 57.0245 97.6773 57.2988L102.375 60.011M93.0317 52.0114L91.1653 52.7246C90.6282 52.9298 90.0272 52.882 89.5292 52.5945L84.7389 49.8288M99.5958 44.7786L97.6866 48.0853M93.8683 54.6989L91.9591 58.0056M104.371 56.554L98.8596 53.372M92.2461 49.5537L86.7348 46.3718M84.6567 53.7896L98.986 62.0626C99.8991 62.5898 101.067 62.277 101.594 61.3638L107.321 51.4435C107.849 50.5304 107.536 49.3627 106.623 48.8355L92.2933 40.5625C91.3802 40.0353 90.2125 40.3482 89.6853 41.2613L83.9578 51.1816C83.4306 52.0947 83.7435 53.2624 84.6567 53.7896Z" stroke="#000080" stroke-width="0.636389"/>
            <g filter="url(#filter2_i_3863_2588)">
                <path d="M192.517 201.724C188.922 199.648 187.862 195.817 189.862 192.353C191.862 188.889 195.71 187.891 199.305 189.967C202.914 192.05 203.974 195.881 201.973 199.346C199.973 202.81 196.126 203.807 192.517 201.724ZM193.828 199.454C195.796 200.59 198.125 200.011 199.375 197.845C200.625 195.68 199.963 193.373 197.994 192.237C197.994 192.237 197.161 193.68 195.911 195.845C194.661 198.011 193.828 199.454 193.828 199.454Z" fill="#8F2400"/>
            </g>
            <g clip-path="url(#clip2_3863_2588)">
                <circle opacity="0.34" cx="229.233" cy="128.443" r="5.34566" transform="rotate(30 229.233 128.443)" fill="white"/>
                <circle opacity="0.56" cx="235.406" cy="132.007" r="5.34566" transform="rotate(30 235.406 132.007)" fill="white"/>
                <path opacity="0.4" d="M230.327 133.676C231.764 133.375 233.071 132.487 233.862 131.116C234.654 129.745 234.769 128.169 234.312 126.775C232.875 127.076 231.568 127.963 230.776 129.334C229.985 130.706 229.869 132.281 230.327 133.676Z" fill="white"/>
            </g>
        </g>
    </g>
    <g filter="url(#filter3_d_3863_2588)">
        <g clip-path="url(#clip3_3863_2588)">
            <rect width="203.668" height="119.472" rx="10.1822" transform="matrix(0.965813 0.259241 -0.258397 0.966039 62.6982 69.3911)" fill="white"/>
            <g clip-path="url(#clip4_3863_2588)">
                <path d="M105.472 98.1214C106.431 100.275 106.62 102.694 106.007 104.971C105.371 107.342 103.96 109.297 102.119 110.636L101.444 109.71C103.14 108.478 104.361 106.7 104.9 104.674C105.465 102.567 105.247 100.435 104.425 98.5856L105.472 98.1214ZM102.854 99.2824C103.547 100.838 103.684 102.585 103.24 104.23C102.782 105.941 101.762 107.353 100.433 108.321L99.7583 107.395C100.924 106.548 101.763 105.326 102.134 103.933C102.522 102.485 102.372 101.019 101.808 99.7473L102.855 99.2826L102.854 99.2824ZM100.236 100.444C100.663 101.401 100.747 102.477 100.474 103.489C100.192 104.542 99.5648 105.411 98.7465 106.006L98.072 105.08C98.7079 104.618 99.1655 103.952 99.3677 103.192C99.5794 102.402 99.4979 101.602 99.1897 100.909L100.237 100.444L100.236 100.444ZM97.6185 101.606C97.7786 101.965 97.8102 102.368 97.708 102.747C97.6022 103.142 97.3666 103.468 97.0602 103.691L96.0483 102.303L97.619 101.606L97.6185 101.606Z" fill="#9999CC"/>
            </g>
            <path d="M60.5744 149.928L59.8165 149.725C59.8301 149.495 59.803 149.282 59.7351 149.087C59.6693 148.893 59.572 148.718 59.4431 148.564C59.3168 148.407 59.1655 148.275 58.9893 148.167C58.8131 148.058 58.621 147.976 58.4132 147.921C58.0343 147.819 57.6653 147.823 57.3064 147.932C56.9494 148.042 56.6304 148.259 56.3491 148.583C56.07 148.908 55.8577 149.341 55.7125 149.883C55.5673 150.425 55.5344 150.906 55.6138 151.327C55.6952 151.749 55.8631 152.096 56.1174 152.369C56.3737 152.643 56.6913 152.831 57.0703 152.933C57.2781 152.988 57.4854 153.013 57.6922 153.008C57.899 153.002 58.0959 152.964 58.2828 152.894C58.4722 152.822 58.6441 152.719 58.7983 152.583C58.9552 152.446 59.0849 152.276 59.1876 152.072L59.9455 152.275C59.8028 152.58 59.6221 152.838 59.4037 153.05C59.1852 153.262 58.9402 153.427 58.6686 153.544C58.3975 153.66 58.1102 153.726 57.8065 153.742C57.5048 153.76 57.1961 153.726 56.8803 153.642C56.3465 153.499 55.9067 153.241 55.561 152.869C55.2153 152.497 54.9876 152.038 54.8781 151.494C54.7685 150.949 54.8022 150.347 54.9791 149.686C55.156 149.026 55.428 148.488 55.7952 148.071C56.1624 147.654 56.5888 147.371 57.0743 147.221C57.5598 147.072 58.0694 147.069 58.6032 147.212C58.919 147.296 59.2032 147.422 59.4557 147.588C59.7102 147.754 59.9258 147.956 60.1024 148.193C60.2796 148.428 60.4097 148.693 60.4928 148.986C60.5764 149.277 60.6036 149.591 60.5744 149.928ZM61.8486 154.999C61.5511 154.919 61.2962 154.791 61.0838 154.614C60.8719 154.435 60.7233 154.219 60.638 153.967C60.5533 153.713 60.5518 153.433 60.6337 153.128C60.7058 152.859 60.8172 152.655 60.9679 152.516C61.1191 152.375 61.2962 152.281 61.4991 152.233C61.702 152.184 61.9167 152.166 62.1432 152.176C62.3723 152.185 62.5996 152.204 62.8252 152.234C63.1203 152.274 63.3589 152.309 63.5411 152.338C63.7258 152.365 63.8652 152.367 63.9593 152.342C64.0554 152.317 64.119 152.247 64.1501 152.131L64.1566 152.106C64.2374 151.805 64.2177 151.548 64.0974 151.337C63.9792 151.126 63.7541 150.976 63.422 150.887C63.0776 150.795 62.7875 150.798 62.5515 150.897C62.3155 150.995 62.1349 151.119 62.0096 151.269L61.3905 150.841C61.5892 150.589 61.8117 150.41 62.058 150.306C62.3069 150.2 62.561 150.148 62.8204 150.15C63.0824 150.15 63.3315 150.182 63.5678 150.245C63.7186 150.286 63.8869 150.35 64.0726 150.439C64.261 150.527 64.4321 150.65 64.586 150.81C64.7419 150.969 64.8512 151.177 64.914 151.431C64.9767 151.686 64.9581 152 64.8582 152.373L64.0295 155.466L63.3083 155.272L63.4786 154.637L63.4419 154.627C63.3657 154.716 63.255 154.803 63.1098 154.888C62.9646 154.974 62.7864 155.032 62.5751 155.063C62.3637 155.094 62.1216 155.072 61.8486 154.999ZM62.1322 154.381C62.4174 154.457 62.6728 154.466 62.8985 154.406C63.1261 154.347 63.3136 154.242 63.4609 154.092C63.6103 153.942 63.7112 153.769 63.7636 153.573L63.9405 152.913C63.9001 152.942 63.8238 152.957 63.7117 152.96C63.6022 152.961 63.4772 152.955 63.3368 152.941C63.1989 152.926 63.0646 152.91 62.9339 152.892C62.8058 152.873 62.7017 152.858 62.6215 152.848C62.4275 152.822 62.2417 152.815 62.0639 152.826C61.8888 152.836 61.7368 152.882 61.6081 152.963C61.4819 153.043 61.3942 153.174 61.3451 153.358C61.278 153.608 61.3199 153.822 61.4709 154C61.6245 154.177 61.8449 154.304 62.1322 154.381ZM65.2943 155.804L66.5521 151.11L67.2488 151.297L67.0589 152.006L67.1078 152.019C67.2556 151.81 67.4609 151.663 67.7238 151.578C67.9866 151.494 68.2587 151.489 68.5398 151.564C68.5928 151.579 68.6587 151.597 68.7376 151.621C68.8166 151.644 68.8758 151.663 68.9155 151.678L68.719 152.412C68.6962 152.399 68.6426 152.375 68.5583 152.339C68.4765 152.302 68.3878 152.27 68.292 152.245C68.0638 152.184 67.8472 152.177 67.6423 152.225C67.4399 152.271 67.2644 152.364 67.1157 152.503C66.9697 152.641 66.8682 152.815 66.8115 153.027L66.0155 155.998L65.2943 155.804ZM70.0481 157.183C69.6569 157.078 69.338 156.887 69.0915 156.609C68.8455 156.329 68.6865 155.985 68.6146 155.577C68.5432 155.167 68.5741 154.714 68.7073 154.217C68.8395 153.724 69.0386 153.318 69.3049 153.001C69.5712 152.684 69.8816 152.467 70.2361 152.35C70.5905 152.233 70.9654 152.227 71.3607 152.333C71.6663 152.415 71.894 152.531 72.044 152.68C72.1965 152.828 72.3025 152.979 72.3618 153.132C72.4237 153.284 72.4702 153.408 72.5014 153.504L72.5625 153.52L73.1816 151.21L73.9028 151.403L72.2257 157.662L71.529 157.475L71.7222 156.754L71.6366 156.731C71.5607 156.802 71.4564 156.89 71.3237 156.994C71.1915 157.096 71.0211 157.174 70.8125 157.227C70.6044 157.279 70.3496 157.264 70.0481 157.183ZM70.3195 156.561C70.6088 156.639 70.8735 156.629 71.1135 156.532C71.3541 156.432 71.5624 156.262 71.7384 156.021C71.9149 155.778 72.0506 155.479 72.1456 155.125C72.2395 154.774 72.2707 154.454 72.2393 154.164C72.2084 153.872 72.1128 153.626 71.9524 153.425C71.7926 153.223 71.566 153.083 71.2726 153.004C70.967 152.922 70.6913 152.932 70.4456 153.035C70.2024 153.136 69.9941 153.306 69.8207 153.545C69.6499 153.783 69.5203 154.068 69.4318 154.398C69.3423 154.732 69.3119 155.049 69.3406 155.349C69.3719 155.648 69.4669 155.905 69.6254 156.12C69.7866 156.333 70.0179 156.481 70.3195 156.561ZM75.073 155.398L74.3164 158.222L73.5952 158.029L75.2722 151.77L75.9934 151.963L75.3777 154.261L75.4388 154.278C75.6138 154.065 75.8304 153.916 76.0886 153.833C76.3495 153.748 76.6643 153.754 77.033 153.853C77.3529 153.939 77.6158 154.078 77.8218 154.271C78.0284 154.462 78.1627 154.706 78.2247 155.005C78.2893 155.301 78.2675 155.651 78.1595 156.055L77.3602 159.038L76.639 158.844L77.4251 155.91C77.525 155.538 77.5055 155.223 77.3665 154.968C77.2302 154.711 76.9918 154.537 76.6516 154.445C76.4153 154.382 76.19 154.375 75.9758 154.425C75.7637 154.475 75.5779 154.581 75.4187 154.744C75.2614 154.907 75.1462 155.125 75.073 155.398ZM80.5088 159.986C80.0851 159.872 79.7403 159.672 79.4744 159.385C79.2107 159.098 79.0377 158.749 78.9556 158.338C78.8755 157.928 78.9004 157.481 79.0304 156.996C79.1614 156.507 79.3644 156.104 79.6393 155.786C79.9163 155.47 80.2408 155.253 80.6127 155.137C80.9866 155.021 81.3854 155.019 81.8092 155.133C82.233 155.247 82.5767 155.447 82.8405 155.734C83.1064 156.021 83.279 156.371 83.3586 156.783C83.4401 157.196 83.4154 157.647 83.2844 158.136C83.1545 158.62 82.9513 159.02 82.6748 159.335C82.4004 159.65 82.0762 159.866 81.7023 159.982C81.3304 160.098 80.9326 160.1 80.5088 159.986ZM80.6824 159.338C81.0043 159.424 81.2913 159.413 81.5433 159.304C81.7954 159.194 82.0073 159.018 82.1792 158.776C82.3511 158.534 82.4791 158.256 82.5632 157.942C82.6472 157.629 82.6757 157.323 82.6484 157.025C82.6212 156.727 82.5261 156.467 82.363 156.244C82.2 156.022 81.9575 155.867 81.6356 155.781C81.3137 155.695 81.0264 155.707 80.7739 155.819C80.5213 155.93 80.3088 156.108 80.1363 156.352C79.9639 156.596 79.8357 156.875 79.7516 157.189C79.6675 157.503 79.6394 157.807 79.6671 158.103C79.6949 158.399 79.7906 158.657 79.9542 158.878C80.1178 159.098 80.3605 159.252 80.6824 159.338ZM86.1096 154.674L84.4326 160.933L83.7114 160.739L85.3884 154.481L86.1096 154.674ZM87.4482 161.845C87.0571 161.741 86.7382 161.549 86.4917 161.271C86.2457 160.992 86.0867 160.648 86.0148 160.24C85.9434 159.83 85.9743 159.376 86.1075 158.879C86.2396 158.386 86.4388 157.981 86.7051 157.663C86.9714 157.346 87.2817 157.129 87.6362 157.012C87.9907 156.895 88.3656 156.89 88.7608 156.996C89.0664 157.078 89.2942 157.193 89.4442 157.343C89.5967 157.49 89.7026 157.641 89.762 157.795C89.8239 157.947 89.8704 158.07 89.9015 158.166L89.9627 158.182L90.5817 155.872L91.303 156.065L89.6259 162.324L88.9291 162.137L89.1224 161.416L89.0368 161.393C88.9609 161.465 88.8566 161.552 88.7239 161.657C88.5917 161.759 88.4213 161.836 88.2127 161.89C88.0046 161.941 87.7498 161.926 87.4482 161.845ZM87.7196 161.224C88.0089 161.301 88.2736 161.291 88.5137 161.194C88.7543 161.095 88.9626 160.925 89.1385 160.684C89.3151 160.44 89.4508 160.142 89.5458 159.787C89.6397 159.437 89.6709 159.116 89.6395 158.826C89.6086 158.534 89.5129 158.288 89.3526 158.088C89.1928 157.886 88.9662 157.745 88.6728 157.667C88.3672 157.585 88.0915 157.595 87.8457 157.697C87.6025 157.798 87.3943 157.968 87.2209 158.208C87.0501 158.446 86.9205 158.73 86.832 159.06C86.7425 159.394 86.7121 159.711 86.7408 160.012C86.7721 160.31 86.867 160.567 87.0256 160.782C87.1868 160.996 87.4181 161.143 87.7196 161.224ZM92.9372 163.316C92.4849 163.195 92.1215 162.991 91.847 162.703C91.5751 162.414 91.3988 162.065 91.3182 161.657C91.2401 161.248 91.2655 160.803 91.3944 160.322C91.5232 159.841 91.7244 159.441 91.9978 159.121C92.2739 158.8 92.5974 158.578 92.9683 158.457C93.3418 158.335 93.7405 158.33 94.1643 158.444C94.4087 158.509 94.6393 158.614 94.8558 158.76C95.0723 158.905 95.2538 159.096 95.4003 159.332C95.5473 159.565 95.6387 159.847 95.6746 160.178C95.7105 160.509 95.6697 160.893 95.5524 161.331L95.4705 161.637L91.8521 160.667L92.0192 160.044L94.9041 160.817C94.975 160.552 94.9854 160.301 94.9351 160.065C94.8869 159.829 94.7821 159.626 94.6208 159.454C94.4615 159.282 94.2514 159.161 93.9907 159.091C93.7034 159.014 93.4357 159.019 93.1877 159.106C92.9422 159.19 92.7331 159.331 92.5605 159.527C92.3878 159.723 92.2668 159.951 92.1975 160.209L92.0861 160.625C91.9911 160.98 91.9717 161.296 92.0279 161.576C92.0867 161.853 92.2089 162.086 92.3945 162.273C92.5807 162.459 92.8195 162.59 93.1108 162.668C93.3003 162.719 93.4786 162.738 93.6456 162.726C93.8151 162.713 93.9704 162.667 94.1114 162.589C94.2529 162.509 94.3761 162.396 94.4809 162.249L95.1253 162.632C94.9886 162.848 94.8097 163.023 94.5884 163.156C94.3678 163.287 94.1167 163.368 93.8353 163.4C93.5544 163.429 93.2551 163.401 92.9372 163.316ZM95.9526 164.019L97.2104 159.325L97.9072 159.512L97.7172 160.221L97.7661 160.234C97.9139 160.025 98.1192 159.878 98.3821 159.793C98.645 159.709 98.917 159.704 99.1981 159.779C99.2511 159.793 99.317 159.812 99.396 159.836C99.4749 159.859 99.5341 159.878 99.5738 159.893L99.3773 160.626C99.3545 160.614 99.3009 160.59 99.2166 160.554C99.1348 160.517 99.0461 160.485 98.9503 160.46C98.7221 160.399 98.5056 160.392 98.3006 160.44C98.0982 160.486 97.9227 160.578 97.7741 160.718C97.628 160.855 97.5265 161.03 97.4698 161.242L96.6738 164.213L95.9526 164.019ZM108.21 160.595L106.533 166.854L105.799 166.658L103.705 160.83L103.644 160.813L102.327 165.727L101.569 165.524L103.247 159.266L103.98 159.462L106.083 165.306L106.144 165.322L107.464 160.396L108.21 160.595ZM109.252 167.701C108.954 167.621 108.699 167.493 108.487 167.316C108.275 167.137 108.126 166.921 108.041 166.669C107.956 166.415 107.955 166.135 108.037 165.829C108.109 165.56 108.22 165.356 108.371 165.218C108.522 165.077 108.699 164.983 108.902 164.934C109.105 164.886 109.32 164.867 109.546 164.878C109.775 164.887 110.003 164.906 110.228 164.936C110.523 164.976 110.762 165.01 110.944 165.039C111.129 165.067 111.268 165.068 111.362 165.043C111.458 165.019 111.522 164.948 111.553 164.832L111.56 164.808C111.64 164.506 111.621 164.25 111.5 164.039C111.382 163.828 111.157 163.678 110.825 163.589C110.481 163.497 110.19 163.5 109.954 163.598C109.718 163.697 109.538 163.821 109.413 163.971L108.793 163.543C108.992 163.29 109.215 163.112 109.461 163.007C109.71 162.902 109.964 162.85 110.223 162.851C110.485 162.852 110.734 162.884 110.971 162.947C111.122 162.987 111.29 163.052 111.476 163.141C111.664 163.229 111.835 163.352 111.989 163.511C112.145 163.671 112.254 163.878 112.317 164.133C112.38 164.388 112.361 164.702 112.261 165.074L111.432 168.167L110.711 167.974L110.882 167.338L110.845 167.328C110.769 167.417 110.658 167.504 110.513 167.59C110.368 167.676 110.189 167.734 109.978 167.764C109.767 167.795 109.525 167.774 109.252 167.701ZM109.535 167.082C109.82 167.159 110.076 167.167 110.301 167.107C110.529 167.048 110.717 166.944 110.864 166.793C111.013 166.643 111.114 166.47 111.167 166.275L111.343 165.615C111.303 165.643 111.227 165.659 111.115 165.661C111.005 165.663 110.88 165.656 110.74 165.643C110.602 165.628 110.468 165.611 110.337 165.594C110.209 165.575 110.105 165.56 110.024 165.549C109.83 165.524 109.645 165.517 109.467 165.528C109.292 165.538 109.14 165.583 109.011 165.664C108.885 165.744 108.797 165.876 108.748 166.059C108.681 166.31 108.723 166.524 108.874 166.702C109.027 166.879 109.248 167.005 109.535 167.082ZM112.697 168.506L113.955 163.812L114.652 163.999L114.455 164.732L114.516 164.749C114.681 164.524 114.891 164.372 115.146 164.292C115.402 164.21 115.683 164.209 115.988 164.291C116.298 164.374 116.537 164.514 116.705 164.709C116.876 164.904 116.986 165.142 117.035 165.423L117.083 165.436C117.269 165.226 117.501 165.082 117.779 165.004C118.058 164.923 118.366 164.928 118.702 165.018C119.122 165.131 119.43 165.354 119.626 165.689C119.823 166.021 119.848 166.463 119.7 167.015L118.858 170.157L118.137 169.964L118.979 166.822C119.072 166.476 119.043 166.203 118.894 166.003C118.744 165.804 118.541 165.67 118.284 165.601C117.954 165.512 117.672 165.544 117.437 165.695C117.202 165.844 117.045 166.07 116.963 166.374L116.144 169.43L115.411 169.233L116.272 166.018C116.344 165.751 116.315 165.513 116.185 165.304C116.057 165.092 115.856 164.95 115.583 164.877C115.395 164.827 115.207 164.83 115.017 164.886C114.829 164.943 114.662 165.046 114.514 165.197C114.369 165.346 114.266 165.535 114.205 165.766L113.418 168.699L112.697 168.506ZM122.067 171.122C121.615 171 121.252 170.796 120.977 170.508C120.705 170.219 120.529 169.871 120.448 169.463C120.37 169.053 120.396 168.608 120.524 168.127C120.653 167.646 120.854 167.246 121.128 166.926C121.404 166.605 121.727 166.384 122.098 166.263C122.472 166.14 122.87 166.135 123.294 166.249C123.539 166.314 123.769 166.42 123.986 166.565C124.202 166.711 124.384 166.901 124.53 167.137C124.677 167.371 124.769 167.653 124.805 167.983C124.84 168.314 124.8 168.698 124.682 169.136L124.6 169.442L120.982 168.472L121.149 167.849L124.034 168.622C124.105 168.357 124.115 168.107 124.065 167.87C124.017 167.635 123.912 167.431 123.751 167.259C123.591 167.087 123.381 166.967 123.121 166.897C122.833 166.82 122.566 166.825 122.318 166.911C122.072 166.996 121.863 167.136 121.69 167.332C121.518 167.529 121.397 167.756 121.327 168.015L121.216 168.43C121.121 168.785 121.102 169.102 121.158 169.381C121.217 169.659 121.339 169.891 121.525 170.079C121.711 170.264 121.949 170.396 122.241 170.474C122.43 170.524 122.609 170.544 122.776 170.532C122.945 170.518 123.1 170.473 123.241 170.395C123.383 170.315 123.506 170.201 123.611 170.055L124.255 170.437C124.119 170.654 123.94 170.828 123.718 170.961C123.498 171.092 123.247 171.173 122.965 171.205C122.684 171.235 122.385 171.207 122.067 171.122Z" fill="#666666"/>
            <path d="M48.609 173.295L55.4533 163.744L56.8105 164.108L50.1433 173.706L48.609 173.295ZM56.8264 175.497L55.8516 163.851L57.2826 164.234L58.4492 175.931L56.8264 175.497ZM51.7647 169.602L57.4593 171.128L57.1115 172.426L51.4168 170.9L51.7647 169.602ZM60.0048 176.348L62.0209 168.824L63.4814 169.216L62.9794 171.089L63.0532 171.109L61.5391 176.759L60.0048 176.348ZM62.5907 172.835L62.8772 170.999C63.2255 170.407 63.6609 170.002 64.1832 169.783C64.7056 169.565 65.2667 169.536 65.8667 169.697C66.0929 169.757 66.245 169.819 66.3229 169.882L65.9356 171.328C65.8916 171.295 65.8254 171.267 65.7369 171.243C65.651 171.209 65.5442 171.176 65.4163 171.141C64.6787 170.944 64.0716 170.987 63.5951 171.27C63.1284 171.556 62.7936 172.078 62.5907 172.835ZM68.9872 178.913C68.1118 178.679 67.5216 178.304 67.2166 177.79C66.9241 177.269 66.8845 176.61 67.098 175.814L68.9678 168.836L70.6415 168.667L68.6136 176.236C68.5082 176.629 68.5337 176.947 68.6901 177.189C68.8466 177.431 69.156 177.614 69.6182 177.738C69.7953 177.786 69.9566 177.813 70.1022 177.82C70.2478 177.828 70.375 177.825 70.4839 177.812L70.1519 179.051C70.0305 179.071 69.8675 179.07 69.6629 179.047C69.4583 179.024 69.2331 178.979 68.9872 178.913ZM66.6724 171.383L67.0005 170.158L72.164 171.542L71.8359 172.767L66.6724 171.383ZM71.6026 179.456L74.4488 168.834L75.9831 169.245L73.1369 179.867L71.6026 179.456ZM76.9431 180.887L78.2397 176.048C78.3794 175.527 78.3507 175.102 78.1537 174.776C77.9665 174.451 77.6172 174.221 77.1057 174.084C76.6632 173.965 76.2434 173.958 75.8464 174.063C75.4593 174.17 75.1213 174.369 74.8324 174.66C74.5533 174.955 74.3505 175.338 74.224 175.81L74.5145 173.959C74.9105 173.464 75.4078 173.123 76.0062 172.935C76.6046 172.748 77.2431 172.745 77.9217 172.927C78.7282 173.143 79.302 173.539 79.643 174.115C79.9841 174.692 80.0544 175.353 79.8542 176.101L78.4627 181.294L76.9431 180.887ZM82.8724 182.634C82.3708 182.499 81.9559 182.277 81.6277 181.968C81.3021 181.649 81.0812 181.273 80.9649 180.842C80.8585 180.413 80.8699 179.957 80.999 179.475L82.3905 174.282L83.9248 174.693L82.6282 179.532C82.4885 180.054 82.5123 180.476 82.6995 180.801C82.8867 181.125 83.2163 181.35 83.6884 181.477C84.1113 181.59 84.5114 181.592 84.8887 181.482C85.2758 181.375 85.6089 181.174 85.888 180.88C86.1796 180.579 86.3873 180.197 86.5112 179.735L86.2207 181.586C85.8272 182.071 85.33 182.412 84.729 182.609C84.1404 182.799 83.5215 182.808 82.8724 182.634ZM85.6412 183.217L86.1156 181.447L86.0566 181.431L87.5983 175.678L89.1178 176.085L87.1018 183.609L85.6412 183.217ZM89.2513 184.185L91.2674 176.661L92.7279 177.052L92.2259 178.926L92.2996 178.946L90.7856 184.596L89.2513 184.185ZM91.8371 180.672L92.1237 178.835C92.472 178.243 92.9073 177.838 93.4297 177.62C93.952 177.401 94.5132 177.372 95.1131 177.533C95.3394 177.594 95.4914 177.656 95.5694 177.719L95.182 179.164C95.1381 179.132 95.0719 179.103 94.9834 179.08C94.8975 179.046 94.7906 179.012 94.6628 178.978C93.9251 178.78 93.3181 178.823 92.8415 179.107C92.3749 179.393 92.04 179.914 91.8371 180.672ZM100.789 187.276L103.292 177.938L99.7066 176.977L100.05 175.694L108.784 178.034L108.44 179.317L104.855 178.357L102.353 187.695L100.789 187.276ZM110.525 189.885C110.526 189.685 110.546 189.469 110.587 189.238C110.638 189.009 110.707 188.732 110.794 188.408L110.72 188.388L111.681 184.803C111.81 184.321 111.783 183.929 111.601 183.627C111.43 183.318 111.085 183.093 110.563 182.954C110.062 182.819 109.632 182.81 109.275 182.925C108.927 183.042 108.68 183.277 108.533 183.627L107.072 183.236C107.331 182.546 107.802 182.066 108.486 181.796C109.17 181.526 109.989 181.519 110.943 181.775C111.926 182.038 112.602 182.467 112.97 183.061C113.34 183.645 113.407 184.38 113.17 185.265L112.225 188.791C112.164 189.017 112.117 189.252 112.084 189.496C112.05 189.74 112.027 190.003 112.015 190.284L110.525 189.885ZM107.889 189.337C107.121 189.131 106.562 188.781 106.209 188.286C105.86 187.781 105.772 187.204 105.946 186.555C106.125 185.886 106.502 185.423 107.077 185.166C107.664 184.902 108.424 184.821 109.356 184.923L111.941 185.189L111.653 186.266L109.315 186.019C108.793 185.963 108.378 185.995 108.073 186.113C107.777 186.234 107.581 186.471 107.486 186.825C107.394 187.17 107.437 187.461 107.616 187.698C107.807 187.929 108.124 188.103 108.567 188.222C109.157 188.38 109.682 188.368 110.142 188.185C110.612 188.006 110.905 187.699 111.021 187.267L110.92 188.41C110.603 188.883 110.18 189.202 109.652 189.366C109.125 189.521 108.538 189.511 107.889 189.337ZM113.278 193.864L116.203 190.205L116.643 189.801L120.515 184.498L122.108 184.925L114.856 194.287L113.278 193.864ZM115.829 191.306L114.629 182.92L116.296 183.367L117.211 190.87L115.829 191.306ZM121.35 192.786L124.197 182.164L125.731 182.575L122.885 193.197L121.35 192.786ZM128.274 194.799C127.507 194.593 126.878 194.246 126.387 193.756C125.899 193.256 125.572 192.668 125.406 191.991C125.242 191.304 125.262 190.582 125.464 189.824C125.67 189.057 126.013 188.427 126.493 187.934C126.983 187.443 127.556 187.112 128.214 186.94C128.884 186.761 129.602 186.774 130.369 186.98C131.146 187.188 131.78 187.537 132.271 188.027C132.764 188.507 133.09 189.079 133.25 189.744C133.419 190.411 133.401 191.129 133.195 191.896C132.992 192.653 132.648 193.288 132.163 193.801C131.69 194.307 131.117 194.654 130.445 194.843C129.775 195.022 129.051 195.007 128.274 194.799ZM128.61 193.545C129.073 193.669 129.501 193.663 129.896 193.526C130.301 193.392 130.656 193.15 130.961 192.799C131.265 192.449 131.49 192.003 131.635 191.462C131.851 190.655 131.805 189.963 131.496 189.385C131.199 188.799 130.712 188.416 130.033 188.234C129.365 188.055 128.751 188.143 128.191 188.499C127.642 188.858 127.26 189.436 127.047 190.233C126.902 190.773 126.869 191.271 126.948 191.724C127.036 192.18 127.223 192.567 127.506 192.886C127.8 193.207 128.168 193.426 128.61 193.545ZM133.755 196.109L135.771 188.585L137.232 188.977L136.729 190.85L136.803 190.87L135.289 196.521L133.755 196.109ZM136.341 192.596L136.627 190.76C136.976 190.168 137.411 189.763 137.933 189.544C138.456 189.326 139.017 189.297 139.617 189.458C139.843 189.518 139.995 189.58 140.073 189.643L139.686 191.089C139.642 191.056 139.576 191.028 139.487 191.004C139.401 190.971 139.294 190.937 139.166 190.903C138.429 190.705 137.822 190.748 137.345 191.031C136.878 191.317 136.544 191.839 136.341 192.596Z" fill="black"/>
            <g filter="url(#filter4_ii_3863_2588)">
                <path d="M70.5451 89.5394C70.818 88.5209 71.8649 87.9165 72.8833 88.1894L88.8656 92.4719C89.8841 92.7448 90.4885 93.7917 90.2156 94.8101L87.2508 105.875C86.9779 106.893 85.9311 107.498 84.9126 107.225L68.9303 102.942C67.9118 102.669 67.3074 101.623 67.5803 100.604L70.5451 89.5394Z" fill="white"/>
                <path d="M77.548 95.3689L81.2362 96.3571L80.248 100.045L76.5597 99.0571L77.548 95.3689Z" fill="white"/>
            </g>
            <path d="M77.548 95.3689L81.2362 96.3571M77.548 95.3689L76.5597 99.0571M77.548 95.3689L76.7325 93.5448C76.4979 93.0199 76.0391 92.6287 75.4837 92.4799L70.1408 91.0482M81.2362 96.3571L80.248 100.045M81.2362 96.3571L83.0196 95.1699C83.4763 94.8659 84.0418 94.773 84.5717 94.915L89.8113 96.3189M80.248 100.045L76.5597 99.0571M80.248 100.045L81.1988 101.965C81.4423 102.457 81.8856 102.82 82.4155 102.962L87.6551 104.366M76.5597 99.0571L74.9415 100.229C74.4758 100.566 73.8829 100.676 73.3275 100.527L67.9846 99.0953M81.0282 90.3718L80.0399 94.0601M78.0634 101.437L77.0751 105.125M88.6883 100.51L82.5413 98.863M75.1648 96.8865L69.0178 95.2394M68.9303 102.942L84.9126 107.225C85.9311 107.498 86.9779 106.893 87.2508 105.875L90.2156 94.8101C90.4885 93.7917 89.8841 92.7448 88.8656 92.4719L72.8833 88.1894C71.8649 87.9165 70.818 88.5209 70.5451 89.5394L67.5803 100.604C67.3074 101.623 67.9118 102.669 68.9303 102.942Z" stroke="#AEAEAE" stroke-width="0.636389"/>
            <g filter="url(#filter5_i_3863_2588)">
                <path d="M211.404 217.92C207.393 216.845 205.378 213.419 206.413 209.555C207.449 205.691 210.907 203.731 214.917 204.806C218.942 205.884 220.958 209.311 219.922 213.175C218.887 217.038 215.428 218.998 211.404 217.92ZM212.082 215.388C214.277 215.976 216.377 214.813 217.024 212.398C217.671 209.983 216.434 207.926 214.239 207.338C214.239 207.338 213.808 208.948 213.16 211.363C212.513 213.778 212.082 215.388 212.082 215.388Z" fill="#666666"/>
            </g>
            <g clip-path="url(#clip5_3863_2588)">
                <circle opacity="0.34" cx="227.902" cy="137.633" r="5.34566" transform="rotate(15 227.902 137.633)" fill="white"/>
                <circle opacity="0.56" cx="234.787" cy="139.478" r="5.34566" transform="rotate(15 234.787 139.478)" fill="white"/>
                <path opacity="0.4" d="M230.313 142.405C231.623 141.742 232.656 140.546 233.066 139.017C233.475 137.488 233.179 135.936 232.376 134.707C231.066 135.37 230.033 136.566 229.623 138.095C229.214 139.624 229.51 141.176 230.313 142.405Z" fill="white"/>
            </g>
        </g>
    </g>
    <g filter="url(#filter6_d_3863_2588)">
        <g clip-path="url(#clip6_3863_2588)">
            <rect x="43.793" y="124.841" width="203.644" height="119.486" rx="10.1822" fill="#000080"/>
            <path d="M92.4786 141.434C93.9629 143.266 94.7713 145.553 94.7678 147.911C94.7678 150.366 93.9104 152.619 92.4786 154.389L91.5874 153.67C92.9069 152.041 93.6255 150.008 93.6223 147.911C93.6223 145.73 92.8606 143.727 91.5874 142.153L92.4786 141.434ZM90.2506 143.233C91.3228 144.556 91.9066 146.208 91.9041 147.911C91.9041 149.683 91.2849 151.311 90.2511 152.59L89.3599 151.87C90.267 150.75 90.7609 149.352 90.7586 147.911C90.7586 146.412 90.2345 145.034 89.3599 143.953L90.2511 143.233L90.2506 143.233ZM88.0226 145.032C88.6824 145.847 89.0418 146.863 89.0403 147.911C89.0403 149.002 88.6595 150.004 88.0231 150.791L87.1319 150.071C87.6267 149.46 87.8961 148.697 87.8948 147.911C87.8948 147.094 87.609 146.342 87.1319 145.752L88.0231 145.032L88.0226 145.032ZM85.7946 146.832C86.0422 147.137 86.1771 147.518 86.1766 147.911C86.1766 148.32 86.0334 148.696 85.7951 148.991L84.4583 147.911L85.7951 146.832L85.7946 146.832Z" fill="white"/>
            <path d="M62.5196 203.095H61.7349C61.6885 202.869 61.6073 202.671 61.4913 202.5C61.3774 202.329 61.2382 202.186 61.0737 202.07C60.9113 201.952 60.7309 201.863 60.5327 201.804C60.3344 201.745 60.1277 201.716 59.9125 201.716C59.5202 201.716 59.1648 201.815 58.8463 202.013C58.5299 202.211 58.2779 202.503 58.0902 202.889C57.9045 203.275 57.8117 203.749 57.8117 204.31C57.8117 204.871 57.9045 205.345 58.0902 205.731C58.2779 206.117 58.5299 206.409 58.8463 206.607C59.1648 206.805 59.5202 206.904 59.9125 206.904C60.1277 206.904 60.3344 206.875 60.5327 206.816C60.7309 206.757 60.9113 206.669 61.0737 206.553C61.2382 206.435 61.3774 206.291 61.4913 206.12C61.6073 205.947 61.6885 205.749 61.7349 205.525H62.5196C62.4605 205.856 62.3529 206.152 62.1968 206.414C62.0408 206.676 61.8467 206.898 61.6147 207.082C61.3827 207.263 61.1222 207.401 60.8332 207.496C60.5464 207.591 60.2395 207.638 59.9125 207.638C59.3599 207.638 58.8685 207.503 58.4382 207.233C58.0079 206.963 57.6694 206.58 57.4226 206.082C57.1758 205.584 57.0524 204.993 57.0524 204.31C57.0524 203.627 57.1758 203.036 57.4226 202.538C57.6694 202.04 58.0079 201.657 58.4382 201.387C58.8685 201.117 59.3599 200.982 59.9125 200.982C60.2395 200.982 60.5464 201.029 60.8332 201.124C61.1222 201.219 61.3827 201.358 61.6147 201.542C61.8467 201.723 62.0408 201.944 62.1968 202.206C62.3529 202.465 62.4605 202.762 62.5196 203.095ZM65.0628 207.664C64.7549 207.664 64.4754 207.606 64.2244 207.49C63.9734 207.372 63.7741 207.202 63.6265 206.98C63.4788 206.757 63.405 206.487 63.405 206.17C63.405 205.892 63.4598 205.666 63.5695 205.493C63.6792 205.318 63.8258 205.181 64.0093 205.082C64.1928 204.983 64.3953 204.909 64.6167 204.861C64.8403 204.81 65.065 204.77 65.2906 204.74C65.5859 204.702 65.8253 204.674 66.0088 204.655C66.1945 204.634 66.3295 204.599 66.4138 204.55C66.5003 204.502 66.5435 204.418 66.5435 204.297V204.272C66.5435 203.96 66.4581 203.717 66.2873 203.544C66.1185 203.371 65.8623 203.285 65.5184 203.285C65.162 203.285 64.8825 203.363 64.68 203.519C64.4775 203.675 64.3352 203.842 64.2529 204.019L63.5442 203.766C63.6707 203.471 63.8395 203.241 64.0504 203.076C64.2634 202.909 64.4955 202.793 64.7465 202.728C64.9996 202.661 65.2485 202.627 65.4931 202.627C65.6492 202.627 65.8285 202.646 66.031 202.684C66.2356 202.72 66.4328 202.795 66.6226 202.908C66.8146 203.022 66.9738 203.194 67.1004 203.424C67.2269 203.654 67.2902 203.962 67.2902 204.348V207.55H66.5435V206.892H66.5056C66.455 206.997 66.3706 207.11 66.2525 207.23C66.1343 207.35 65.9772 207.453 65.781 207.537C65.5849 207.622 65.3455 207.664 65.0628 207.664ZM65.1767 206.993C65.472 206.993 65.7209 206.935 65.9234 206.819C66.128 206.703 66.282 206.553 66.3853 206.37C66.4908 206.186 66.5435 205.993 66.5435 205.791V205.107C66.5119 205.145 66.4423 205.18 66.3347 205.212C66.2293 205.241 66.1069 205.268 65.9677 205.291C65.8306 205.312 65.6967 205.331 65.5659 205.348C65.4372 205.363 65.3328 205.375 65.2527 205.386C65.0586 205.411 64.8772 205.452 64.7085 205.509C64.5419 205.564 64.4069 205.647 64.3035 205.759C64.2023 205.869 64.1517 206.018 64.1517 206.208C64.1517 206.468 64.2476 206.664 64.4396 206.797C64.6336 206.928 64.8793 206.993 65.1767 206.993ZM68.5996 207.55V202.69H69.321V203.424H69.3716C69.4602 203.184 69.6205 202.989 69.8525 202.839C70.0845 202.689 70.346 202.614 70.6371 202.614C70.692 202.614 70.7605 202.615 70.8428 202.617C70.925 202.619 70.9873 202.623 71.0294 202.627V203.386C71.0041 203.38 70.9461 203.37 70.8554 203.358C70.7668 203.343 70.673 203.336 70.5738 203.336C70.3376 203.336 70.1267 203.385 69.9411 203.484C69.7576 203.581 69.612 203.716 69.5045 203.889C69.399 204.06 69.3463 204.255 69.3463 204.475V207.55H68.5996ZM73.5482 207.651C73.1432 207.651 72.7857 207.549 72.4757 207.344C72.1656 207.137 71.923 206.846 71.748 206.471C71.5729 206.093 71.4854 205.647 71.4854 205.133C71.4854 204.622 71.5729 204.179 71.748 203.804C71.923 203.428 72.1666 203.138 72.4788 202.934C72.791 202.729 73.1517 202.627 73.5609 202.627C73.8772 202.627 74.1272 202.68 74.3107 202.785C74.4963 202.888 74.6376 203.006 74.7347 203.139C74.8338 203.27 74.9108 203.378 74.9656 203.462H75.0289V201.07H75.7756V207.55H75.0542V206.803H74.9656C74.9108 206.892 74.8327 207.004 74.7315 207.139C74.6302 207.271 74.4858 207.391 74.298 207.496C74.1103 207.599 73.8604 207.651 73.5482 207.651ZM73.6494 206.98C73.949 206.98 74.2021 206.902 74.4088 206.746C74.6155 206.588 74.7726 206.37 74.8802 206.091C74.9878 205.811 75.0415 205.487 75.0415 205.12C75.0415 204.757 74.9888 204.44 74.8834 204.168C74.7779 203.893 74.6218 203.68 74.4151 203.529C74.2084 203.375 73.9532 203.298 73.6494 203.298C73.3331 203.298 73.0694 203.379 72.8585 203.541C72.6497 203.701 72.4925 203.92 72.3871 204.196C72.2837 204.47 72.232 204.778 72.232 205.12C72.232 205.466 72.2848 205.78 72.3902 206.063C72.4978 206.343 72.656 206.567 72.8648 206.734C73.0757 206.898 73.3373 206.98 73.6494 206.98ZM77.94 204.626V207.55H77.1933V201.07H77.94V203.449H78.0033C78.1172 203.198 78.288 202.999 78.5158 202.851C78.7457 202.702 79.0516 202.627 79.4333 202.627C79.7645 202.627 80.0545 202.693 80.3034 202.826C80.5523 202.957 80.7453 203.158 80.8824 203.43C81.0216 203.7 81.0912 204.044 81.0912 204.462V207.55H80.3445V204.512C80.3445 204.127 80.2443 203.828 80.044 203.617C79.8457 203.404 79.5704 203.298 79.2182 203.298C78.9735 203.298 78.7541 203.349 78.5601 203.453C78.3682 203.556 78.2163 203.707 78.1045 203.905C77.9948 204.103 77.94 204.344 77.94 204.626ZM84.378 207.651C83.9393 207.651 83.5543 207.547 83.2232 207.338C82.8941 207.129 82.6368 206.837 82.4512 206.461C82.2677 206.086 82.1759 205.647 82.1759 205.145C82.1759 204.639 82.2677 204.197 82.4512 203.82C82.6368 203.442 82.8941 203.149 83.2232 202.94C83.5543 202.731 83.9393 202.627 84.378 202.627C84.8167 202.627 85.2006 202.731 85.5296 202.94C85.8608 203.149 86.1181 203.442 86.3016 203.82C86.4872 204.197 86.58 204.639 86.58 205.145C86.58 205.647 86.4872 206.086 86.3016 206.461C86.1181 206.837 85.8608 207.129 85.5296 207.338C85.2006 207.547 84.8167 207.651 84.378 207.651ZM84.378 206.98C84.7112 206.98 84.9854 206.895 85.2006 206.724C85.4157 206.553 85.575 206.329 85.6783 206.05C85.7817 205.772 85.8334 205.47 85.8334 205.145C85.8334 204.82 85.7817 204.518 85.6783 204.237C85.575 203.957 85.4157 203.73 85.2006 203.557C84.9854 203.384 84.7112 203.298 84.378 203.298C84.0447 203.298 83.7705 203.384 83.5554 203.557C83.3402 203.73 83.181 203.957 83.0776 204.237C82.9743 204.518 82.9226 204.82 82.9226 205.145C82.9226 205.47 82.9743 205.772 83.0776 206.05C83.181 206.329 83.3402 206.553 83.5554 206.724C83.7705 206.895 84.0447 206.98 84.378 206.98ZM88.413 201.07V207.55H87.6664V201.07H88.413ZM91.5622 207.651C91.1572 207.651 90.7997 207.549 90.4896 207.344C90.1796 207.137 89.937 206.846 89.762 206.471C89.5869 206.093 89.4994 205.647 89.4994 205.133C89.4994 204.622 89.5869 204.179 89.762 203.804C89.937 203.428 90.1806 203.138 90.4928 202.934C90.805 202.729 91.1657 202.627 91.5749 202.627C91.8912 202.627 92.1412 202.68 92.3247 202.785C92.5103 202.888 92.6516 203.006 92.7486 203.139C92.8478 203.27 92.9248 203.378 92.9796 203.462H93.0429V201.07H93.7896V207.55H93.0682V206.803H92.9796C92.9248 206.892 92.8467 207.004 92.7455 207.139C92.6442 207.271 92.4998 207.391 92.312 207.496C92.1243 207.599 91.8744 207.651 91.5622 207.651ZM91.6634 206.98C91.963 206.98 92.2161 206.902 92.4228 206.746C92.6295 206.588 92.7866 206.37 92.8942 206.091C93.0018 205.811 93.0555 205.487 93.0555 205.12C93.0555 204.757 93.0028 204.44 92.8974 204.168C92.7919 203.893 92.6358 203.68 92.4291 203.529C92.2224 203.375 91.9672 203.298 91.6634 203.298C91.3471 203.298 91.0834 203.379 90.8725 203.541C90.6637 203.701 90.5065 203.92 90.4011 204.196C90.2977 204.47 90.246 204.778 90.246 205.12C90.246 205.466 90.2988 205.78 90.4042 206.063C90.5118 206.343 90.67 206.567 90.8788 206.734C91.0897 206.898 91.3513 206.98 91.6634 206.98ZM97.2448 207.651C96.7766 207.651 96.3727 207.548 96.0331 207.341C95.6956 207.132 95.4351 206.841 95.2516 206.468C95.0702 206.092 94.9795 205.656 94.9795 205.158C94.9795 204.66 95.0702 204.221 95.2516 203.842C95.4351 203.46 95.6903 203.163 96.0173 202.95C96.3463 202.734 96.7302 202.627 97.1689 202.627C97.422 202.627 97.672 202.669 97.9187 202.753C98.1655 202.838 98.3902 202.975 98.5926 203.165C98.7951 203.352 98.9565 203.601 99.0767 203.911C99.1969 204.221 99.257 204.603 99.257 205.057V205.373H95.511V204.728H98.4977C98.4977 204.453 98.4429 204.209 98.3332 203.994C98.2256 203.778 98.0717 203.609 97.8713 203.484C97.673 203.36 97.4389 203.298 97.1689 203.298C96.8715 203.298 96.6142 203.371 96.3969 203.519C96.1818 203.665 96.0162 203.854 95.9002 204.089C95.7842 204.323 95.7262 204.574 95.7262 204.842V205.272C95.7262 205.639 95.7895 205.95 95.916 206.205C96.0447 206.458 96.2229 206.651 96.4507 206.784C96.6785 206.915 96.9432 206.98 97.2448 206.98C97.441 206.98 97.6182 206.953 97.7764 206.898C97.9367 206.841 98.0748 206.757 98.1908 206.645C98.3068 206.531 98.3965 206.39 98.4598 206.221L99.1811 206.423C99.1052 206.668 98.9776 206.883 98.7983 207.069C98.619 207.252 98.3975 207.396 98.1339 207.499C97.8702 207.6 97.5739 207.651 97.2448 207.651ZM100.339 207.55V202.69H101.061V203.424H101.111C101.2 203.184 101.36 202.989 101.592 202.839C101.824 202.689 102.086 202.614 102.377 202.614C102.432 202.614 102.5 202.615 102.583 202.617C102.665 202.619 102.727 202.623 102.769 202.627V203.386C102.744 203.38 102.686 203.37 102.595 203.358C102.507 203.343 102.413 203.336 102.314 203.336C102.077 203.336 101.867 203.385 101.681 203.484C101.497 203.581 101.352 203.716 101.244 203.889C101.139 204.06 101.086 204.255 101.086 204.475V207.55H100.339ZM111.293 201.07V207.55H110.533L107.002 202.462H106.939V207.55H106.154V201.07H106.914L110.457 206.17H110.521V201.07H111.293ZM114.138 207.664C113.83 207.664 113.551 207.606 113.3 207.49C113.049 207.372 112.849 207.202 112.702 206.98C112.554 206.757 112.48 206.487 112.48 206.17C112.48 205.892 112.535 205.666 112.645 205.493C112.754 205.318 112.901 205.181 113.084 205.082C113.268 204.983 113.47 204.909 113.692 204.861C113.915 204.81 114.14 204.77 114.366 204.74C114.661 204.702 114.901 204.674 115.084 204.655C115.27 204.634 115.405 204.599 115.489 204.55C115.575 204.502 115.619 204.418 115.619 204.297V204.272C115.619 203.96 115.533 203.717 115.362 203.544C115.194 203.371 114.937 203.285 114.594 203.285C114.237 203.285 113.958 203.363 113.755 203.519C113.553 203.675 113.41 203.842 113.328 204.019L112.619 203.766C112.746 203.471 112.915 203.241 113.126 203.076C113.339 202.909 113.571 202.793 113.822 202.728C114.075 202.661 114.324 202.627 114.568 202.627C114.724 202.627 114.904 202.646 115.106 202.684C115.311 202.72 115.508 202.795 115.698 202.908C115.89 203.022 116.049 203.194 116.176 203.424C116.302 203.654 116.365 203.962 116.365 204.348V207.55H115.619V206.892H115.581C115.53 206.997 115.446 207.11 115.328 207.23C115.21 207.35 115.052 207.453 114.856 207.537C114.66 207.622 114.421 207.664 114.138 207.664ZM114.252 206.993C114.547 206.993 114.796 206.935 114.999 206.819C115.203 206.703 115.357 206.553 115.461 206.37C115.566 206.186 115.619 205.993 115.619 205.791V205.107C115.587 205.145 115.517 205.18 115.41 205.212C115.304 205.241 115.182 205.268 115.043 205.291C114.906 205.312 114.772 205.331 114.641 205.348C114.512 205.363 114.408 205.375 114.328 205.386C114.134 205.411 113.952 205.452 113.784 205.509C113.617 205.564 113.482 205.647 113.379 205.759C113.277 205.869 113.227 206.018 113.227 206.208C113.227 206.468 113.323 206.664 113.515 206.797C113.709 206.928 113.955 206.993 114.252 206.993ZM117.675 207.55V202.69H118.396V203.449H118.459C118.561 203.19 118.724 202.989 118.95 202.845C119.175 202.7 119.447 202.627 119.763 202.627C120.084 202.627 120.35 202.7 120.563 202.845C120.779 202.989 120.946 203.19 121.066 203.449H121.117C121.241 203.198 121.428 202.999 121.677 202.851C121.926 202.702 122.224 202.627 122.572 202.627C123.007 202.627 123.362 202.763 123.639 203.035C123.915 203.305 124.053 203.726 124.053 204.297V207.55H123.306V204.297C123.306 203.939 123.208 203.683 123.012 203.529C122.816 203.375 122.585 203.298 122.319 203.298C121.978 203.298 121.713 203.401 121.525 203.608C121.337 203.812 121.244 204.072 121.244 204.386V207.55H120.484V204.221C120.484 203.945 120.395 203.723 120.215 203.554C120.036 203.383 119.805 203.298 119.522 203.298C119.328 203.298 119.147 203.349 118.978 203.453C118.812 203.556 118.677 203.699 118.573 203.883C118.472 204.064 118.421 204.274 118.421 204.512V207.55H117.675ZM127.402 207.651C126.934 207.651 126.53 207.548 126.191 207.341C125.853 207.132 125.593 206.841 125.409 206.468C125.228 206.092 125.137 205.656 125.137 205.158C125.137 204.66 125.228 204.221 125.409 203.842C125.593 203.46 125.848 203.163 126.175 202.95C126.504 202.734 126.888 202.627 127.326 202.627C127.58 202.627 127.83 202.669 128.076 202.753C128.323 202.838 128.548 202.975 128.75 203.165C128.953 203.352 129.114 203.601 129.234 203.911C129.355 204.221 129.415 204.603 129.415 205.057V205.373H125.669V204.728H128.655C128.655 204.453 128.6 204.209 128.491 203.994C128.383 203.778 128.229 203.609 128.029 203.484C127.831 203.36 127.596 203.298 127.326 203.298C127.029 203.298 126.772 203.371 126.554 203.519C126.339 203.665 126.174 203.854 126.058 204.089C125.942 204.323 125.884 204.574 125.884 204.842V205.272C125.884 205.639 125.947 205.95 126.074 206.205C126.202 206.458 126.38 206.651 126.608 206.784C126.836 206.915 127.101 206.98 127.402 206.98C127.599 206.98 127.776 206.953 127.934 206.898C128.094 206.841 128.232 206.757 128.348 206.645C128.464 206.531 128.554 206.39 128.617 206.221L129.339 206.423C129.263 206.668 129.135 206.883 128.956 207.069C128.777 207.252 128.555 207.396 128.291 207.499C128.028 207.6 127.731 207.651 127.402 207.651Z" fill="#8F8F8F"/>
            <path d="M57.0096 228.763L61.1487 217.766H62.5538L58.598 228.763H57.0096ZM65.5169 228.763L61.5611 217.766H63.0426L67.1969 228.763H65.5169ZM59.1021 224.379H64.9976V225.723H59.1021V224.379ZM68.8074 228.763V220.973H70.3195V222.913H70.3959V228.763H68.8074ZM70.3959 224.7L70.1973 222.852C70.3806 222.19 70.6962 221.686 71.1443 221.34C71.5923 220.994 72.1268 220.821 72.748 220.821C72.9821 220.821 73.1451 220.841 73.2367 220.882V222.378C73.1858 222.358 73.1145 222.348 73.0229 222.348C72.9312 222.338 72.8192 222.333 72.6869 222.333C71.9232 222.333 71.3479 222.531 70.961 222.928C70.5842 223.325 70.3959 223.916 70.3959 224.7ZM78.1476 228.915C77.2413 228.915 76.5744 228.707 76.1467 228.289C75.7293 227.862 75.5205 227.235 75.5205 226.411V219.186L77.0937 218.591V226.426C77.0937 226.833 77.2006 227.134 77.4144 227.327C77.6283 227.52 77.9745 227.617 78.453 227.617C78.6363 227.617 78.7992 227.602 78.9418 227.571C79.0843 227.541 79.2065 227.505 79.3083 227.464V228.747C79.1963 228.798 79.0385 228.839 78.8349 228.87C78.6312 228.9 78.4021 228.915 78.1476 228.915ZM73.9627 222.241V220.973H79.3083V222.241H73.9627ZM80.8143 228.763V217.766H82.4027V228.763H80.8143ZM86.3433 228.763V223.753C86.3433 223.213 86.2058 222.811 85.9309 222.546C85.6661 222.282 85.269 222.149 84.7396 222.149C84.2814 222.149 83.8741 222.251 83.5177 222.455C83.1715 222.658 82.8966 222.938 82.6929 223.295C82.4995 223.651 82.4027 224.074 82.4027 224.563L82.2042 222.699C82.4587 222.119 82.8507 221.661 83.3802 221.325C83.9097 220.989 84.5257 220.821 85.2283 220.821C86.0632 220.821 86.72 221.055 87.1986 221.523C87.6771 221.992 87.9164 222.613 87.9164 223.386V228.763H86.3433ZM92.5226 228.915C92.0033 228.915 91.5451 228.809 91.148 228.595C90.7509 228.371 90.4404 228.065 90.2164 227.678C90.0025 227.291 89.8956 226.848 89.8956 226.35V220.973H91.484V225.983C91.484 226.523 91.6164 226.925 91.8811 227.19C92.1459 227.454 92.5226 227.587 93.0114 227.587C93.4492 227.587 93.8361 227.485 94.1721 227.281C94.5183 227.078 94.7882 226.798 94.9816 226.441C95.1853 226.075 95.2871 225.652 95.2871 225.173L95.4857 227.037C95.2311 227.607 94.8391 228.065 94.3096 228.411C93.7903 228.747 93.1947 228.915 92.5226 228.915ZM95.3482 228.763V226.93H95.2871V220.973H96.8603V228.763H95.3482ZM99.0856 228.763V220.973H100.598V222.913H100.674V228.763H99.0856ZM100.674 224.7L100.475 222.852C100.659 222.19 100.974 221.686 101.422 221.34C101.87 220.994 102.405 220.821 103.026 220.821C103.26 220.821 103.423 220.841 103.515 220.882V222.378C103.464 222.358 103.393 222.348 103.301 222.348C103.209 222.338 103.097 222.333 102.965 222.333C102.201 222.333 101.626 222.531 101.239 222.928C100.862 223.325 100.674 223.916 100.674 224.7ZM111.031 228.763V219.095H107.319V217.766H116.361V219.095H112.65V228.763H111.031ZM121.109 228.763C121.059 228.569 121.023 228.355 121.003 228.121C120.992 227.887 120.987 227.602 120.987 227.266H120.911V223.554C120.911 223.056 120.784 222.684 120.529 222.44C120.285 222.185 119.893 222.058 119.353 222.058C118.834 222.058 118.416 222.16 118.101 222.363C117.795 222.567 117.617 222.857 117.566 223.234H116.054C116.125 222.501 116.456 221.915 117.047 221.477C117.637 221.039 118.426 220.821 119.414 220.821C120.432 220.821 121.196 221.06 121.705 221.538C122.214 222.007 122.469 222.699 122.469 223.616V227.266C122.469 227.5 122.484 227.739 122.515 227.984C122.545 228.228 122.591 228.488 122.652 228.763H121.109ZM118.421 228.915C117.627 228.915 116.996 228.722 116.527 228.335C116.059 227.938 115.825 227.403 115.825 226.731C115.825 226.039 116.069 225.494 116.558 225.097C117.057 224.69 117.77 224.415 118.696 224.272L121.262 223.86V224.975L118.941 225.341C118.421 225.423 118.029 225.56 117.765 225.754C117.51 225.947 117.383 226.227 117.383 226.594C117.383 226.95 117.5 227.22 117.734 227.403C117.978 227.576 118.33 227.663 118.788 227.663C119.399 227.663 119.903 227.515 120.3 227.22C120.707 226.925 120.911 226.553 120.911 226.105L121.109 227.235C120.926 227.775 120.6 228.192 120.132 228.488C119.664 228.773 119.093 228.915 118.421 228.915ZM124.798 231.894L126.677 227.602L126.998 227.098L129.365 220.973H131.015L126.433 231.894H124.798ZM126.601 228.763L123.271 220.973H124.997L127.823 227.984L126.601 228.763ZM132.317 228.763V217.766H133.905V228.763H132.317ZM139.526 228.915C138.732 228.915 138.034 228.742 137.434 228.396C136.833 228.04 136.364 227.556 136.028 226.945C135.692 226.324 135.524 225.621 135.524 224.837C135.524 224.043 135.692 223.346 136.028 222.745C136.375 222.144 136.843 221.676 137.434 221.34C138.034 220.994 138.732 220.821 139.526 220.821C140.33 220.821 141.033 220.994 141.634 221.34C142.235 221.676 142.698 222.144 143.024 222.745C143.36 223.346 143.528 224.043 143.528 224.837C143.528 225.621 143.36 226.324 143.024 226.945C142.698 227.556 142.235 228.04 141.634 228.396C141.033 228.742 140.33 228.915 139.526 228.915ZM139.526 227.617C140.005 227.617 140.417 227.5 140.763 227.266C141.12 227.032 141.4 226.706 141.603 226.288C141.807 225.871 141.909 225.382 141.909 224.822C141.909 223.987 141.685 223.33 141.237 222.852C140.799 222.363 140.229 222.119 139.526 222.119C138.834 222.119 138.263 222.363 137.815 222.852C137.378 223.341 137.159 223.997 137.159 224.822C137.159 225.382 137.255 225.871 137.449 226.288C137.653 226.706 137.933 227.032 138.289 227.266C138.655 227.5 139.068 227.617 139.526 227.617ZM145.159 228.763V220.973H146.671V222.913H146.748V228.763H145.159ZM146.748 224.7L146.549 222.852C146.732 222.19 147.048 221.686 147.496 221.34C147.944 220.994 148.479 220.821 149.1 220.821C149.334 220.821 149.497 220.841 149.588 220.882V222.378C149.538 222.358 149.466 222.348 149.375 222.348C149.283 222.338 149.171 222.333 149.039 222.333C148.275 222.333 147.7 222.531 147.313 222.928C146.936 223.325 146.748 223.916 146.748 224.7Z" fill="white"/>
            <rect width="20.3644" height="15.2733" transform="translate(56.5209 140.275)" fill="#000080"/>
            <g filter="url(#filter7_ii_3863_2588)">
                <path d="M56.5209 142.184C56.5209 141.13 57.3756 140.275 58.43 140.275H74.9761C76.0306 140.275 76.8853 141.13 76.8853 142.184V153.639C76.8853 154.693 76.0306 155.548 74.9761 155.548H58.43C57.3756 155.548 56.5209 154.693 56.5209 153.639V142.184Z" fill="white"/>
                <path d="M64.7939 146.002H68.6123V149.821H64.7939V146.002Z" fill="white"/>
            </g>
            <path d="M64.7939 146.002H68.6123M64.7939 146.002V149.821M64.7939 146.002L63.5342 144.452C63.1716 144.005 62.6273 143.746 62.0523 143.746H56.5209M68.6123 146.002V149.821M68.6123 146.002L70.0276 144.394C70.3901 143.982 70.9122 143.746 71.4609 143.746H76.8853M68.6123 149.821H64.7939M68.6123 149.821L70.0276 151.429C70.3901 151.841 70.9122 152.077 71.4609 152.077H76.8853M64.7939 149.821L63.5342 151.372C63.1716 151.818 62.6273 152.077 62.0523 152.077H56.5209M66.8622 140.275V144.093M66.8622 151.73V155.548M76.8853 148.085H70.5214M62.8848 148.085H56.5209M58.43 155.548H74.9761C76.0306 155.548 76.8853 154.693 76.8853 153.639V142.184C76.8853 141.13 76.0306 140.275 74.9761 140.275H58.43C57.3756 140.275 56.5209 141.13 56.5209 142.184V153.639C56.5209 154.693 57.3756 155.548 58.43 155.548Z" stroke="black" stroke-width="0.636389"/>
        </g>
    </g>
    <defs>
        <filter id="filter0_d_3863_2588" x="-3.41618" y="-3.6008" width="298.063" height="267.541" filterUnits="userSpaceOnUse" color-interpolation-filters="sRGB">
            <feFlood flood-opacity="0" result="BackgroundImageFix"/>
            <feColorMatrix in="SourceAlpha" type="matrix" values="0 0 0 0 0 0 0 0 0 0 0 0 0 0 0 0 0 0 127 0" result="hardAlpha"/>
            <feOffset dy="7.75788"/>
            <feGaussianBlur stdDeviation="15.5158"/>
            <feComposite in2="hardAlpha" operator="out"/>
            <feColorMatrix type="matrix" values="0 0 0 0 0 0 0 0 0 0 0 0 0 0 0 0 0 0 0.04 0"/>
            <feBlend mode="normal" in2="BackgroundImageFix" result="effect1_dropShadow_3863_2588"/>
            <feBlend mode="normal" in="SourceGraphic" in2="effect1_dropShadow_3863_2588" result="shape"/>
        </filter>
        <filter id="filter1_ii_3863_2588" x="83.3835" y="38.7155" width="24.5123" height="25.194" filterUnits="userSpaceOnUse" color-interpolation-filters="sRGB">
            <feFlood flood-opacity="0" result="BackgroundImageFix"/>
            <feBlend mode="normal" in="SourceGraphic" in2="BackgroundImageFix" result="shape"/>
            <feColorMatrix in="SourceAlpha" type="matrix" values="0 0 0 0 0 0 0 0 0 0 0 0 0 0 0 0 0 0 127 0" result="hardAlpha"/>
            <feOffset dy="1.27278"/>
            <feGaussianBlur stdDeviation="1.90917"/>
            <feComposite in2="hardAlpha" operator="arithmetic" k2="-1" k3="1"/>
            <feColorMatrix type="matrix" values="0 0 0 0 0 0 0 0 0 0 0 0 0 0 0 0 0 0 1 0"/>
            <feBlend mode="overlay" in2="shape" result="effect1_innerShadow_3863_2588"/>
            <feColorMatrix in="SourceAlpha" type="matrix" values="0 0 0 0 0 0 0 0 0 0 0 0 0 0 0 0 0 0 127 0" result="hardAlpha"/>
            <feOffset dy="-1.27278"/>
            <feGaussianBlur stdDeviation="0.636389"/>
            <feComposite in2="hardAlpha" operator="arithmetic" k2="-1" k3="1"/>
            <feColorMatrix type="matrix" values="0 0 0 0 0 0 0 0 0 0 0 0 0 0 0 0 0 0 0.48 0"/>
            <feBlend mode="overlay" in2="effect1_innerShadow_3863_2588" result="effect2_innerShadow_3863_2588"/>
        </filter>
        <filter id="filter2_i_3863_2588" x="188.862" y="188.891" width="14.1104" height="14.6423" filterUnits="userSpaceOnUse" color-interpolation-filters="sRGB">
            <feFlood flood-opacity="0" result="BackgroundImageFix"/>
            <feBlend mode="normal" in="SourceGraphic" in2="BackgroundImageFix" result="shape"/>
            <feColorMatrix in="SourceAlpha" type="matrix" values="0 0 0 0 0 0 0 0 0 0 0 0 0 0 0 0 0 0 127 0" result="hardAlpha"/>
            <feOffset dy="0.969736"/>
            <feGaussianBlur stdDeviation="0.363651"/>
            <feComposite in2="hardAlpha" operator="arithmetic" k2="-1" k3="1"/>
            <feColorMatrix type="matrix" values="0 0 0 0 0 0 0 0 0 0 0 0 0 0 0 0 0 0 0.23 0"/>
            <feBlend mode="normal" in2="shape" result="effect1_innerShadow_3863_2588"/>
        </filter>
        <filter id="filter3_d_3863_2588" x="0.795336" y="46.1175" width="289.64" height="230.277" filterUnits="userSpaceOnUse" color-interpolation-filters="sRGB">
            <feFlood flood-opacity="0" result="BackgroundImageFix"/>
            <feColorMatrix in="SourceAlpha" type="matrix" values="0 0 0 0 0 0 0 0 0 0 0 0 0 0 0 0 0 0 127 0" result="hardAlpha"/>
            <feOffset dy="7.75788"/>
            <feGaussianBlur stdDeviation="15.5158"/>
            <feComposite in2="hardAlpha" operator="out"/>
            <feColorMatrix type="matrix" values="0 0 0 0 0 0 0 0 0 0 0 0 0 0 0 0 0 0 0.04 0"/>
            <feBlend mode="normal" in2="BackgroundImageFix" result="effect1_dropShadow_3863_2588"/>
            <feBlend mode="normal" in="SourceGraphic" in2="effect1_dropShadow_3863_2588" result="shape"/>
        </filter>
        <filter id="filter4_ii_3863_2588" x="67.1965" y="86.5329" width="23.4029" height="22.3483" filterUnits="userSpaceOnUse" color-interpolation-filters="sRGB">
            <feFlood flood-opacity="0" result="BackgroundImageFix"/>
            <feBlend mode="normal" in="SourceGraphic" in2="BackgroundImageFix" result="shape"/>
            <feColorMatrix in="SourceAlpha" type="matrix" values="0 0 0 0 0 0 0 0 0 0 0 0 0 0 0 0 0 0 127 0" result="hardAlpha"/>
            <feOffset dy="1.27278"/>
            <feGaussianBlur stdDeviation="1.90917"/>
            <feComposite in2="hardAlpha" operator="arithmetic" k2="-1" k3="1"/>
            <feColorMatrix type="matrix" values="0 0 0 0 0 0 0 0 0 0 0 0 0 0 0 0 0 0 1 0"/>
            <feBlend mode="overlay" in2="shape" result="effect1_innerShadow_3863_2588"/>
            <feColorMatrix in="SourceAlpha" type="matrix" values="0 0 0 0 0 0 0 0 0 0 0 0 0 0 0 0 0 0 127 0" result="hardAlpha"/>
            <feOffset dy="-1.27278"/>
            <feGaussianBlur stdDeviation="0.636389"/>
            <feComposite in2="hardAlpha" operator="arithmetic" k2="-1" k3="1"/>
            <feColorMatrix type="matrix" values="0 0 0 0 0 0 0 0 0 0 0 0 0 0 0 0 0 0 0.48 0"/>
            <feBlend mode="overlay" in2="effect1_innerShadow_3863_2588" result="effect2_innerShadow_3863_2588"/>
        </filter>
        <filter id="filter5_i_3863_2588" x="206.144" y="204.514" width="14.0466" height="14.4265" filterUnits="userSpaceOnUse" color-interpolation-filters="sRGB">
            <feFlood flood-opacity="0" result="BackgroundImageFix"/>
            <feBlend mode="normal" in="SourceGraphic" in2="BackgroundImageFix" result="shape"/>
            <feColorMatrix in="SourceAlpha" type="matrix" values="0 0 0 0 0 0 0 0 0 0 0 0 0 0 0 0 0 0 127 0" result="hardAlpha"/>
            <feOffset dy="0.969736"/>
            <feGaussianBlur stdDeviation="0.363651"/>
            <feComposite in2="hardAlpha" operator="arithmetic" k2="-1" k3="1"/>
            <feColorMatrix type="matrix" values="0 0 0 0 0 0 0 0 0 0 0 0 0 0 0 0 0 0 0.23 0"/>
            <feBlend mode="normal" in2="shape" result="effect1_innerShadow_3863_2588"/>
        </filter>
        <filter id="filter6_d_3863_2588" x="12.7615" y="101.567" width="265.708" height="181.549" filterUnits="userSpaceOnUse" color-interpolation-filters="sRGB">
            <feFlood flood-opacity="0" result="BackgroundImageFix"/>
            <feColorMatrix in="SourceAlpha" type="matrix" values="0 0 0 0 0 0 0 0 0 0 0 0 0 0 0 0 0 0 127 0" result="hardAlpha"/>
            <feOffset dy="7.75788"/>
            <feGaussianBlur stdDeviation="15.5158"/>
            <feComposite in2="hardAlpha" operator="out"/>
            <feColorMatrix type="matrix" values="0 0 0 0 0 0 0 0 0 0 0 0 0 0 0 0 0 0 0.04 0"/>
            <feBlend mode="normal" in2="BackgroundImageFix" result="effect1_dropShadow_3863_2588"/>
            <feBlend mode="normal" in="SourceGraphic" in2="effect1_dropShadow_3863_2588" result="shape"/>
        </filter>
        <filter id="filter7_ii_3863_2588" x="56.2027" y="138.684" width="21.0009" height="18.4552" filterUnits="userSpaceOnUse" color-interpolation-filters="sRGB">
            <feFlood flood-opacity="0" result="BackgroundImageFix"/>
            <feBlend mode="normal" in="SourceGraphic" in2="BackgroundImageFix" result="shape"/>
            <feColorMatrix in="SourceAlpha" type="matrix" values="0 0 0 0 0 0 0 0 0 0 0 0 0 0 0 0 0 0 127 0" result="hardAlpha"/>
            <feOffset dy="1.27278"/>
            <feGaussianBlur stdDeviation="1.90917"/>
            <feComposite in2="hardAlpha" operator="arithmetic" k2="-1" k3="1"/>
            <feColorMatrix type="matrix" values="0 0 0 0 0 0 0 0 0 0 0 0 0 0 0 0 0 0 1 0"/>
            <feBlend mode="overlay" in2="shape" result="effect1_innerShadow_3863_2588"/>
            <feColorMatrix in="SourceAlpha" type="matrix" values="0 0 0 0 0 0 0 0 0 0 0 0 0 0 0 0 0 0 127 0" result="hardAlpha"/>
            <feOffset dy="-1.27278"/>
            <feGaussianBlur stdDeviation="0.636389"/>
            <feComposite in2="hardAlpha" operator="arithmetic" k2="-1" k3="1"/>
            <feColorMatrix type="matrix" values="0 0 0 0 0 0 0 0 0 0 0 0 0 0 0 0 0 0 0.48 0"/>
            <feBlend mode="overlay" in2="effect1_innerShadow_3863_2588" result="effect2_innerShadow_3863_2588"/>
        </filter>
        <clipPath id="clip0_3863_2588">
            <rect width="203.734" height="119.434" rx="10.1822" transform="matrix(0.865647 0.500655 -0.499345 0.866403 87.2541 19.6729)" fill="white"/>
        </clipPath>
        <clipPath id="clip1_3863_2588">
            <rect width="15.2733" height="15.2733" fill="white" transform="translate(125.912 59.9727) rotate(120)"/>
        </clipPath>
        <clipPath id="clip2_3863_2588">
            <rect width="20.3644" height="20.3644" fill="white" transform="translate(228.593 116.315) rotate(30)"/>
        </clipPath>
        <clipPath id="clip3_3863_2588">
            <rect width="203.668" height="119.472" rx="10.1822" transform="matrix(0.965813 0.259241 -0.258397 0.966039 62.6982 69.3911)" fill="white"/>
        </clipPath>
        <clipPath id="clip4_3863_2588">
            <rect width="15.2733" height="15.2733" fill="white" transform="translate(110.38 98.2368) rotate(105)"/>
        </clipPath>
        <clipPath id="clip5_3863_2588">
            <rect width="20.3644" height="20.3644" fill="white" transform="translate(224.145 126.084) rotate(15)"/>
        </clipPath>
        <clipPath id="clip6_3863_2588">
            <rect x="43.793" y="124.841" width="203.644" height="119.486" rx="10.1822" fill="white"/>
        </clipPath>
    </defs>
</svg>
