<svg width="40" height="40" viewBox="0 0 40 40" fill="none" xmlns="http://www.w3.org/2000/svg">
<path opacity="0.4" d="M33.3333 5C35.1743 5 36.6667 6.49238 36.6667 8.33333L36.6667 31.6667C36.6667 33.5076 35.1743 35 33.3333 35C31.4924 35 30 33.5076 30 31.6667L30 8.33333C30 6.49238 31.4924 5 33.3333 5Z" fill="#000080"/>
<path opacity="0.4" d="M6.66668 18.3333C8.50763 18.3333 10 19.8257 10 21.6666L10 31.6666C10 33.5076 8.50763 35 6.66668 35C4.82573 35 3.33334 33.5076 3.33334 31.6666L3.33334 21.6666C3.33334 19.8257 4.82573 18.3333 6.66668 18.3333Z" fill="#000080"/>
<path d="M20 11.6667C21.841 11.6667 23.3333 13.1591 23.3333 15L23.3333 31.6667C23.3333 33.5076 21.841 35 20 35C18.1591 35 16.6667 33.5076 16.6667 31.6667L16.6667 15C16.6667 13.1591 18.1591 11.6667 20 11.6667Z" fill="#000080"/>
</svg>
