<svg width="136" height="39" viewBox="0 0 136 39" fill="none" xmlns="http://www.w3.org/2000/svg">
<path fill-rule="evenodd" clip-rule="evenodd" d="M18.0367 36.5807C27.699 36.5807 35.5318 28.7479 35.5318 19.0856C35.5318 9.42339 27.699 1.59058 18.0367 1.59058C8.37441 1.59058 0.541626 9.42339 0.541626 19.0856C0.541626 28.7479 8.37441 36.5807 18.0367 36.5807ZM23.4945 9.74052C23.7602 8.79684 22.8444 8.23882 22.0081 8.83467L10.3328 17.1521C9.42581 17.7983 9.56848 19.0856 10.5472 19.0856H13.6216V19.0618H19.6134L14.7312 20.7845L12.5789 28.4308C12.3132 29.3745 13.2289 29.9325 14.0653 29.3366L25.7406 21.0193C26.6476 20.3731 26.5048 19.0856 25.5262 19.0856H20.864L23.4945 9.74052Z" fill="#ACB2B8"/>
<path d="M44.5815 26.9657V24.1983H46.7763V13.0333H44.5815V10.2659H53.17C54.1879 10.2659 55.0706 10.4408 55.8181 10.7907C56.5815 11.1247 57.17 11.6098 57.5835 12.246C58.0129 12.8663 58.2276 13.6138 58.2276 14.4886V14.7271C58.2276 15.4905 58.0845 16.1188 57.7982 16.6118C57.5119 17.089 57.17 17.4627 56.7724 17.7331C56.3907 17.9876 56.0248 18.1705 55.6749 18.2818V18.7112C56.0248 18.8067 56.4066 18.9896 56.8201 19.2599C57.2336 19.5144 57.5835 19.8882 57.8698 20.3812C58.172 20.8743 58.3231 21.5184 58.3231 22.3136V22.5522C58.3231 23.4747 58.1083 24.2699 57.6789 24.9379C57.2495 25.59 56.6531 26.091 55.8897 26.4409C55.1421 26.7908 54.2674 26.9657 53.2654 26.9657H44.5815ZM49.9254 24.1029H52.8837C53.5676 24.1029 54.1163 23.9359 54.5298 23.6019C54.9592 23.2679 55.1739 22.7908 55.1739 22.1705V21.9319C55.1739 21.3116 54.9672 20.8345 54.5537 20.5005C54.1401 20.1665 53.5835 19.9995 52.8837 19.9995H49.9254V24.1029ZM49.9254 17.1367H52.836C53.4881 17.1367 54.0209 16.9697 54.4344 16.6357C54.8638 16.3017 55.0785 15.8404 55.0785 15.252V15.0134C55.0785 14.409 54.8718 13.9478 54.4582 13.6297C54.0447 13.2957 53.504 13.1287 52.836 13.1287H49.9254V17.1367Z" fill="#ACB2B8"/>
<path d="M65.4339 27.2997C64.257 27.2997 63.1993 27.0611 62.2609 26.584C61.3226 26.1069 60.583 25.415 60.0422 24.5085C59.5015 23.6019 59.2311 22.5124 59.2311 21.2401V20.8584C59.2311 19.586 59.5015 18.4965 60.0422 17.59C60.583 16.6834 61.3226 15.9915 62.2609 15.5144C63.1993 15.0373 64.257 14.7987 65.4339 14.7987C66.6109 14.7987 67.6685 15.0373 68.6069 15.5144C69.5453 15.9915 70.2848 16.6834 70.8256 17.59C71.3663 18.4965 71.6367 19.586 71.6367 20.8584V21.2401C71.6367 22.5124 71.3663 23.6019 70.8256 24.5085C70.2848 25.415 69.5453 26.1069 68.6069 26.584C67.6685 27.0611 66.6109 27.2997 65.4339 27.2997ZM65.4339 24.6277C66.3564 24.6277 67.1198 24.3335 67.7242 23.745C68.3285 23.1407 68.6307 22.2818 68.6307 21.1685V20.9299C68.6307 19.8166 68.3285 18.9657 67.7242 18.3772C67.1357 17.7729 66.3723 17.4707 65.4339 17.4707C64.5114 17.4707 63.748 17.7729 63.1436 18.3772C62.5393 18.9657 62.2371 19.8166 62.2371 20.9299V21.1685C62.2371 22.2818 62.5393 23.1407 63.1436 23.745C63.748 24.3335 64.5114 24.6277 65.4339 24.6277Z" fill="#ACB2B8"/>
<path d="M73.2185 26.9657V10.2659H76.2245V26.9657H73.2185Z" fill="#ACB2B8"/>
<path d="M82.8955 26.9657C82.1162 26.9657 81.48 26.7271 80.9869 26.25C80.5098 25.757 80.2712 25.1049 80.2712 24.2937V17.6138H77.313V15.1327H80.2712V11.4587H83.2772V15.1327H86.5217V17.6138H83.2772V23.7689C83.2772 24.246 83.4999 24.4846 83.9452 24.4846H86.2355V26.9657H82.8955Z" fill="#ACB2B8"/>
<path d="M92.9644 27.2997C91.4217 27.2997 90.1572 26.9657 89.1712 26.2977C88.1851 25.6297 87.5887 24.6755 87.3819 23.4349L90.1493 22.7192C90.2606 23.2759 90.4435 23.7132 90.698 24.0313C90.9684 24.3494 91.2944 24.58 91.6761 24.7232C92.0738 24.8504 92.5032 24.914 92.9644 24.914C93.6642 24.914 94.1811 24.7947 94.5151 24.5562C94.8491 24.3017 95.0161 23.9916 95.0161 23.6258C95.0161 23.2599 94.8571 22.9816 94.539 22.7908C94.2209 22.584 93.7119 22.417 93.0121 22.2898L92.3441 22.1705C91.5171 22.0114 90.7616 21.7967 90.0777 21.5263C89.3938 21.2401 88.8451 20.8504 88.4316 20.3574C88.0181 19.8643 87.8113 19.2281 87.8113 18.4488C87.8113 17.2719 88.2407 16.3733 89.0996 15.753C89.9584 15.1168 91.0877 14.7987 92.4873 14.7987C93.8074 14.7987 94.9048 15.0929 95.7795 15.6814C96.6543 16.2699 97.2268 17.0412 97.4972 17.9955L94.706 18.8544C94.5787 18.25 94.3163 17.8206 93.9187 17.5661C93.537 17.3116 93.0598 17.1844 92.4873 17.1844C91.9147 17.1844 91.4773 17.2878 91.1751 17.4945C90.873 17.6854 90.7219 17.9558 90.7219 18.3057C90.7219 18.6874 90.8809 18.9737 91.199 19.1645C91.5171 19.3395 91.9465 19.4746 92.4873 19.5701L93.1553 19.6894C94.0459 19.8484 94.8491 20.0631 95.5648 20.3335C96.2964 20.588 96.869 20.9617 97.2825 21.4548C97.7119 21.9319 97.9267 22.584 97.9267 23.411C97.9267 24.6516 97.4734 25.6138 96.5668 26.2977C95.6761 26.9657 94.4753 27.2997 92.9644 27.2997Z" fill="#ACB2B8"/>
<path d="M99.3679 26.9657V10.2659H102.374V16.588H102.803C102.931 16.3335 103.129 16.079 103.4 15.8245C103.67 15.5701 104.028 15.3633 104.473 15.2043C104.935 15.0293 105.515 14.9418 106.215 14.9418C107.137 14.9418 107.941 15.1565 108.624 15.586C109.324 15.9995 109.865 16.58 110.247 17.3275C110.628 18.0591 110.819 18.918 110.819 19.9041V26.9657H107.813V20.1426C107.813 19.252 107.591 18.584 107.145 18.1387C106.716 17.6933 106.096 17.4707 105.284 17.4707C104.362 17.4707 103.646 17.7808 103.137 18.4011C102.628 19.0055 102.374 19.8564 102.374 20.9538V26.9657H99.3679Z" fill="#ACB2B8"/>
<path d="M112.876 26.9657V15.1327H115.882V26.9657H112.876ZM114.379 13.749C113.838 13.749 113.377 13.574 112.995 13.2241C112.629 12.8742 112.447 12.413 112.447 11.8404C112.447 11.2679 112.629 10.8066 112.995 10.4567C113.377 10.1068 113.838 9.93188 114.379 9.93188C114.936 9.93188 115.397 10.1068 115.763 10.4567C116.128 10.8066 116.311 11.2679 116.311 11.8404C116.311 12.413 116.128 12.8742 115.763 13.2241C115.397 13.574 114.936 13.749 114.379 13.749Z" fill="#ACB2B8"/>
<path d="M119.976 26.9657V17.6138H116.97V15.1327H119.976V12.9379C119.976 12.1267 120.215 11.4826 120.692 11.0054C121.185 10.5124 121.821 10.2659 122.601 10.2659H125.702V12.747H123.65C123.205 12.747 122.982 12.9856 122.982 13.4627V15.1327H126.084V17.6138H122.982V26.9657H119.976Z" fill="#ACB2B8"/>
<path d="M131.518 26.9657C130.739 26.9657 130.102 26.7271 129.609 26.25C129.132 25.757 128.894 25.1049 128.894 24.2937V17.6138H125.935V15.1327H128.894V11.4587H131.9V15.1327H135.144V17.6138H131.9V23.7689C131.9 24.246 132.122 24.4846 132.568 24.4846H134.858V26.9657H131.518Z" fill="#ACB2B8"/>
</svg>
