<svg width="40" height="40" viewBox="0 0 40 40" fill="none" xmlns="http://www.w3.org/2000/svg">
<path fill-rule="evenodd" clip-rule="evenodd" d="M18.3333 4.58331C16.2623 4.58331 14.5833 6.26225 14.5833 8.33331V9.99998C14.5833 10.6903 14.0237 11.25 13.3333 11.25C12.643 11.25 12.0833 10.6903 12.0833 9.99998V8.33331C12.0833 4.88153 14.8815 2.08331 18.3333 2.08331H21.6667C25.1184 2.08331 27.9167 4.88153 27.9167 8.33331V9.99998C27.9167 10.6903 27.357 11.25 26.6667 11.25C25.9763 11.25 25.4167 10.6903 25.4167 9.99998V8.33331C25.4167 6.26225 23.7377 4.58331 21.6667 4.58331H18.3333Z" fill="#000080"/>
<path opacity="0.4" d="M3.33333 16.6667C3.33333 12.9848 6.3181 10 10 10H30C33.6819 10 36.6667 12.9848 36.6667 16.6667V30C36.6667 33.6819 33.6819 36.6667 30 36.6667H9.99999C6.3181 36.6667 3.33333 33.6819 3.33333 30V16.6667Z" fill="#000080"/>
<path d="M10 10H30C33.6819 10 36.6667 12.9848 36.6667 16.6667C36.6667 16.6667 32.7874 20.463 22.9628 20.9098C22.6988 20.9219 22.4742 20.7211 22.4002 20.4675C22.0969 19.4283 21.1371 18.6691 20 18.6691C18.8984 18.6691 17.9633 19.3816 17.6302 20.3709C17.5461 20.6204 17.3149 20.8114 17.0524 20.7904C7.20695 20.0025 3.33333 16.6667 3.33333 16.6667C3.33333 12.9848 6.3181 10 10 10Z" fill="#000080"/>
<rect x="18.75" y="20" width="2.5" height="4.65671" rx="1.25" fill="#000080"/>
</svg>
