<svg width="37" height="27" viewBox="0 0 37 27" fill="none" xmlns="http://www.w3.org/2000/svg">
<path d="M35.3127 10.1155H1.65063M16.7986 16.8479H8.38305M1.65064 7.08588L1.65063 19.8775C1.65063 21.7627 1.65063 22.7054 2.01753 23.4254C2.34026 24.0588 2.85522 24.5738 3.48862 24.8965C4.20869 25.2634 5.15131 25.2634 7.03657 25.2634L29.9268 25.2634C31.812 25.2634 32.7547 25.2634 33.4747 24.8965C34.1081 24.5738 34.6231 24.0588 34.9458 23.4254C35.3127 22.7054 35.3127 21.7627 35.3127 19.8775V7.08589C35.3127 5.20063 35.3127 4.25801 34.9458 3.53794C34.6231 2.90454 34.1081 2.38958 33.4747 2.06685C32.7547 1.69995 31.812 1.69995 29.9268 1.69995L7.03657 1.69995C5.15132 1.69995 4.20869 1.69995 3.48862 2.06685C2.85522 2.38958 2.34026 2.90454 2.01753 3.53793C1.65064 4.258 1.65064 5.20063 1.65064 7.08588Z" stroke="#000080" stroke-width="2.18349" stroke-linecap="round" stroke-linejoin="round"/>
</svg>
