<svg width="40" height="40" viewBox="0 0 40 40" fill="none" xmlns="http://www.w3.org/2000/svg">
<path opacity="0.4" d="M3.33333 9.99998C3.33333 6.31808 6.3181 3.33331 9.99999 3.33331H30C33.6819 3.33331 36.6667 6.31808 36.6667 9.99998V30C36.6667 33.6819 33.6819 36.6666 30 36.6666H9.99999C6.3181 36.6666 3.33333 33.6819 3.33333 30V9.99998Z" fill="#000080"/>
<path d="M26.6667 18.3333C24.8257 18.3333 23.3333 19.8257 23.3333 21.6666L23.3333 25C23.3333 26.8409 24.8257 28.3333 26.6667 28.3333C28.5076 28.3333 30 26.8409 30 25V21.6666C30 19.8257 28.5076 18.3333 26.6667 18.3333Z" fill="#000080"/>
<path d="M13.3333 11.6666C11.4924 11.6666 10 13.159 10 15L10 25C10 26.8409 11.4924 28.3333 13.3333 28.3333C15.1743 28.3333 16.6667 26.8409 16.6667 25L16.6667 15C16.6667 13.159 15.1743 11.6666 13.3333 11.6666Z" fill="#000080"/>
</svg>
