<svg width="40" height="40" viewBox="0 0 40 40" fill="none" xmlns="http://www.w3.org/2000/svg">
<path opacity="0.4" d="M33.3332 13.3333C35.1742 13.3333 36.6666 14.8257 36.6666 16.6666L36.6666 33.3333C36.6666 35.1743 35.1742 36.6666 33.3332 36.6666C31.4923 36.6666 29.9999 35.1743 29.9999 33.3333L29.9999 16.6666C29.9999 14.8257 31.4923 13.3333 33.3332 13.3333Z" fill="#000080"/>
<path opacity="0.4" d="M6.66667 26.6666C8.50762 26.6666 10 28.159 10 30V33.3333C10 35.1742 8.50762 36.6666 6.66667 36.6666C4.82572 36.6666 3.33333 35.1742 3.33333 33.3333L3.33333 30C3.33333 28.159 4.82572 26.6666 6.66667 26.6666Z" fill="#000080"/>
<path opacity="0.4" d="M20 20C21.8409 20 23.3333 21.4924 23.3333 23.3333L23.3333 33.3333C23.3333 35.1743 21.8409 36.6667 20 36.6667C18.1591 36.6667 16.6667 35.1743 16.6667 33.3333L16.6667 23.3333C16.6667 21.4924 18.1591 20 20 20Z" fill="#000080"/>
<path fill-rule="evenodd" clip-rule="evenodd" d="M30.4166 3.33331C30.4166 2.64296 30.9762 2.08331 31.6666 2.08331H34.9999C36.6108 2.08331 37.9166 3.38915 37.9166 4.99998V8.33331C37.9166 9.02367 37.357 9.58331 36.6666 9.58331C35.9762 9.58331 35.4166 9.02367 35.4166 8.33331V6.2685C28.945 11.4527 23.9268 14.8205 19.0679 17.0741C14.0985 19.379 9.35574 20.4906 3.4917 21.2399C2.80691 21.3274 2.18085 20.8432 2.09335 20.1584C2.00585 19.4736 2.49004 18.8476 3.17483 18.7601C8.88099 18.0309 13.3536 16.9687 18.016 14.8062C22.5312 12.712 27.2801 9.56025 33.5208 4.58331H31.6666C30.9762 4.58331 30.4166 4.02367 30.4166 3.33331Z" fill="#000080"/>
</svg>
