<svg width="162" height="39" viewBox="0 0 162 39" fill="none" xmlns="http://www.w3.org/2000/svg">
<path opacity="0.8" d="M19.6561 21.1374C19.252 16.2392 15.1485 12.3899 10.146 12.3899C4.87565 12.3899 0.60321 16.6623 0.60321 21.9327C0.60321 27.203 4.87565 31.4754 10.146 31.4754H24.4601V21.1374H19.6561Z" fill="#ACB2B8"/>
<circle cx="23.6649" cy="19.5469" r="11.9285" fill="#ACB2B8"/>
<path d="M42.6677 19.7059C42.6677 18.1176 42.972 16.7296 43.5806 15.5421C44.2041 14.3397 45.0873 13.4119 46.2303 12.7588C47.3882 12.1056 48.7464 11.7791 50.3051 11.7791C51.5223 11.7791 52.6134 12.0166 53.5783 12.4916C54.5431 12.9666 55.3225 13.6346 55.9162 14.4956C56.51 15.3565 56.8663 16.3511 56.985 17.4793H53.6451C53.4521 16.5886 53.0439 15.8909 52.4204 15.3862C51.8118 14.8667 51.0473 14.6069 50.127 14.6069C48.88 14.6069 47.8929 15.0745 47.1655 16.0097C46.4382 16.9449 46.0745 18.1769 46.0745 19.7059C46.0745 21.22 46.4382 22.4521 47.1655 23.4021C47.8929 24.3373 48.88 24.8049 50.127 24.8049C51.0473 24.8049 51.8118 24.5526 52.4204 24.0479C53.0439 23.5283 53.4521 22.8232 53.6451 21.9326H56.985C56.8663 23.0607 56.51 24.0553 55.9162 24.9163C55.3225 25.7772 54.5431 26.4452 53.5783 26.9202C52.6134 27.3953 51.5223 27.6328 50.3051 27.6328C48.7464 27.6328 47.3882 27.3062 46.2303 26.653C45.0873 25.9999 44.2041 25.0795 43.5806 23.892C42.972 22.6896 42.6677 21.2942 42.6677 19.7059Z" fill="#ACB2B8"/>
<path d="M57.7899 11.9127H60.9295V27.4992H57.7899V11.9127Z" fill="#ACB2B8"/>
<path d="M67.8156 27.6328C66.6132 27.6328 65.5518 27.3953 64.6315 26.9202C63.726 26.4304 63.0209 25.7401 62.5162 24.8495C62.0263 23.9588 61.7814 22.9345 61.7814 21.7767C61.7814 20.6188 62.0263 19.5946 62.5162 18.7039C63.0209 17.8133 63.726 17.1304 64.6315 16.6554C65.5518 16.1655 66.6132 15.9206 67.8156 15.9206C69.018 15.9206 70.0719 16.1655 70.9774 16.6554C71.8978 17.1304 72.6029 17.8133 73.0927 18.7039C73.5974 19.5946 73.8498 20.6188 73.8498 21.7767C73.8498 22.9494 73.5974 23.9811 73.0927 24.8717C72.6029 25.7475 71.8978 26.4304 70.9774 26.9202C70.0719 27.3953 69.018 27.6328 67.8156 27.6328ZM67.8156 25.0721C68.6914 25.0721 69.3816 24.7678 69.8864 24.1592C70.4059 23.5506 70.6657 22.7564 70.6657 21.7767C70.6657 20.797 70.4059 20.0028 69.8864 19.3942C69.3816 18.7856 68.6914 18.4813 67.8156 18.4813C66.9546 18.4813 66.2643 18.7856 65.7448 19.3942C65.2401 20.0028 64.9877 20.797 64.9877 21.7767C64.9877 22.7564 65.2401 23.5506 65.7448 24.1592C66.2643 24.7678 66.9546 25.0721 67.8156 25.0721Z" fill="#ACB2B8"/>
<path d="M85.4642 16.0542V27.4992H82.6809L82.3914 26.1186C81.9906 26.5937 81.523 26.9648 80.9886 27.232C80.4542 27.4992 79.8011 27.6328 79.0292 27.6328C77.6932 27.6328 76.6021 27.2245 75.756 26.4081C74.9099 25.5768 74.4868 24.1963 74.4868 22.2666V16.0542H77.6264V21.888C77.6264 22.9271 77.8045 23.7139 78.1608 24.2483C78.5319 24.7678 79.096 25.0276 79.853 25.0276C80.6398 25.0276 81.2484 24.7381 81.6789 24.1592C82.1094 23.5654 82.3246 22.7416 82.3246 21.6876V16.0542H85.4642Z" fill="#ACB2B8"/>
<path d="M98.2013 11.9127V27.4992H95.4625L95.1508 25.9182C94.275 27.0613 93.0874 27.6328 91.5881 27.6328C90.5787 27.6328 89.6732 27.3953 88.8716 26.9202C88.07 26.4304 87.4392 25.7401 86.979 24.8495C86.5337 23.9588 86.311 22.9271 86.311 21.7544C86.311 20.5966 86.5337 19.5797 86.979 18.7039C87.4392 17.8133 88.07 17.1304 88.8716 16.6554C89.6881 16.1655 90.601 15.9206 91.6104 15.9206C93.0948 15.9206 94.2453 16.4402 95.0617 17.4793V11.9127H98.2013ZM92.3229 25.0721C93.1691 25.0721 93.8445 24.7752 94.3492 24.1815C94.8539 23.5728 95.1062 22.7787 95.1062 21.799C95.1062 20.8044 94.8539 20.0028 94.3492 19.3942C93.8445 18.7856 93.1691 18.4813 92.3229 18.4813C91.4768 18.4813 90.794 18.7856 90.2744 19.3942C89.7697 20.0028 89.5174 20.797 89.5174 21.7767C89.5174 22.7564 89.7697 23.5506 90.2744 24.1592C90.794 24.7678 91.4768 25.0721 92.3229 25.0721Z" fill="#ACB2B8"/>
<path d="M98.6089 11.9127L102.06 11.8904L104.933 23.2908L107.983 11.9127H110.989L113.95 23.2908L116.89 11.9127H120.274L115.954 27.4992H112.102L109.408 17.1453L106.781 27.4992H102.929L98.6089 11.9127Z" fill="#ACB2B8"/>
<path d="M130.75 24.8495V27.4992H129.147C127.707 27.4992 127.002 26.8757 127.032 25.6288C126.616 26.2819 126.104 26.7792 125.496 27.1206C124.887 27.4621 124.152 27.6328 123.291 27.6328C122.015 27.6328 120.983 27.3433 120.196 26.7644C119.424 26.1706 119.038 25.3393 119.038 24.2705C119.038 23.0533 119.484 22.1181 120.374 21.465C121.28 20.797 122.586 20.463 124.293 20.463H126.564V19.9063C126.564 19.3868 126.371 18.9785 125.985 18.6817C125.599 18.3699 125.08 18.2141 124.427 18.2141C123.848 18.2141 123.373 18.3402 123.002 18.5926C122.631 18.8449 122.408 19.1864 122.334 19.6168H119.306C119.409 18.4441 119.929 17.5386 120.864 16.9003C121.799 16.2472 123.039 15.9206 124.583 15.9206C126.201 15.9206 127.448 16.2769 128.323 16.9894C129.214 17.7019 129.659 18.7336 129.659 20.0844V24.1147C129.659 24.3967 129.719 24.5897 129.838 24.6936C129.956 24.7975 130.142 24.8495 130.394 24.8495H130.75ZM126.564 22.556H124.271C123.618 22.556 123.106 22.6896 122.735 22.9568C122.378 23.2092 122.2 23.5728 122.2 24.0479C122.2 24.4487 122.349 24.7678 122.645 25.0053C122.957 25.2428 123.373 25.3616 123.892 25.3616C124.709 25.3616 125.355 25.1315 125.83 24.6713C126.305 24.1963 126.55 23.5654 126.564 22.7787V22.556Z" fill="#ACB2B8"/>
<path d="M131.809 18.7039H129.917V16.0542H131.809V12.8478H134.949V16.0542H137.554V18.7039H134.949V23.7139C134.949 24.1147 135.03 24.4041 135.194 24.5823C135.372 24.7604 135.661 24.8495 136.062 24.8495H137.688V27.4992H135.082C132.9 27.4992 131.809 26.4081 131.809 24.226V18.7039Z" fill="#ACB2B8"/>
<path d="M148.946 23.1572C148.738 24.5526 148.145 25.651 147.165 26.4526C146.2 27.2394 144.946 27.6328 143.402 27.6328C142.214 27.6328 141.175 27.3953 140.285 26.9202C139.394 26.4304 138.704 25.7401 138.214 24.8495C137.739 23.9588 137.501 22.9345 137.501 21.7767C137.501 20.604 137.739 19.5797 138.214 18.7039C138.704 17.8133 139.394 17.1304 140.285 16.6554C141.19 16.1655 142.237 15.9206 143.424 15.9206C144.953 15.9206 146.2 16.314 147.165 17.1007C148.13 17.8726 148.724 18.9488 148.946 20.3294H145.695C145.562 19.7653 145.294 19.32 144.894 18.9934C144.493 18.652 143.996 18.4813 143.402 18.4813C142.585 18.4813 141.932 18.7856 141.442 19.3942C140.952 20.0028 140.708 20.797 140.708 21.7767C140.708 22.7564 140.952 23.5506 141.442 24.1592C141.932 24.7678 142.585 25.0721 143.402 25.0721C144.01 25.0721 144.515 24.9014 144.916 24.56C145.332 24.2186 145.599 23.751 145.718 23.1572H148.946Z" fill="#ACB2B8"/>
<path d="M156.279 15.9206C157.63 15.9206 158.736 16.3363 159.596 17.1675C160.472 17.9988 160.91 19.3719 160.91 21.2868V27.4992H157.771V21.4204C157.771 20.4704 157.578 19.7504 157.192 19.2606C156.806 18.7559 156.227 18.5035 155.455 18.5035C154.653 18.5035 154.022 18.7781 153.562 19.3274C153.117 19.8766 152.894 20.6411 152.894 21.6208V27.4992H149.755V11.9127H152.894V17.457C153.74 16.4327 154.869 15.9206 156.279 15.9206Z" fill="#ACB2B8"/>
</svg>
