<svg width="48" height="48" viewBox="0 0 48 48" fill="none" xmlns="http://www.w3.org/2000/svg">
<path fill-rule="evenodd" clip-rule="evenodd" d="M22.5 36V42.5H18C17.1716 42.5 16.5 43.1716 16.5 44C16.5 44.8284 17.1716 45.5 18 45.5H30C30.8284 45.5 31.5 44.8284 31.5 44C31.5 43.1716 30.8284 42.5 30 42.5H25.5V36H22.5Z" fill="#000080"/>
<path opacity="0.4" d="M4 10C4 6.68629 6.68629 4 10 4H38C41.3137 4 44 6.68629 44 10V30C44 33.3137 41.3137 36 38 36H10C6.68629 36 4 33.3137 4 30V10Z" fill="#000080"/>
<path fill-rule="evenodd" clip-rule="evenodd" d="M20.5 30C20.5 29.1716 21.1716 28.5 22 28.5H26C26.8284 28.5 27.5 29.1716 27.5 30C27.5 30.8284 26.8284 31.5 26 31.5H22C21.1716 31.5 20.5 30.8284 20.5 30Z" fill="#000080"/>
</svg>
