<svg width="336" height="255" viewBox="0 0 336 255" fill="none" xmlns="http://www.w3.org/2000/svg">
    <g filter="url(#filter0_d_3493_29)">
        <rect x="68.9435" y="2" width="192.83" height="280" rx="9.35094" fill="white"/>
        <rect x="69.5409" y="2.5974" width="191.635" height="278.805" rx="8.75354" stroke="#EAECF0" stroke-width="1.19481"/>
    </g>
    <rect x="79.5094" y="19.1699" width="96.4151" height="10.566" rx="5.28302" fill="#EDF0F3"/>
    <rect x="79.5094" y="87.8491" width="169.057" height="10.566" rx="5.28302" fill="#EDF0F3"/>
    <rect x="79.5094" y="142" width="169.057" height="10.566" rx="5.28302" fill="#EDF0F3"/>
    <rect x="79.5094" y="36.3398" width="96.4151" height="10.566" rx="5.28302" fill="#EDF0F3"/>
    <rect x="79.5094" y="105.019" width="169.057" height="10.566" rx="5.28302" fill="#EDF0F3"/>
    <rect x="79.5094" y="159.17" width="169.057" height="10.566" rx="5.28302" fill="#EDF0F3"/>
    <rect x="79.5094" y="53.5093" width="68.6792" height="10.566" rx="5.28302" fill="#EDF0F3"/>
    <rect x="79.5094" y="122.189" width="120.189" height="10.566" rx="5.28302" fill="#EDF0F3"/>
    <rect x="79.5094" y="176.34" width="120.189" height="10.566" rx="5.28302" fill="#EDF0F3"/>
    <rect x="79.5094" y="238.415" width="51.5094" height="10.566" rx="5.28302" fill="#EDF0F3"/>
    <path fill-rule="evenodd" clip-rule="evenodd" d="M29.9812 157.849V166.434H24.0378C22.9436 166.434 22.0566 167.321 22.0566 168.415C22.0566 169.509 22.9436 170.396 24.0378 170.396H39.8868C40.981 170.396 41.868 169.509 41.868 168.415C41.868 167.321 40.981 166.434 39.8868 166.434H33.9434V157.849H29.9812Z" fill="#000080"/>
    <path opacity="0.4" d="M5.54712 123.509C5.54712 119.133 9.09505 115.585 13.4717 115.585H50.4528C54.8294 115.585 58.3773 119.133 58.3773 123.509V149.925C58.3773 154.301 54.8294 157.849 50.4528 157.849H13.4717C9.09505 157.849 5.54712 154.301 5.54712 149.925V123.509Z" fill="#000080"/>
    <path fill-rule="evenodd" clip-rule="evenodd" d="M27.3396 149.925C27.3396 148.831 28.2266 147.944 29.3207 147.944H34.6038C35.6979 147.944 36.5849 148.831 36.5849 149.925C36.5849 151.019 35.6979 151.906 34.6038 151.906H29.3207C28.2266 151.906 27.3396 151.019 27.3396 149.925Z" fill="#000080"/>
    <path opacity="0.4" fill-rule="evenodd" clip-rule="evenodd" d="M298 122.208C299.312 122.208 300.375 123.272 300.375 124.583V127.286C304.03 128.32 306.708 131.681 306.708 135.667C306.708 136.979 305.645 138.042 304.333 138.042C303.022 138.042 301.958 136.979 301.958 135.667C301.958 133.481 300.186 131.708 298 131.708C295.814 131.708 294.042 133.481 294.042 135.667C294.042 137.853 295.814 139.625 298 139.625C302.809 139.625 306.708 143.524 306.708 148.333C306.708 152.32 304.03 155.68 300.375 156.714V159.417C300.375 160.729 299.312 161.792 298 161.792C296.688 161.792 295.625 160.729 295.625 159.417V156.714C291.97 155.68 289.292 152.32 289.292 148.333C289.292 147.022 290.355 145.958 291.667 145.958C292.978 145.958 294.042 147.022 294.042 148.333C294.042 150.52 295.814 152.292 298 152.292C300.186 152.292 301.958 150.52 301.958 148.333C301.958 146.147 300.186 144.375 298 144.375C293.19 144.375 289.292 140.476 289.292 135.667C289.292 131.681 291.97 128.32 295.625 127.286V124.583C295.625 123.272 296.688 122.208 298 122.208Z" fill="#000080"/>
    <path fill-rule="evenodd" clip-rule="evenodd" d="M272.306 131.609C276.415 121.459 286.368 114.292 298 114.292C311.777 114.292 323.206 124.348 325.348 137.52L328.241 135.35C329.291 134.563 330.779 134.776 331.566 135.825C332.353 136.874 332.141 138.363 331.091 139.15L327.889 141.552C325.251 143.531 321.72 143.849 318.77 142.374L315.938 140.958C314.764 140.371 314.289 138.944 314.875 137.771C315.462 136.598 316.889 136.123 318.062 136.709L320.608 137.982C318.708 127.218 309.309 119.042 298 119.042C288.368 119.042 280.117 124.973 276.709 133.391C276.217 134.607 274.833 135.194 273.617 134.702C272.401 134.209 271.814 132.825 272.306 131.609ZM270.541 145.735C270.435 145.777 270.331 145.823 270.228 145.875L267.395 147.291C266.222 147.878 264.795 147.402 264.209 146.229C263.622 145.056 264.098 143.629 265.271 143.042L268.103 141.626C271.054 140.151 274.584 140.47 277.223 142.449L280.425 144.85C281.474 145.637 281.687 147.126 280.9 148.175C280.113 149.224 278.624 149.437 277.575 148.65L275.631 147.192C277.984 157.371 287.106 164.958 298 164.958C307.631 164.958 315.883 159.027 319.29 150.609C319.782 149.393 321.167 148.806 322.383 149.299C323.599 149.791 324.185 151.175 323.693 152.391C319.584 162.541 309.632 169.708 298 169.708C283.963 169.708 272.365 159.271 270.541 145.735Z" fill="#000080"/>
    <defs>
        <filter id="filter0_d_3493_29" x="66.5539" y="0.805193" width="197.609" height="284.779" filterUnits="userSpaceOnUse" color-interpolation-filters="sRGB">
            <feFlood flood-opacity="0" result="BackgroundImageFix"/>
            <feColorMatrix in="SourceAlpha" type="matrix" values="0 0 0 0 0 0 0 0 0 0 0 0 0 0 0 0 0 0 127 0" result="hardAlpha"/>
            <feOffset dy="1.19481"/>
            <feGaussianBlur stdDeviation="1.19481"/>
            <feComposite in2="hardAlpha" operator="out"/>
            <feColorMatrix type="matrix" values="0 0 0 0 0.0627451 0 0 0 0 0.0941176 0 0 0 0 0.156863 0 0 0 0.05 0"/>
            <feBlend mode="normal" in2="BackgroundImageFix" result="effect1_dropShadow_3493_29"/>
            <feBlend mode="normal" in="SourceGraphic" in2="effect1_dropShadow_3493_29" result="shape"/>
        </filter>
    </defs>
</svg>
