<svg width="213" height="232" viewBox="0 0 213 232" fill="none" xmlns="http://www.w3.org/2000/svg">
    <g filter="url(#filter0_d_0_1)">
        <rect x="66.8363" y="1" width="146" height="212" rx="7.08" transform="rotate(7 66.8363 1)" fill="white"/>
        <rect x="67.2301" y="1.50407" width="145.095" height="211.095" rx="6.62768" transform="rotate(7 67.2301 1.50407)" stroke="#EAECF0" stroke-width="0.904639"/>
    </g>
    <rect x="73.1924" y="14.8782" width="73" height="8" rx="4" transform="rotate(7 73.1924 14.8782)" fill="#EDF0F3"/>
    <rect x="66.8552" y="66.4905" width="128" height="8" rx="4" transform="rotate(7 66.8552 66.4905)" fill="#EDF0F3"/>
    <rect x="61.8585" y="107.185" width="128" height="8" rx="4" transform="rotate(7 61.8585 107.185)" fill="#EDF0F3"/>
    <rect x="71.6081" y="27.7812" width="73" height="8" rx="4" transform="rotate(7 71.6081 27.7812)" fill="#EDF0F3"/>
    <rect x="65.2709" y="79.3936" width="128" height="8" rx="4" transform="rotate(7 65.2709 79.3936)" fill="#EDF0F3"/>
    <rect x="60.2742" y="120.088" width="128" height="8" rx="4" transform="rotate(7 60.2742 120.088)" fill="#EDF0F3"/>
    <rect x="70.0238" y="40.6843" width="52" height="8" rx="4" transform="rotate(7 70.0238 40.6843)" fill="#EDF0F3"/>
    <rect x="63.6866" y="92.2966" width="91" height="8" rx="4" transform="rotate(7 63.6866 92.2966)" fill="#EDF0F3"/>
    <rect x="58.6899" y="132.991" width="91" height="8" rx="4" transform="rotate(7 58.6899 132.991)" fill="#EDF0F3"/>
    <rect x="52.9621" y="179.641" width="39" height="8" rx="4" transform="rotate(7 52.9621 179.641)" fill="#EDF0F3"/>
    <rect x="51.3777" y="192.544" width="25" height="8" rx="4" transform="rotate(7 51.3777 192.544)" fill="#EDF0F3"/>
    <rect x="153.61" y="205.096" width="25" height="8" rx="4" transform="rotate(7 153.61 205.096)" fill="#EDF0F3"/>
    <g filter="url(#filter1_d_0_1)">
        <rect x="2" y="9" width="146" height="212" rx="7.08" fill="white"/>
        <rect x="2.45232" y="9.45232" width="145.095" height="211.095" rx="6.62768" stroke="#EAECF0" stroke-width="0.904639"/>
    </g>
    <rect x="10" y="22" width="73" height="8" rx="4" fill="#EDF0F3"/>
    <rect x="10" y="74" width="128" height="8" rx="4" fill="#EDF0F3"/>
    <rect x="10" y="115" width="128" height="8" rx="4" fill="#EDF0F3"/>
    <rect x="10" y="35" width="73" height="8" rx="4" fill="#EDF0F3"/>
    <rect x="10" y="87" width="128" height="8" rx="4" fill="#EDF0F3"/>
    <rect x="10" y="128" width="128" height="8" rx="4" fill="#EDF0F3"/>
    <rect x="10" y="48" width="52" height="8" rx="4" fill="#EDF0F3"/>
    <rect x="10" y="100" width="91" height="8" rx="4" fill="#EDF0F3"/>
    <rect x="10" y="141" width="91" height="8" rx="4" fill="#EDF0F3"/>
    <rect x="10" y="188" width="39" height="8" rx="4" fill="#EDF0F3"/>
    <rect x="10" y="201" width="25" height="8" rx="4" fill="#EDF0F3"/>
    <rect x="113" y="201" width="25" height="8" rx="4" fill="#EDF0F3"/>
    <defs>
        <filter id="filter0_d_0_1" x="40" y="0.904687" width="172.748" height="230.213" filterUnits="userSpaceOnUse" color-interpolation-filters="sRGB">
            <feFlood flood-opacity="0" result="BackgroundImageFix"/>
            <feColorMatrix in="SourceAlpha" type="matrix" values="0 0 0 0 0 0 0 0 0 0 0 0 0 0 0 0 0 0 127 0" result="hardAlpha"/>
            <feOffset dy="0.904639"/>
            <feGaussianBlur stdDeviation="0.904639"/>
            <feComposite in2="hardAlpha" operator="out"/>
            <feColorMatrix type="matrix" values="0 0 0 0 0.0627451 0 0 0 0 0.0941176 0 0 0 0 0.156863 0 0 0 0.05 0"/>
            <feBlend mode="normal" in2="BackgroundImageFix" result="effect1_dropShadow_0_1"/>
            <feBlend mode="normal" in="SourceGraphic" in2="effect1_dropShadow_0_1" result="shape"/>
        </filter>
        <filter id="filter1_d_0_1" x="0.190722" y="8.09536" width="149.619" height="215.619" filterUnits="userSpaceOnUse" color-interpolation-filters="sRGB">
            <feFlood flood-opacity="0" result="BackgroundImageFix"/>
            <feColorMatrix in="SourceAlpha" type="matrix" values="0 0 0 0 0 0 0 0 0 0 0 0 0 0 0 0 0 0 127 0" result="hardAlpha"/>
            <feOffset dy="0.904639"/>
            <feGaussianBlur stdDeviation="0.904639"/>
            <feComposite in2="hardAlpha" operator="out"/>
            <feColorMatrix type="matrix" values="0 0 0 0 0.0627451 0 0 0 0 0.0941176 0 0 0 0 0.156863 0 0 0 0.05 0"/>
            <feBlend mode="normal" in2="BackgroundImageFix" result="effect1_dropShadow_0_1"/>
            <feBlend mode="normal" in="SourceGraphic" in2="effect1_dropShadow_0_1" result="shape"/>
        </filter>
    </defs>
</svg>
