<svg width="152" height="39" viewBox="0 0 152 39" fill="none" xmlns="http://www.w3.org/2000/svg">
<path d="M18.0158 3.64233C15.1211 3.64233 12.7831 5.95189 12.7831 8.81133C12.7831 11.6488 15.1211 13.9583 17.9935 13.9803C17.281 13.9583 16.7243 13.3865 16.7243 12.6826C16.7243 11.9787 17.3032 11.3848 18.038 11.3848C21.1553 11.3848 28.0802 11.3848 31.1307 11.3848C33.2905 11.3848 35.0496 9.64718 35.0496 7.51361C35.0496 5.38 33.2905 3.64233 31.1307 3.64233L18.0158 3.64233Z" fill="#ACB2B8"/>
<path opacity="0.9" d="M11.6539 13.9802C8.75927 13.9802 6.4213 16.2898 6.4213 19.1492C6.4213 21.9867 8.75927 24.2962 11.6316 24.3182C10.9191 24.2962 10.3625 23.7243 10.3625 23.0205C10.3625 22.3166 10.9414 21.7227 11.6762 21.7227C14.7935 21.7227 21.7184 21.7227 24.7689 21.7227C26.9287 21.7227 28.6877 19.9851 28.6877 17.8515C28.6877 15.7179 26.9287 13.9802 24.7689 13.9802L11.6539 13.9802Z" fill="#ACB2B8"/>
<path opacity="0.8" d="M7.25628 24.3184C4.15488 24.3184 1.6499 26.8056 1.6499 29.885C1.6499 32.9407 4.15488 35.4279 7.2324 35.4516C6.46899 35.4279 5.87258 34.812 5.87258 34.054C5.87258 33.296 6.49287 32.6564 7.28015 32.6564C10.6201 32.6564 18.0396 32.6564 21.308 32.6564C23.6221 32.6564 25.5068 30.7851 25.5068 28.4874C25.5068 26.1897 23.6221 24.3184 21.308 24.3184L7.25628 24.3184Z" fill="#ACB2B8"/>
<path d="M42.986 27.4271V10.7273H53.7216V13.5901H46.1351V17.5742H53.0536V20.4371H46.1351V24.5643H53.8647V27.4271H42.986Z" fill="#ACB2B8"/>
<path d="M55.0984 32.1985V15.5941H58.0567V17.0255H58.4861C58.7565 16.5643 59.1779 16.1587 59.7505 15.8088C60.3231 15.443 61.1422 15.2601 62.2078 15.2601C63.162 15.2601 64.0447 15.4987 64.8559 15.9758C65.667 16.4371 66.3191 17.121 66.8121 18.0275C67.3052 18.9341 67.5517 20.0315 67.5517 21.3198V21.7015C67.5517 22.9898 67.3052 24.0872 66.8121 24.9937C66.3191 25.9003 65.667 26.5922 64.8559 27.0693C64.0447 27.5305 63.162 27.7611 62.2078 27.7611C61.4921 27.7611 60.8877 27.6737 60.3946 27.4987C59.9175 27.3397 59.5278 27.1329 59.2257 26.8784C58.9394 26.6081 58.7088 26.3377 58.5338 26.0673H58.1044V32.1985H55.0984ZM61.3012 25.1369C62.2396 25.1369 63.0109 24.8426 63.6153 24.2542C64.2356 23.6498 64.5457 22.775 64.5457 21.6299V21.3913C64.5457 20.2462 64.2356 19.3794 63.6153 18.7909C62.995 18.1866 62.2237 17.8844 61.3012 17.8844C60.3787 17.8844 59.6074 18.1866 58.9871 18.7909C58.3668 19.3794 58.0567 20.2462 58.0567 21.3913V21.6299C58.0567 22.775 58.3668 23.6498 58.9871 24.2542C59.6074 24.8426 60.3787 25.1369 61.3012 25.1369Z" fill="#ACB2B8"/>
<path d="M69.119 27.4271V15.5941H72.125V27.4271H69.119ZM70.622 14.2104C70.0812 14.2104 69.62 14.0355 69.2383 13.6856C68.8725 13.3357 68.6896 12.8744 68.6896 12.3019C68.6896 11.7293 68.8725 11.2681 69.2383 10.9182C69.62 10.5683 70.0812 10.3933 70.622 10.3933C71.1786 10.3933 71.6399 10.5683 72.0057 10.9182C72.3715 11.2681 72.5544 11.7293 72.5544 12.3019C72.5544 12.8744 72.3715 13.3357 72.0057 13.6856C71.6399 14.0355 71.1786 14.2104 70.622 14.2104Z" fill="#ACB2B8"/>
<path d="M79.8218 27.7611C78.6767 27.7611 77.6349 27.5226 76.6965 27.0454C75.7741 26.5683 75.0425 25.8764 74.5017 24.9699C73.961 24.0633 73.6906 22.9659 73.6906 21.6776V21.3436C73.6906 20.0554 73.961 18.9579 74.5017 18.0514C75.0425 17.1448 75.7741 16.453 76.6965 15.9758C77.6349 15.4987 78.6767 15.2601 79.8218 15.2601C80.951 15.2601 81.9212 15.4589 82.7323 15.8565C83.5435 16.2542 84.1956 16.8029 84.6886 17.5027C85.1976 18.1866 85.5316 18.9659 85.6906 19.8406L82.7801 20.4609C82.7164 19.9838 82.5733 19.5544 82.3506 19.1727C82.128 18.7909 81.8099 18.4888 81.3964 18.2661C80.9987 18.0434 80.4977 17.9321 79.8934 17.9321C79.289 17.9321 78.7403 18.0673 78.2472 18.3377C77.7701 18.5921 77.3884 18.9818 77.1021 19.5066C76.8317 20.0156 76.6965 20.6438 76.6965 21.3913V21.6299C76.6965 22.3774 76.8317 23.0136 77.1021 23.5385C77.3884 24.0474 77.7701 24.4371 78.2472 24.7075C78.7403 24.9619 79.289 25.0892 79.8934 25.0892C80.7999 25.0892 81.4838 24.8586 81.9451 24.3973C82.4222 23.9202 82.7244 23.2999 82.8516 22.5365L85.7622 23.2283C85.5554 24.0713 85.1976 24.8426 84.6886 25.5424C84.1956 26.2263 83.5435 26.7671 82.7323 27.1647C81.9212 27.5623 80.951 27.7611 79.8218 27.7611Z" fill="#ACB2B8"/>
<path d="M91.5579 27.618C90.6354 27.618 89.8243 27.4112 89.1245 26.9977C88.4406 26.5683 87.9078 25.9798 87.5261 25.2323C87.1444 24.4848 86.9535 23.6259 86.9535 22.6558V15.5941H89.9595V22.4172C89.9595 23.3079 90.1742 23.9758 90.6036 24.4212C91.049 24.8665 91.6772 25.0892 92.4883 25.0892C93.4108 25.0892 94.1265 24.787 94.6354 24.1826C95.1444 23.5623 95.3989 22.7035 95.3989 21.6061V15.5941H98.4048V27.4271H95.4466V25.8764H95.0172C94.8263 26.2741 94.4685 26.6637 93.9436 27.0454C93.4188 27.4271 92.6235 27.618 91.5579 27.618Z" fill="#ACB2B8"/>
<path d="M100.557 27.4271V15.5941H103.515V16.9301H103.945C104.12 16.453 104.406 16.1031 104.804 15.8804C105.217 15.6577 105.694 15.5464 106.235 15.5464H107.666V18.2184H106.187C105.424 18.2184 104.796 18.4251 104.303 18.8387C103.809 19.2363 103.563 19.8566 103.563 20.6995V27.4271H100.557Z" fill="#ACB2B8"/>
<path d="M108.823 27.4271V15.5941H111.829V27.4271H108.823ZM110.326 14.2104C109.785 14.2104 109.324 14.0355 108.942 13.6856C108.577 13.3357 108.394 12.8744 108.394 12.3019C108.394 11.7293 108.577 11.2681 108.942 10.9182C109.324 10.5683 109.785 10.3933 110.326 10.3933C110.883 10.3933 111.344 10.5683 111.71 10.9182C112.076 11.2681 112.258 11.7293 112.258 12.3019C112.258 12.8744 112.076 13.3357 111.71 13.6856C111.344 14.0355 110.883 14.2104 110.326 14.2104Z" fill="#ACB2B8"/>
<path d="M119.597 27.7611C118.42 27.7611 117.363 27.5226 116.424 27.0454C115.486 26.5683 114.747 25.8764 114.206 24.9699C113.665 24.0633 113.395 22.9739 113.395 21.7015V21.3198C113.395 20.0474 113.665 18.9579 114.206 18.0514C114.747 17.1448 115.486 16.453 116.424 15.9758C117.363 15.4987 118.42 15.2601 119.597 15.2601C120.774 15.2601 121.832 15.4987 122.77 15.9758C123.709 16.453 124.448 17.1448 124.989 18.0514C125.53 18.9579 125.8 20.0474 125.8 21.3198V21.7015C125.8 22.9739 125.53 24.0633 124.989 24.9699C124.448 25.8764 123.709 26.5683 122.77 27.0454C121.832 27.5226 120.774 27.7611 119.597 27.7611ZM119.597 25.0892C120.52 25.0892 121.283 24.7949 121.888 24.2065C122.492 23.6021 122.794 22.7432 122.794 21.6299V21.3913C122.794 20.278 122.492 19.4271 121.888 18.8387C121.299 18.2343 120.536 17.9321 119.597 17.9321C118.675 17.9321 117.912 18.2343 117.307 18.8387C116.703 19.4271 116.401 20.278 116.401 21.3913V21.6299C116.401 22.7432 116.703 23.6021 117.307 24.2065C117.912 24.7949 118.675 25.0892 119.597 25.0892Z" fill="#ACB2B8"/>
<path d="M131.891 27.618C130.969 27.618 130.157 27.4112 129.458 26.9977C128.774 26.5683 128.241 25.9798 127.859 25.2323C127.477 24.4848 127.287 23.6259 127.287 22.6558V15.5941H130.293V22.4172C130.293 23.3079 130.507 23.9758 130.937 24.4212C131.382 24.8665 132.01 25.0892 132.821 25.0892C133.744 25.0892 134.46 24.787 134.969 24.1826C135.477 23.5623 135.732 22.7035 135.732 21.6061V15.5941H138.738V27.4271H135.78V25.8764H135.35C135.159 26.2741 134.802 26.6637 134.277 27.0454C133.752 27.4271 132.957 27.618 131.891 27.618Z" fill="#ACB2B8"/>
<path d="M145.805 27.7611C144.262 27.7611 142.997 27.4271 142.011 26.7592C141.025 26.0912 140.429 25.1369 140.222 23.8963L142.989 23.1806C143.101 23.7373 143.284 24.1747 143.538 24.4927C143.809 24.8108 144.135 25.0415 144.516 25.1846C144.914 25.3118 145.343 25.3755 145.805 25.3755C146.504 25.3755 147.021 25.2562 147.355 25.0176C147.689 24.7631 147.856 24.453 147.856 24.0872C147.856 23.7214 147.697 23.443 147.379 23.2522C147.061 23.0454 146.552 22.8784 145.852 22.7512L145.184 22.6319C144.357 22.4729 143.602 22.2581 142.918 21.9878C142.234 21.7015 141.685 21.3118 141.272 20.8188C140.858 20.3257 140.652 19.6896 140.652 18.9102C140.652 17.7333 141.081 16.8347 141.94 16.2144C142.799 15.5782 143.928 15.2601 145.327 15.2601C146.648 15.2601 147.745 15.5544 148.62 16.1428C149.494 16.7313 150.067 17.5027 150.337 18.4569L147.546 19.3158C147.419 18.7114 147.157 18.282 146.759 18.0275C146.377 17.773 145.9 17.6458 145.327 17.6458C144.755 17.6458 144.318 17.7492 144.015 17.956C143.713 18.1468 143.562 18.4172 143.562 18.7671C143.562 19.1488 143.721 19.4351 144.039 19.6259C144.357 19.8009 144.787 19.9361 145.327 20.0315L145.995 20.1508C146.886 20.3098 147.689 20.5245 148.405 20.7949C149.137 21.0494 149.709 21.4232 150.123 21.9162C150.552 22.3933 150.767 23.0454 150.767 23.8725C150.767 25.113 150.314 26.0753 149.407 26.7592C148.516 27.4271 147.316 27.7611 145.805 27.7611Z" fill="#ACB2B8"/>
</svg>
