<svg width="158" height="39" viewBox="0 0 158 39" fill="none" xmlns="http://www.w3.org/2000/svg">
<path opacity="0.8" d="M29.3063 8.87733C28.9626 8.53362 28.6188 8.1899 28.2751 7.84619C27.244 6.7463 26.1441 5.64642 24.7692 4.95899C23.1882 4.13407 21.4696 4.3403 19.751 4.3403C17.1388 4.3403 10.6082 4.3403 6.7586 4.3403L9.37083 7.84619C14.1141 7.84619 21.5383 7.84619 24.9755 7.84619C26.4191 7.84619 27.6564 8.12116 28.8251 8.87733C29.0313 8.94607 29.2375 8.94607 29.3063 8.87733Z" fill="#ACB2B8"/>
<path opacity="0.9" d="M32.1935 14.5143C31.8497 14.1706 31.506 13.8269 31.1623 13.4831C30.1312 12.3833 29.0313 11.2834 27.6564 10.5959C26.0753 9.77103 24.3568 9.97726 22.6382 9.97726C20.3697 9.97726 14.939 9.97726 11.0894 9.97726L13.7016 13.4831C18.3761 13.4831 24.7692 13.4831 27.9314 13.4831C29.375 13.4831 30.6124 13.7581 31.781 14.5143C31.9185 14.583 32.056 14.583 32.1935 14.5143Z" fill="#ACB2B8"/>
<path d="M35.4244 20.0136C35.0806 19.6698 34.7369 19.3261 34.3932 18.9824C33.3621 17.8825 32.2622 16.7826 30.8873 16.0952C29.3062 15.2703 27.5877 15.4765 25.8691 15.4765C23.7381 15.4765 19.0636 15.4765 15.2827 15.4765L17.8949 18.9824C22.4319 18.9824 28.2064 18.9824 31.0936 18.9824C32.5372 18.9824 33.7745 19.2574 34.9432 20.0136C35.1494 20.0823 35.2869 20.1511 35.4244 20.0136Z" fill="#ACB2B8"/>
<path opacity="0.8" d="M6.48363 29.2937C6.82735 29.6375 7.17106 29.9812 7.51478 30.3249C8.54592 31.4248 9.6458 32.5246 11.0207 33.2121C12.6017 34.037 14.3203 33.8308 16.0389 33.8308H29.0313L26.4191 30.3249C21.6758 30.3249 14.2516 30.3249 10.8144 30.3249C9.37084 30.3249 8.13346 30.0499 6.96483 29.2937C6.7586 29.225 6.62112 29.225 6.48363 29.2937Z" fill="#ACB2B8"/>
<path opacity="0.9" d="M3.59641 23.657C3.94012 24.0007 4.28383 24.3445 4.62755 24.6882C5.65869 25.7881 6.75857 26.888 8.13343 27.5754C9.71452 28.4003 11.4331 28.1941 13.1517 28.1941H24.7005L22.0882 24.6882C17.4137 24.6882 11.0206 24.6882 7.85846 24.6882C6.41486 24.6882 5.17749 24.4132 4.00886 23.657C3.87137 23.5883 3.73389 23.5883 3.59641 23.657Z" fill="#ACB2B8"/>
<path d="M0.434204 18.0887C0.777919 18.4324 1.12163 18.7761 1.46535 19.1198C2.49649 20.2197 3.59638 21.3196 4.97124 22.007C6.55233 22.8319 8.27089 22.6257 9.98946 22.6257H20.5759L17.9636 19.1198C13.4266 19.1198 7.65221 19.1198 4.76501 19.1198C3.32141 19.1198 2.08403 18.8448 0.915402 18.0887C0.709174 18.0199 0.57169 18.0199 0.434204 18.0887Z" fill="#ACB2B8"/>
<path d="M43.3226 11.1396V27.0379H46.8184V20.4693H53.4761V17.7528H46.8184V14.0788H54.5003V11.1396H43.3226Z" fill="#ACB2B8"/>
<path d="M63.2683 20.0462H58.1247C58.1395 19.8236 58.1841 19.5712 58.2583 19.2892C58.3474 19.0071 58.4884 18.7399 58.6814 18.4876C58.8892 18.2352 59.1564 18.0274 59.483 17.8641C59.8244 17.686 60.2474 17.5969 60.7521 17.5969C61.524 17.5969 62.0956 17.8047 62.4667 18.2204C62.8526 18.636 63.1198 19.2446 63.2683 20.0462ZM58.1247 22.0502H66.4301C66.4895 21.1596 66.4152 20.306 66.2074 19.4896C65.9996 18.6731 65.6582 17.9458 65.1832 17.3075C64.723 16.6692 64.1292 16.1644 63.4019 15.7933C62.6745 15.4074 61.8209 15.2144 60.8412 15.2144C59.9654 15.2144 59.1638 15.3703 58.4364 15.682C57.7239 15.9937 57.1079 16.4242 56.5883 16.9735C56.0688 17.5079 55.668 18.1462 55.3859 18.8884C55.1039 19.6306 54.9629 20.4322 54.9629 21.2931C54.9629 22.1838 55.0965 23.0002 55.3637 23.7425C55.6457 24.4847 56.0391 25.123 56.5438 25.6574C57.0485 26.1918 57.6645 26.6074 58.3919 26.9043C59.1193 27.1863 59.9357 27.3274 60.8412 27.3274C62.1475 27.3274 63.2608 27.0305 64.1812 26.4367C65.1015 25.8429 65.7844 24.8558 66.2297 23.4753H63.4464C63.3425 23.8315 63.0604 24.1729 62.6003 24.4995C62.1401 24.8112 61.5908 24.9671 60.9525 24.9671C60.0619 24.9671 59.379 24.737 58.904 24.2769C58.429 23.8167 58.1692 23.0745 58.1247 22.0502Z" fill="#ACB2B8"/>
<path d="M67.5038 19.0665C67.5483 18.3243 67.7338 17.7083 68.0604 17.2184C68.387 16.7285 68.8026 16.3352 69.3073 16.0383C69.812 15.7414 70.3761 15.5336 70.9996 15.4148C71.6379 15.2812 72.2762 15.2144 72.9145 15.2144C73.4934 15.2144 74.0798 15.2589 74.6735 15.348C75.2673 15.4222 75.8091 15.5781 76.299 15.8156C76.7889 16.0531 77.1897 16.3871 77.5014 16.8176C77.8131 17.2332 77.969 17.7899 77.969 18.4876V24.4773C77.969 24.9968 77.9987 25.4941 78.058 25.9691C78.1174 26.4441 78.2213 26.8004 78.3698 27.0379H75.1634C75.104 26.8598 75.0521 26.6816 75.0075 26.5035C74.9779 26.3105 74.9556 26.1175 74.9407 25.9246C74.436 26.4441 73.8423 26.8078 73.1594 27.0156C72.4766 27.2234 71.7789 27.3274 71.0664 27.3274C70.5171 27.3274 70.005 27.2606 69.53 27.127C69.055 26.9934 68.6393 26.7855 68.2831 26.5035C67.9268 26.2215 67.6448 25.8652 67.437 25.4347C67.244 25.0042 67.1475 24.4921 67.1475 23.8983C67.1475 23.2452 67.2588 22.7108 67.4815 22.2951C67.719 21.8647 68.0159 21.5232 68.3721 21.2709C68.7433 21.0185 69.1589 20.833 69.6191 20.7142C70.0941 20.5806 70.5691 20.4767 71.0441 20.4025C71.5191 20.3283 71.9867 20.2689 72.4469 20.2244C72.9071 20.1798 73.3153 20.113 73.6716 20.024C74.0278 19.9349 74.3099 19.8087 74.5177 19.6454C74.7255 19.4673 74.822 19.2149 74.8071 18.8884C74.8071 18.547 74.7478 18.2798 74.629 18.0868C74.5251 17.879 74.3767 17.7231 74.1837 17.6192C74.0056 17.5004 73.7903 17.4262 73.538 17.3965C73.3004 17.352 73.0407 17.3297 72.7586 17.3297C72.1352 17.3297 71.6453 17.4633 71.289 17.7305C70.9328 17.9977 70.725 18.443 70.6656 19.0665H67.5038ZM74.8071 21.4045C74.6735 21.5232 74.5028 21.6197 74.295 21.6939C74.102 21.7533 73.8868 21.8053 73.6493 21.8498C73.4266 21.8943 73.1891 21.9315 72.9368 21.9611C72.6844 21.9908 72.4321 22.0279 72.1797 22.0725C71.9422 22.117 71.7047 22.1764 71.4672 22.2506C71.2445 22.3248 71.0441 22.4287 70.866 22.5623C70.7027 22.6811 70.5691 22.837 70.4652 23.0299C70.3613 23.2229 70.3093 23.4678 70.3093 23.7647C70.3093 24.0468 70.3613 24.2843 70.4652 24.4773C70.5691 24.6702 70.7101 24.8261 70.8883 24.9448C71.0664 25.0488 71.2742 25.123 71.5117 25.1675C71.7492 25.212 71.9942 25.2343 72.2465 25.2343C72.87 25.2343 73.3524 25.1304 73.6938 24.9226C74.0352 24.7148 74.2876 24.4698 74.4509 24.1878C74.6142 23.8909 74.7107 23.594 74.7403 23.2971C74.7849 23.0002 74.8071 22.7627 74.8071 22.5846V21.4045Z" fill="#ACB2B8"/>
<path d="M83.7631 15.5261V12.0748H80.6013V15.5261H78.6864V17.6415H80.6013V24.4327C80.6013 25.0116 80.6978 25.4792 80.8908 25.8355C81.0837 26.1918 81.3435 26.4664 81.6701 26.6594C82.0115 26.8523 82.3975 26.9785 82.8279 27.0379C83.2733 27.1121 83.7409 27.1492 84.2307 27.1492C84.5425 27.1492 84.8616 27.1418 85.1882 27.127C85.5148 27.1121 85.8116 27.0824 86.0788 27.0379V24.5886C85.9304 24.6183 85.7745 24.6405 85.6112 24.6554C85.448 24.6702 85.2772 24.6777 85.0991 24.6777C84.5647 24.6777 84.2085 24.5886 84.0303 24.4105C83.8522 24.2323 83.7631 23.8761 83.7631 23.3417V17.6415H86.0788V15.5261H83.7631Z" fill="#ACB2B8"/>
<path d="M86.9152 11.1396V27.0379H90.0771V21.0037C90.0771 19.831 90.27 18.9923 90.656 18.4876C91.0419 17.968 91.6654 17.7083 92.5264 17.7083C93.2834 17.7083 93.8104 17.9458 94.1073 18.4208C94.4042 18.881 94.5526 19.5861 94.5526 20.5361V27.0379H97.7145V19.9572C97.7145 19.2446 97.6477 18.5989 97.5141 18.02C97.3953 17.4262 97.1801 16.9289 96.8683 16.5281C96.5566 16.1125 96.1261 15.7933 95.5769 15.5707C95.0425 15.3332 94.3522 15.2144 93.5061 15.2144C92.9123 15.2144 92.3037 15.3703 91.6802 15.682C91.0568 15.9789 90.5447 16.4613 90.1439 17.1293H90.0771V11.1396H86.9152Z" fill="#ACB2B8"/>
<path d="M107.195 20.0462H102.051C102.066 19.8236 102.111 19.5712 102.185 19.2892C102.274 19.0071 102.415 18.7399 102.608 18.4876C102.816 18.2352 103.083 18.0274 103.41 17.8641C103.751 17.686 104.174 17.5969 104.679 17.5969C105.451 17.5969 106.022 17.8047 106.393 18.2204C106.779 18.636 107.046 19.2446 107.195 20.0462ZM102.051 22.0502H110.357C110.416 21.1596 110.342 20.306 110.134 19.4896C109.926 18.6731 109.585 17.9458 109.11 17.3075C108.65 16.6692 108.056 16.1644 107.329 15.7933C106.601 15.4074 105.748 15.2144 104.768 15.2144C103.892 15.2144 103.09 15.3703 102.363 15.682C101.651 15.9937 101.035 16.4242 100.515 16.9735C99.9954 17.5079 99.5946 18.1462 99.3126 18.8884C99.0306 19.6306 98.8895 20.4322 98.8895 21.2931C98.8895 22.1838 99.0231 23.0002 99.2903 23.7425C99.5724 24.4847 99.9657 25.123 100.47 25.6574C100.975 26.1918 101.591 26.6074 102.319 26.9043C103.046 27.1863 103.862 27.3274 104.768 27.3274C106.074 27.3274 107.187 27.0305 108.108 26.4367C109.028 25.8429 109.711 24.8558 110.156 23.4753H107.373C107.269 23.8315 106.987 24.1729 106.527 24.4995C106.067 24.8112 105.518 24.9671 104.879 24.9671C103.989 24.9671 103.306 24.737 102.831 24.2769C102.356 23.8167 102.096 23.0745 102.051 22.0502Z" fill="#ACB2B8"/>
<path d="M111.564 15.5261V27.0379H114.726V21.8498C114.726 21.3303 114.778 20.8478 114.882 20.4025C114.986 19.9572 115.156 19.5712 115.394 19.2446C115.646 18.9032 115.973 18.636 116.374 18.443C116.774 18.2501 117.264 18.1536 117.843 18.1536C118.036 18.1536 118.237 18.1684 118.444 18.1981C118.652 18.213 118.83 18.2352 118.979 18.2649V15.3257C118.726 15.2515 118.496 15.2144 118.288 15.2144C117.888 15.2144 117.502 15.2738 117.131 15.3925C116.76 15.5113 116.411 15.682 116.084 15.9047C115.758 16.1125 115.468 16.3723 115.216 16.684C114.963 16.9809 114.763 17.3075 114.615 17.6637H114.57V15.5261H111.564Z" fill="#ACB2B8"/>
<path d="M123.38 24.0987V14.0788H125.874C126.735 14.0788 127.455 14.205 128.034 14.4574C128.628 14.6949 129.103 15.0437 129.459 15.5039C129.815 15.964 130.068 16.5207 130.216 17.1739C130.379 17.8122 130.461 18.5321 130.461 19.3337C130.461 20.2095 130.35 20.9517 130.127 21.5603C129.904 22.169 129.607 22.6662 129.236 23.0522C128.865 23.4233 128.442 23.6905 127.967 23.8538C127.492 24.0171 127.002 24.0987 126.497 24.0987H123.38ZM119.884 11.1396V27.0379H126.742C127.96 27.0379 129.014 26.8375 129.904 26.4367C130.81 26.0211 131.559 25.457 132.153 24.7444C132.762 24.0319 133.215 23.1858 133.511 22.2061C133.808 21.2263 133.957 20.1576 133.957 18.9997C133.957 17.6786 133.771 16.5281 133.4 15.5484C133.044 14.5687 132.539 13.7522 131.886 13.0991C131.248 12.4459 130.483 11.9561 129.593 11.6295C128.717 11.3029 127.767 11.1396 126.742 11.1396H119.884Z" fill="#ACB2B8"/>
<path d="M143.135 20.0462H137.992C138.007 19.8236 138.051 19.5712 138.125 19.2892C138.214 19.0071 138.355 18.7399 138.548 18.4876C138.756 18.2352 139.023 18.0274 139.35 17.8641C139.691 17.686 140.114 17.5969 140.619 17.5969C141.391 17.5969 141.963 17.8047 142.334 18.2204C142.72 18.636 142.987 19.2446 143.135 20.0462ZM137.992 22.0502H146.297C146.356 21.1596 146.282 20.306 146.074 19.4896C145.867 18.6731 145.525 17.9458 145.05 17.3075C144.59 16.6692 143.996 16.1644 143.269 15.7933C142.541 15.4074 141.688 15.2144 140.708 15.2144C139.832 15.2144 139.031 15.3703 138.303 15.682C137.591 15.9937 136.975 16.4242 136.455 16.9735C135.936 17.5079 135.535 18.1462 135.253 18.8884C134.971 19.6306 134.83 20.4322 134.83 21.2931C134.83 22.1838 134.963 23.0002 135.231 23.7425C135.513 24.4847 135.906 25.123 136.411 25.6574C136.915 26.1918 137.531 26.6074 138.259 26.9043C138.986 27.1863 139.803 27.3274 140.708 27.3274C142.014 27.3274 143.128 27.0305 144.048 26.4367C144.968 25.8429 145.651 24.8558 146.097 23.4753H143.313C143.209 23.8315 142.927 24.1729 142.467 24.4995C142.007 24.8112 141.458 24.9671 140.82 24.9671C139.929 24.9671 139.246 24.737 138.771 24.2769C138.296 23.8167 138.036 23.0745 137.992 22.0502Z" fill="#ACB2B8"/>
<path d="M153.873 27.0379L157.769 15.5261H154.63L152.203 23.3862H152.158L149.731 15.5261H146.413L150.354 27.0379H153.873Z" fill="#ACB2B8"/>
</svg>
