<svg width="58" height="58" viewBox="0 0 58 58" fill="none" xmlns="http://www.w3.org/2000/svg">
<path opacity="0.4" d="M7.25 14.4999L7.25 43.4999C7.25 48.8387 11.5779 53.1666 16.9167 53.1666H31.4167L50.75 33.8333V14.4999C50.75 9.16117 46.4221 4.83325 41.0833 4.83325L16.9167 4.83325C11.5779 4.83325 7.25 9.16117 7.25 14.4999Z" fill="#000080"/>
<path d="M31.4167 43.4999L31.4167 53.1666L50.75 33.8333L41.0833 33.8333C35.7446 33.8333 31.4167 38.1612 31.4167 43.4999Z" fill="#000080"/>
<path fill-rule="evenodd" clip-rule="evenodd" d="M27.1875 18.9181C27.0747 19.0029 26.9666 19.0966 26.8639 19.1992L23.0316 23.0315C22.3238 23.7394 21.1762 23.7394 20.4684 23.0315C19.7605 22.3237 19.7605 21.1761 20.4684 20.4683L24.3007 16.636C26.896 14.0406 31.104 14.0406 33.6993 16.636L37.5316 20.4683C38.2395 21.1761 38.2395 22.3237 37.5316 23.0315C36.8238 23.7394 35.6762 23.7394 34.9684 23.0315L31.1361 19.1992C31.0334 19.0966 30.9253 19.0029 30.8125 18.9181V28.9999C30.8125 30.0009 30.001 30.8124 29 30.8124C27.999 30.8124 27.1875 30.0009 27.1875 28.9999V18.9181Z" fill="#000080"/>
</svg>
