<svg width="309" height="242" viewBox="0 0 309 242" fill="none" xmlns="http://www.w3.org/2000/svg">
    <g filter="url(#filter0_d_0_1)">
        <rect x="158.865" y="24" width="173.361" height="251.73" rx="7.08" transform="rotate(30 158.865 24)" fill="white"/>
        <rect x="159.03" y="24.6179" width="172.456" height="250.825" rx="6.62768" transform="rotate(30 159.03 24.6179)" stroke="#EAECF0" stroke-width="0.904639"/>
    </g>
    <rect x="159.373" y="42.1177" width="86.6805" height="9.49924" rx="4.74962" transform="rotate(30 159.373 42.1177)" fill="#EDF0F3"/>
    <rect x="128.501" y="95.5906" width="151.988" height="9.49924" rx="4.74962" transform="rotate(30 128.501 95.5906)" fill="#EDF0F3"/>
    <rect x="104.159" y="137.752" width="151.988" height="9.49924" rx="4.74962" transform="rotate(30 104.159 137.752)" fill="#EDF0F3"/>
    <rect x="151.655" y="55.4858" width="86.6805" height="9.49924" rx="4.74962" transform="rotate(30 151.655 55.4858)" fill="#EDF0F3"/>
    <rect x="120.783" y="108.959" width="151.988" height="9.49924" rx="4.74962" transform="rotate(30 120.783 108.959)" fill="#EDF0F3"/>
    <rect x="96.4409" y="151.12" width="151.988" height="9.49924" rx="4.74962" transform="rotate(30 96.4409 151.12)" fill="#EDF0F3"/>
    <rect x="143.937" y="68.854" width="61.745" height="9.49924" rx="4.74962" transform="rotate(30 143.937 68.854)" fill="#EDF0F3"/>
    <rect x="113.065" y="122.327" width="108.054" height="9.49924" rx="4.74962" transform="rotate(30 113.065 122.327)" fill="#EDF0F3"/>
    <rect x="88.7228" y="164.488" width="108.054" height="9.49924" rx="4.74962" transform="rotate(30 88.7228 164.488)" fill="#EDF0F3"/>
    <rect x="60.8188" y="212.819" width="46.3088" height="9.49924" rx="4.74962" transform="rotate(30 60.8188 212.819)" fill="#EDF0F3"/>
    <rect x="53.1007" y="226.188" width="29.6851" height="9.49924" rx="4.74962" transform="rotate(30 53.1007 226.188)" fill="#EDF0F3"/>
    <g filter="url(#filter1_d_0_1)">
        <circle cx="104.5" cy="84.5" r="60.5" fill="white"/>
        <circle cx="104.5" cy="84.5" r="60" stroke="#EAECF0"/>
    </g>
    <path opacity="0.4" fill-rule="evenodd" clip-rule="evenodd" d="M104.5 65.3198C105.771 65.3198 106.802 66.3503 106.802 67.6215V70.2408C110.344 71.2426 112.939 74.4994 112.939 78.3624C112.939 79.6336 111.909 80.664 110.638 80.664C109.367 80.664 108.336 79.6336 108.336 78.3624C108.336 76.2438 106.619 74.5263 104.5 74.5263C102.381 74.5263 100.664 76.2438 100.664 78.3624C100.664 80.481 102.381 82.1985 104.5 82.1985C109.161 82.1985 112.939 85.9769 112.939 90.6378C112.939 94.5008 110.344 97.7575 106.802 98.7594V101.379C106.802 102.65 105.771 103.68 104.5 103.68C103.229 103.68 102.198 102.65 102.198 101.379V98.7594C98.6562 97.7575 96.0607 94.5008 96.0607 90.6378C96.0607 89.3666 97.0912 88.3361 98.3624 88.3361C99.6335 88.3361 100.664 89.3666 100.664 90.6378C100.664 92.7564 102.381 94.4738 104.5 94.4738C106.619 94.4738 108.336 92.7564 108.336 90.6378C108.336 88.5192 106.619 86.8017 104.5 86.8017C99.8392 86.8017 96.0607 83.0233 96.0607 78.3624C96.0607 74.4994 98.6562 71.2426 102.198 70.2408V67.6215C102.198 66.3503 103.229 65.3198 104.5 65.3198Z" fill="#000080"/>
    <path fill-rule="evenodd" clip-rule="evenodd" d="M79.6002 74.4299C83.582 64.5934 93.227 57.6477 104.5 57.6477C117.852 57.6477 128.928 67.3929 131.003 80.1587L133.807 78.0555C134.824 77.2928 136.267 77.4989 137.03 78.5158C137.792 79.5328 137.586 80.9754 136.569 81.7381L133.466 84.0654C130.909 85.9833 127.488 86.2918 124.628 84.8623L121.884 83.4899C120.747 82.9214 120.286 81.5389 120.854 80.4019C121.423 79.2649 122.805 78.8041 123.942 79.3726L126.409 80.6061C124.568 70.1749 115.459 62.251 104.5 62.251C95.1661 62.251 87.1694 67.9991 83.8671 76.1571C83.3902 77.3354 82.0484 77.904 80.8701 77.427C79.6918 76.9501 79.1233 75.6082 79.6002 74.4299ZM77.8893 88.1193C77.7867 88.16 77.6854 88.2052 77.5856 88.2551L74.8407 89.6275C73.7038 90.196 72.3212 89.7352 71.7528 88.5982C71.1843 87.4613 71.6451 86.0787 72.7821 85.5103L75.5269 84.1378C78.3861 82.7083 81.8075 83.0168 84.3647 84.9347L87.4678 87.262C88.4847 88.0247 88.6908 89.4674 87.9281 90.4843C87.1654 91.5012 85.7227 91.7073 84.7058 90.9446L82.8221 89.5319C85.1026 99.3961 93.9425 106.749 104.5 106.749C113.834 106.749 121.83 101.001 125.132 92.843C125.609 91.6647 126.951 91.0962 128.13 91.5731C129.308 92.0501 129.876 93.3919 129.399 94.5702C125.418 104.407 115.773 111.352 104.5 111.352C90.8971 111.352 79.6567 101.238 77.8893 88.1193Z" fill="#000080"/>
    <path d="M267.834 129.425C267.728 129.425 267.675 129.372 267.675 129.266V118.478C267.675 118.372 267.728 118.32 267.834 118.32H271.578C272.625 118.32 273.455 118.595 274.069 119.145C274.693 119.694 275.005 120.44 275.005 121.381V126.363C275.005 127.304 274.693 128.05 274.069 128.6C273.455 129.15 272.625 129.425 271.578 129.425H267.834ZM268.802 128.378C268.802 128.42 268.823 128.441 268.865 128.441H271.626C272.313 128.441 272.858 128.24 273.26 127.838C273.672 127.436 273.878 126.897 273.878 126.22V121.54C273.878 120.853 273.677 120.308 273.275 119.906C272.874 119.504 272.324 119.303 271.626 119.303H268.865C268.823 119.303 268.802 119.324 268.802 119.367V128.378Z" fill="#005DE8"/>
    <path d="M266.05 119.145C266.05 119.25 265.997 119.303 265.891 119.303H260.053C260.011 119.303 259.99 119.324 259.99 119.367V123.285C259.99 123.327 260.011 123.349 260.053 123.349H264.146C264.252 123.349 264.305 123.401 264.305 123.507V124.173C264.305 124.279 264.252 124.332 264.146 124.332H260.053C260.011 124.332 259.99 124.353 259.99 124.396V128.378C259.99 128.42 260.011 128.441 260.053 128.441H265.891C265.997 128.441 266.05 128.494 266.05 128.6V129.266C266.05 129.372 265.997 129.425 265.891 129.425H259.022C258.916 129.425 258.863 129.372 258.863 129.266V118.478C258.863 118.372 258.916 118.32 259.022 118.32H265.891C265.997 118.32 266.05 118.372 266.05 118.478V119.145Z" fill="#005DE8"/>
    <path d="M255.768 118.478C255.768 118.372 255.821 118.32 255.927 118.32H256.736C256.841 118.32 256.894 118.372 256.894 118.478V129.266C256.894 129.372 256.841 129.425 256.736 129.425H255.943C255.868 129.425 255.805 129.388 255.752 129.314L250.342 120.509C250.332 120.477 250.316 120.467 250.295 120.477C250.274 120.477 250.263 120.493 250.263 120.525L250.279 129.266C250.279 129.372 250.226 129.425 250.12 129.425H249.311C249.205 129.425 249.153 129.372 249.153 129.266V118.478C249.153 118.372 249.205 118.32 249.311 118.32H250.104C250.179 118.32 250.242 118.357 250.295 118.431L255.705 127.235C255.715 127.267 255.731 127.283 255.752 127.283C255.773 127.272 255.784 127.251 255.784 127.219L255.768 118.478Z" fill="#005DE8"/>
    <path d="M243.596 129.551C242.855 129.551 242.205 129.409 241.644 129.123C241.084 128.827 240.645 128.414 240.328 127.886C240.021 127.357 239.867 126.749 239.867 126.061V121.683C239.867 120.995 240.021 120.387 240.328 119.858C240.645 119.33 241.084 118.922 241.644 118.637C242.205 118.341 242.855 118.193 243.596 118.193C244.325 118.193 244.97 118.335 245.531 118.621C246.102 118.907 246.541 119.308 246.848 119.827C247.154 120.334 247.308 120.911 247.308 121.556V121.762C247.308 121.868 247.255 121.921 247.149 121.921H246.34C246.234 121.921 246.181 121.868 246.181 121.762V121.572C246.181 120.863 245.944 120.287 245.468 119.843C245.002 119.398 244.378 119.176 243.596 119.176C242.813 119.176 242.184 119.404 241.708 119.858C241.232 120.313 240.994 120.911 240.994 121.651V126.093C240.994 126.833 241.237 127.431 241.724 127.886C242.21 128.34 242.85 128.568 243.643 128.568C244.415 128.568 245.029 128.356 245.483 127.933C245.949 127.51 246.181 126.944 246.181 126.236V124.792C246.181 124.75 246.16 124.729 246.118 124.729H243.786C243.68 124.729 243.627 124.676 243.627 124.57V123.904C243.627 123.798 243.68 123.745 243.786 123.745H247.149C247.255 123.745 247.308 123.798 247.308 123.904V125.95C247.308 127.082 246.969 127.965 246.293 128.6C245.626 129.234 244.727 129.551 243.596 129.551Z" fill="#005DE8"/>
    <path d="M237.063 129.425C236.957 129.425 236.904 129.372 236.904 129.266V118.478C236.904 118.372 236.957 118.32 237.063 118.32H237.872C237.978 118.32 238.031 118.372 238.031 118.478V129.266C238.031 129.372 237.978 129.425 237.872 129.425H237.063Z" fill="#005DE8"/>
    <path d="M231.638 129.552C230.443 129.552 229.496 129.282 228.798 128.742C228.11 128.203 227.767 127.484 227.767 126.585V126.093C227.767 125.987 227.82 125.935 227.925 125.935H228.703C228.809 125.935 228.861 125.987 228.861 126.093V126.521C228.861 127.135 229.115 127.632 229.623 128.013C230.131 128.383 230.834 128.568 231.733 128.568C232.547 128.568 233.166 128.399 233.589 128.06C234.012 127.711 234.224 127.251 234.224 126.68C234.224 126.31 234.123 125.993 233.922 125.728C233.732 125.464 233.43 125.215 233.018 124.983C232.616 124.75 232.045 124.48 231.304 124.174C230.511 123.856 229.893 123.581 229.448 123.349C229.015 123.105 228.66 122.799 228.385 122.429C228.121 122.048 227.989 121.572 227.989 121.001C227.989 120.112 228.296 119.425 228.909 118.938C229.533 118.441 230.384 118.193 231.463 118.193C232.637 118.193 233.562 118.468 234.239 119.018C234.916 119.568 235.255 120.297 235.255 121.207V121.556C235.255 121.662 235.202 121.715 235.096 121.715H234.303C234.197 121.715 234.144 121.662 234.144 121.556V121.27C234.144 120.657 233.901 120.155 233.414 119.763C232.938 119.372 232.272 119.176 231.416 119.176C230.665 119.176 230.088 119.33 229.686 119.636C229.284 119.943 229.083 120.387 229.083 120.969C229.083 121.35 229.179 121.667 229.369 121.921C229.57 122.164 229.85 122.381 230.21 122.571C230.58 122.751 231.146 122.989 231.907 123.285C232.679 123.602 233.298 123.899 233.763 124.174C234.239 124.449 234.62 124.787 234.906 125.189C235.202 125.58 235.35 126.061 235.35 126.633C235.35 127.521 235.022 128.23 234.366 128.758C233.711 129.287 232.801 129.552 231.638 129.552Z" fill="#005DE8"/>
    <path d="M287.687 123.136C287.687 125.001 286.738 126.828 284.91 128.544C283.081 130.261 280.408 131.83 277.063 133.158C270.376 135.813 261.104 137.467 250.836 137.467C240.569 137.467 231.297 135.813 224.61 133.158C221.265 131.83 218.592 130.261 216.763 128.544C214.935 126.828 213.986 125.001 213.986 123.136C213.986 121.272 214.935 119.444 216.763 117.728C218.592 116.011 221.265 114.442 224.61 113.114C231.297 110.459 240.569 108.806 250.836 108.806C261.104 108.806 270.376 110.459 277.063 113.114C280.408 114.442 283.081 116.011 284.91 117.728C286.738 119.444 287.687 121.272 287.687 123.136Z" stroke="#005DE8"/>
    <defs>
        <filter id="filter0_d_0_1" x="33.781" y="25.6857" width="274.438" height="303.123" filterUnits="userSpaceOnUse" color-interpolation-filters="sRGB">
            <feFlood flood-opacity="0" result="BackgroundImageFix"/>
            <feColorMatrix in="SourceAlpha" type="matrix" values="0 0 0 0 0 0 0 0 0 0 0 0 0 0 0 0 0 0 127 0" result="hardAlpha"/>
            <feOffset dy="0.904639"/>
            <feGaussianBlur stdDeviation="0.904639"/>
            <feComposite in2="hardAlpha" operator="out"/>
            <feColorMatrix type="matrix" values="0 0 0 0 0.0627451 0 0 0 0 0.0941176 0 0 0 0 0.156863 0 0 0 0.05 0"/>
            <feBlend mode="normal" in2="BackgroundImageFix" result="effect1_dropShadow_0_1"/>
            <feBlend mode="normal" in="SourceGraphic" in2="effect1_dropShadow_0_1" result="shape"/>
        </filter>
        <filter id="filter1_d_0_1" x="6.10352e-05" y="0" width="209" height="209" filterUnits="userSpaceOnUse" color-interpolation-filters="sRGB">
            <feFlood flood-opacity="0" result="BackgroundImageFix"/>
            <feColorMatrix in="SourceAlpha" type="matrix" values="0 0 0 0 0 0 0 0 0 0 0 0 0 0 0 0 0 0 127 0" result="hardAlpha"/>
            <feOffset dy="20"/>
            <feGaussianBlur stdDeviation="22"/>
            <feComposite in2="hardAlpha" operator="out"/>
            <feColorMatrix type="matrix" values="0 0 0 0 0 0 0 0 0 0 0 0 0 0 0.501961 0 0 0 0.1 0"/>
            <feBlend mode="normal" in2="BackgroundImageFix" result="effect1_dropShadow_0_1"/>
            <feBlend mode="normal" in="SourceGraphic" in2="effect1_dropShadow_0_1" result="shape"/>
        </filter>
    </defs>
</svg>
