<svg width="158" height="39" viewBox="0 0 158 39" fill="none" xmlns="http://www.w3.org/2000/svg">
<path d="M24.996 1.59058H11.5901L0.797974 12.3827V25.7886L11.5901 36.5807H24.996L35.7881 25.7886V12.3827L24.996 1.59058ZM13.445 25.9572L6.53131 19.0435L13.445 12.1298C16.0587 9.51605 20.3587 9.51605 22.9725 12.1298L29.8862 19.0435L22.9725 25.9572C20.3587 28.5709 16.143 28.5709 13.445 25.9572Z" fill="#ACB2B8"/>
<path d="M51.1678 27.2287C53.315 27.2287 55.0804 26.1313 55.6291 24.4852V27.0379H58.802V20.5965C58.802 19.1412 57.6569 17.9007 56.1062 17.9007H51.5734V20.5965H54.7941C55.1997 20.5965 55.4621 20.8589 55.4621 21.2645C55.4621 22.8152 53.4104 24.3182 51.3348 24.3182C48.5674 24.3182 46.3726 22.1472 46.3726 18.6879C46.3726 15.2287 48.5674 13.2247 51.4064 13.2247C53.5535 13.2247 55.0327 14.3937 55.2951 16.183H58.8498C58.635 12.6044 55.6291 10.1472 51.4303 10.1472C47.0167 10.1472 42.9611 12.9861 42.9611 18.6879C42.9611 24.3897 46.8974 27.2287 51.1678 27.2287Z" fill="#ACB2B8"/>
<path d="M60.1641 27.0379H63.4802V9.78931H60.1641V27.0379Z" fill="#ACB2B8"/>
<path d="M70.6334 27.2287C74.3312 27.2287 76.9793 24.6044 76.9793 21.0259C76.9793 17.4474 74.3312 14.8231 70.6334 14.8231C66.9356 14.8231 64.2875 17.4474 64.2875 21.0259C64.2875 24.6044 66.9356 27.2287 70.6334 27.2287ZM70.6334 24.3659C68.8441 24.3659 67.6274 23.006 67.6274 21.0259C67.6274 19.0219 68.8441 17.6621 70.6334 17.6621C72.4227 17.6621 73.6394 19.0219 73.6394 21.0259C73.6394 23.006 72.4227 24.3659 70.6334 24.3659Z" fill="#ACB2B8"/>
<path d="M84.3996 27.2287C87.9543 27.2287 90.0775 24.7714 90.0775 21.0259C90.0775 17.2804 87.9543 14.8231 84.4473 14.8231C82.9443 14.8231 81.7753 15.3957 81.1073 16.2784V9.78931H77.7912V27.0379H81.1073V25.7257C81.7753 26.6561 83.0159 27.2287 84.3996 27.2287ZM83.8747 24.3659C82.0855 24.3659 80.9165 23.0299 80.9165 21.0259C80.9165 18.9981 82.0855 17.6621 83.8747 17.6621C85.6163 17.6621 86.8091 18.9981 86.8091 21.0259C86.8091 23.0299 85.6163 24.3659 83.8747 24.3659Z" fill="#ACB2B8"/>
<path d="M95.6285 14.8231C92.3363 14.8231 90.38 16.7555 90.2369 19.1651H93.1951C93.2428 18.1631 93.9824 17.2565 95.4377 17.2565C96.7975 17.2565 97.5848 17.9484 97.5848 18.9504C97.5848 19.4514 97.2747 19.8331 96.6782 19.8331H94.6504C92.0261 19.8331 90.2607 21.2645 90.2607 23.6263C90.2607 25.678 91.8591 27.2287 94.1971 27.2287C95.8433 27.2287 97.1792 26.4891 97.5848 25.3679V27.0379H100.877V19.3082C100.877 16.5885 98.6584 14.8231 95.6285 14.8231ZM95.0321 24.8192C94.1017 24.8192 93.4337 24.2705 93.4337 23.4832C93.4337 22.5528 94.1494 21.9325 95.1514 21.9325H97.5848V22.0995C97.5848 23.6263 96.6544 24.8192 95.0321 24.8192Z" fill="#ACB2B8"/>
<path d="M102.151 27.0379H105.467V9.78931H102.151V27.0379Z" fill="#ACB2B8"/>
<path d="M107.229 27.0379H114.052C117.583 27.0379 120.016 25.2247 120.016 22.0518C120.016 19.8569 118.728 18.5209 117.201 17.9245C118.179 17.3997 119.157 16.2068 119.157 14.6323C119.157 11.841 116.891 10.338 113.861 10.338H107.229V27.0379ZM110.76 16.7078V13.177H113.527C115.126 13.177 115.841 13.8211 115.841 14.9424C115.841 16.0637 115.126 16.7078 113.599 16.7078H110.76ZM110.76 23.9365V19.7376H113.742C115.722 19.7376 116.605 20.5011 116.605 21.8609C116.605 23.2207 115.722 23.9365 113.742 23.9365H110.76Z" fill="#ACB2B8"/>
<path d="M125.785 14.8231C122.493 14.8231 120.537 16.7555 120.394 19.1651H123.352C123.399 18.1631 124.139 17.2565 125.594 17.2565C126.954 17.2565 127.741 17.9484 127.741 18.9504C127.741 19.4514 127.431 19.8331 126.835 19.8331H124.807C122.183 19.8331 120.417 21.2645 120.417 23.6263C120.417 25.678 122.016 27.2287 124.354 27.2287C126 27.2287 127.336 26.4891 127.741 25.3679V27.0379H131.034V19.3082C131.034 16.5885 128.815 14.8231 125.785 14.8231ZM125.189 24.8192C124.258 24.8192 123.59 24.2705 123.59 23.4832C123.59 22.5528 124.306 21.9325 125.308 21.9325H127.741V22.0995C127.741 23.6263 126.811 24.8192 125.189 24.8192Z" fill="#ACB2B8"/>
<path d="M132.117 27.0379H135.457V20.4533C135.457 18.9026 136.483 17.7814 137.938 17.7814C139.322 17.7814 140.252 18.8311 140.252 20.2863V27.0379H143.592V19.5468C143.592 16.7794 141.827 14.8231 139.107 14.8231C137.461 14.8231 136.125 15.515 135.457 16.684V15.014H132.117V27.0379Z" fill="#ACB2B8"/>
<path d="M153.111 27.0379H157.119L151.942 19.7376L156.738 15.014H152.539L148.364 19.1174V9.78931H145.024V27.0379H148.364V23.2685L149.7 21.9563L153.111 27.0379Z" fill="#ACB2B8"/>
</svg>
