<svg width="40" height="40" viewBox="0 0 40 40" fill="none" xmlns="http://www.w3.org/2000/svg">
<path opacity="0.4" d="M13.0328 36.6666H26.9673C30.8152 36.6666 33.9345 33.6899 33.9345 30.0179V21.8884C33.9345 20.708 34.4259 19.576 35.3005 18.7413C37.327 16.8075 37.0636 13.6034 34.7458 11.9948L24.0979 4.60497C21.6549 2.90943 18.3451 2.90943 15.9021 4.60497L5.25419 11.9948C2.93646 13.6034 2.67302 16.8075 4.69949 18.7413C5.57414 19.576 6.06551 20.708 6.06551 21.8884V30.0179C6.06551 33.6899 9.18485 36.6666 13.0328 36.6666Z" fill="#000080"/>
<path fill-rule="evenodd" clip-rule="evenodd" d="M17.5 21.25C16.8097 21.25 16.25 21.8096 16.25 22.5V23.3333C16.25 24.9442 14.9442 26.25 13.3334 26.25H11.6667C10.9763 26.25 10.4167 25.6904 10.4167 25C10.4167 24.3096 10.9763 23.75 11.6667 23.75H13.3334C13.5635 23.75 13.75 23.5635 13.75 23.3333V22.5C13.75 20.4289 15.429 18.75 17.5 18.75C19.5711 18.75 21.25 20.4289 21.25 22.5V27.5C21.25 28.1904 21.8097 28.75 22.5 28.75C23.1904 28.75 23.75 28.1904 23.75 27.5V26.6667C23.75 25.0558 25.0559 23.75 26.6667 23.75H28.3334C29.0237 23.75 29.5834 24.3096 29.5834 25C29.5834 25.6904 29.0237 26.25 28.3334 26.25H26.6667C26.4366 26.25 26.25 26.4365 26.25 26.6667V27.5C26.25 29.5711 24.5711 31.25 22.5 31.25C20.429 31.25 18.75 29.5711 18.75 27.5V22.5C18.75 21.8096 18.1904 21.25 17.5 21.25Z" fill="#000080"/>
</svg>
