<svg width="93" height="24" viewBox="0 0 93 24" fill="none" xmlns="http://www.w3.org/2000/svg">
<path d="M4.14991 15.1313H8.95946V17.9655H0.478333V2.89274H4.14991V15.1313Z" fill="#ACB2B8"/>
<path d="M12.3425 4.73926C11.6984 4.73926 11.1688 4.55318 10.7537 4.18101C10.3529 3.79453 10.1525 3.32217 10.1525 2.76391C10.1525 2.19135 10.3529 1.71898 10.7537 1.34681C11.1688 0.960331 11.6984 0.76709 12.3425 0.76709C12.9723 0.76709 13.4877 0.960331 13.8884 1.34681C14.3036 1.71898 14.5111 2.19135 14.5111 2.76391C14.5111 3.32217 14.3036 3.79453 13.8884 4.18101C13.4877 4.55318 12.9723 4.73926 12.3425 4.73926ZM14.1676 5.9846V17.9655H10.496V5.9846H14.1676Z" fill="#ACB2B8"/>
<path d="M21.1655 5.81283C22.01 5.81283 22.7472 5.9846 23.3771 6.32814C24.0212 6.67168 24.515 7.12257 24.8586 7.68082V5.9846H28.5301V17.9441C28.5301 19.0463 28.3083 20.0411 27.8645 20.9286C27.4351 21.8304 26.7695 22.5461 25.8677 23.0757C24.9802 23.6053 23.8709 23.8701 22.5397 23.8701C20.7647 23.8701 19.3261 23.4479 18.224 22.6033C17.1218 21.7731 16.4919 20.6423 16.3345 19.2109H19.9631C20.0776 19.6689 20.3496 20.0268 20.779 20.2844C21.2085 20.5564 21.7381 20.6924 22.3679 20.6924C23.1266 20.6924 23.7277 20.4705 24.1715 20.0268C24.6295 19.5973 24.8586 18.9031 24.8586 17.9441V16.2478C24.5007 16.8061 24.0069 17.2641 23.3771 17.622C22.7472 17.9655 22.01 18.1373 21.1655 18.1373C20.1778 18.1373 19.2832 17.8868 18.4816 17.3858C17.68 16.8705 17.043 16.1476 16.5707 15.2172C16.1126 14.2725 15.8836 13.1846 15.8836 11.9536C15.8836 10.7226 16.1126 9.64186 16.5707 8.71144C17.043 7.78102 17.68 7.06531 18.4816 6.56432C19.2832 6.06332 20.1778 5.81283 21.1655 5.81283ZM24.8586 11.9751C24.8586 11.059 24.6009 10.3361 24.0856 9.80647C23.5846 9.27685 22.9691 9.01204 22.2391 9.01204C21.5091 9.01204 20.8864 9.27685 20.3711 9.80647C19.8701 10.3218 19.6196 11.0375 19.6196 11.9536C19.6196 12.8697 19.8701 13.5997 20.3711 14.1437C20.8864 14.6733 21.5091 14.9381 22.2391 14.9381C22.9691 14.9381 23.5846 14.6733 24.0856 14.1437C24.6009 13.614 24.8586 12.8912 24.8586 11.9751Z" fill="#ACB2B8"/>
<path d="M38.3363 5.85577C39.7104 5.85577 40.8126 6.31382 41.6428 7.22993C42.4731 8.13172 42.8882 9.37705 42.8882 10.9659V17.9655H39.2381V11.4598C39.2381 10.6582 39.0305 10.0355 38.6154 9.59176C38.2003 9.14802 37.642 8.92615 36.9407 8.92615C36.2393 8.92615 35.681 9.14802 35.2659 9.59176C34.8508 10.0355 34.6432 10.6582 34.6432 11.4598V17.9655H30.9717V2.07684H34.6432V7.59494C35.0154 7.06531 35.5236 6.64305 36.1677 6.32814C36.8118 6.01322 37.5347 5.85577 38.3363 5.85577Z" fill="#ACB2B8"/>
<path d="M51.9024 14.8522V17.9655H50.0344C48.7032 17.9655 47.6654 17.6435 46.9211 16.9993C46.1767 16.3409 45.8046 15.2745 45.8046 13.8001V9.03351H44.3445V5.9846H45.8046V3.06451H49.4762V5.9846H51.8809V9.03351H49.4762V13.8431C49.4762 14.2009 49.562 14.4586 49.7338 14.616C49.9056 14.7735 50.1919 14.8522 50.5927 14.8522H51.9024Z" fill="#ACB2B8"/>
<path d="M57.4044 7.68082C57.7479 7.12257 58.2418 6.67168 58.8859 6.32814C59.53 5.9846 60.2672 5.81283 61.0974 5.81283C62.0851 5.81283 62.9798 6.06332 63.7813 6.56432C64.5829 7.06531 65.2128 7.78102 65.6708 8.71144C66.1432 9.64186 66.3794 10.7226 66.3794 11.9536C66.3794 13.1846 66.1432 14.2725 65.6708 15.2172C65.2128 16.1476 64.5829 16.8705 63.7813 17.3858C62.9798 17.8868 62.0851 18.1373 61.0974 18.1373C60.2529 18.1373 59.5157 17.9727 58.8859 17.6435C58.2561 17.2999 57.7623 16.849 57.4044 16.2908V17.9655H53.7328V2.07684H57.4044V7.68082ZM62.6434 11.9536C62.6434 11.0375 62.3857 10.3218 61.8704 9.80647C61.3694 9.27685 60.7468 9.01204 60.0024 9.01204C59.2724 9.01204 58.6497 9.27685 58.1344 9.80647C57.6334 10.3361 57.3829 11.059 57.3829 11.9751C57.3829 12.8912 57.6334 13.614 58.1344 14.1437C58.6497 14.6733 59.2724 14.9381 60.0024 14.9381C60.7324 14.9381 61.3551 14.6733 61.8704 14.1437C62.3857 13.5997 62.6434 12.8697 62.6434 11.9536Z" fill="#ACB2B8"/>
<path d="M73.5445 18.1373C72.3708 18.1373 71.3115 17.8868 70.3668 17.3858C69.4364 16.8848 68.6992 16.1691 68.1553 15.2387C67.6256 14.3083 67.3608 13.2204 67.3608 11.9751C67.3608 10.7441 67.6328 9.66333 68.1767 8.73291C68.7207 7.78818 69.465 7.06531 70.4097 6.56432C71.3545 6.06332 72.4137 5.81283 73.5875 5.81283C74.7612 5.81283 75.8205 6.06332 76.7652 6.56432C77.71 7.06531 78.4543 7.78818 78.9982 8.73291C79.5422 9.66333 79.8141 10.7441 79.8141 11.9751C79.8141 13.2061 79.535 14.294 78.9768 15.2387C78.4328 16.1691 77.6813 16.8848 76.7223 17.3858C75.7776 17.8868 74.7183 18.1373 73.5445 18.1373ZM73.5445 14.9596C74.2459 14.9596 74.84 14.7019 75.3267 14.1866C75.8277 13.6713 76.0781 12.9341 76.0781 11.9751C76.0781 11.016 75.8348 10.2788 75.3481 9.76353C74.8758 9.24822 74.2889 8.99057 73.5875 8.99057C72.8718 8.99057 72.2777 9.24822 71.8054 9.76353C71.333 10.2645 71.0968 11.0017 71.0968 11.9751C71.0968 12.9341 71.3259 13.6713 71.7839 14.1866C72.2563 14.7019 72.8431 14.9596 73.5445 14.9596Z" fill="#ACB2B8"/>
<path d="M88.6328 17.9655L86.3354 14.6375L84.4029 17.9655H80.4308L84.3815 11.8462L80.3234 5.9846H84.4459L86.7433 9.29116L88.6757 5.9846H92.6479L88.6328 12.018L92.7552 17.9655H88.6328Z" fill="#ACB2B8"/>
</svg>
