<svg width="391" height="388" viewBox="0 0 391 388" fill="none" xmlns="http://www.w3.org/2000/svg">
    <path d="M96.0124 20.1413C109.381 9.77227 237.566 -19.4489 325.742 31.8201" stroke="url(#paint0_linear_3493_29)" stroke-width="2.99908"/>
    <path d="M331.783 32.9639C332.11 33.2904 331.961 33.8479 331.515 33.9674L321.934 36.5346C321.488 36.6541 321.079 36.246 321.199 35.8L323.766 26.2189C323.886 25.7729 324.443 25.6236 324.77 25.9501L331.783 32.9639Z" fill="url(#paint1_linear_3493_29)"/>
    <path d="M383.673 130.79C398.298 214.567 389.792 382.241 238.769 382.713" stroke="url(#paint2_linear_3493_29)" stroke-width="2.99908"/>
    <path d="M231.871 382.961C231.471 382.73 231.471 382.152 231.871 381.922L240.461 376.962C240.861 376.731 241.361 377.02 241.361 377.482L241.361 387.401C241.361 387.862 240.861 388.151 240.461 387.92L231.871 382.961Z" fill="url(#paint3_linear_3493_29)"/>
    <path d="M93.8622 382.712C50.4755 367.817 -26.5208 300.418 12.5872 149.984" stroke="url(#paint4_linear_3493_29)" stroke-width="2.99908"/>
    <path d="M13.7818 143.514C14.1083 143.187 14.6658 143.336 14.7853 143.782L17.3525 153.363C17.4721 153.809 17.0639 154.218 16.6179 154.098L7.03688 151.531C6.59088 151.411 6.44149 150.854 6.76799 150.527L13.7818 143.514Z" fill="url(#paint5_linear_3493_29)"/>
    <defs>
        <linearGradient id="paint0_linear_3493_29" x1="159.068" y1="0.973196" x2="167.506" y2="50.8688" gradientUnits="userSpaceOnUse">
            <stop stop-color="#5959EB"/>
            <stop offset="1" stop-color="#000080"/>
        </linearGradient>
        <linearGradient id="paint1_linear_3493_29" x1="333.99" y1="30.8585" x2="322.472" y2="39.8218" gradientUnits="userSpaceOnUse">
            <stop stop-color="#5959EB"/>
            <stop offset="1" stop-color="#000080"/>
        </linearGradient>
        <linearGradient id="paint2_linear_3493_29" x1="279.928" y1="118.31" x2="444.628" y2="192.478" gradientUnits="userSpaceOnUse">
            <stop stop-color="#5959EB"/>
            <stop offset="1" stop-color="#000080"/>
        </linearGradient>
        <linearGradient id="paint3_linear_3493_29" x1="230.285" y1="385.565" x2="239.09" y2="373.926" gradientUnits="userSpaceOnUse">
            <stop stop-color="#5959EB"/>
            <stop offset="1" stop-color="#000080"/>
        </linearGradient>
        <linearGradient id="paint4_linear_3493_29" x1="27.0993" y1="138.455" x2="138.681" y2="171.833" gradientUnits="userSpaceOnUse">
            <stop stop-color="#5959EB"/>
            <stop offset="1" stop-color="#000080"/>
        </linearGradient>
        <linearGradient id="paint5_linear_3493_29" x1="11.6764" y1="141.307" x2="20.6397" y2="152.825" gradientUnits="userSpaceOnUse">
            <stop stop-color="#5959EB"/>
            <stop offset="1" stop-color="#000080"/>
        </linearGradient>
    </defs>
</svg>
