<svg width="283" height="147" viewBox="0 0 283 147" fill="none" xmlns="http://www.w3.org/2000/svg">
<line x1="0.884389" y1="4.24086" x2="282.504" y2="4.24086" stroke="#F2F4F7" stroke-width="0.380594" stroke-linecap="round"/>
<line x1="0.884389" y1="29.5177" x2="282.504" y2="29.5177" stroke="#F2F4F7" stroke-width="0.380594" stroke-linecap="round"/>
<line x1="0.884389" y1="53.8429" x2="282.504" y2="53.8429" stroke="#F2F4F7" stroke-width="0.380594" stroke-linecap="round"/>
<line x1="0.884389" y1="78.1686" x2="282.504" y2="78.1686" stroke="#F2F4F7" stroke-width="0.380594" stroke-linecap="round"/>
<line x1="0.884389" y1="102.494" x2="282.504" y2="102.494" stroke="#F2F4F7" stroke-width="0.380594" stroke-linecap="round"/>
<line x1="0.884389" y1="126.819" x2="282.504" y2="126.819" stroke="#F2F4F7" stroke-width="0.380594" stroke-linecap="round"/>
<path d="M6.44481 142.329C5.96564 142.329 5.54284 142.238 5.17641 142.054C4.81703 141.871 4.53869 141.614 4.34138 141.283C4.14407 140.945 4.04542 140.557 4.04542 140.12V139.317C4.04542 139.246 4.08065 139.211 4.15112 139.211H4.69019C4.76066 139.211 4.79589 139.246 4.79589 139.317V140.12C4.79589 140.585 4.94387 140.962 5.23983 141.251C5.54284 141.533 5.9445 141.674 6.44481 141.674C6.93808 141.674 7.33621 141.533 7.63922 141.251C7.94223 140.962 8.09373 140.585 8.09373 140.12V134.951C8.09373 134.881 8.12897 134.846 8.19943 134.846H8.7385C8.80897 134.846 8.8442 134.881 8.8442 134.951V140.12C8.8442 140.557 8.74202 140.945 8.53767 141.283C8.34037 141.614 8.0585 141.871 7.69207 142.054C7.33269 142.238 6.91694 142.329 6.44481 142.329ZM12.0062 136.812C12.6404 136.812 13.1301 136.974 13.4754 137.298C13.8207 137.622 13.9934 138.052 13.9934 138.587V142.139C13.9934 142.209 13.9581 142.245 13.8877 142.245H13.3486C13.2781 142.245 13.2429 142.209 13.2429 142.139V141.706C13.2429 141.691 13.2358 141.681 13.2218 141.674C13.2147 141.667 13.2041 141.67 13.19 141.684C13.0139 141.896 12.7849 142.058 12.503 142.171C12.2211 142.276 11.9075 142.329 11.5623 142.329C11.0619 142.329 10.6427 142.202 10.3044 141.949C9.96619 141.695 9.79707 141.307 9.79707 140.786C9.79707 140.257 9.98733 139.842 10.3679 139.539C10.7554 139.229 11.291 139.074 11.9745 139.074H13.2006C13.2288 139.074 13.2429 139.06 13.2429 139.031V138.63C13.2429 138.27 13.1407 137.988 12.9364 137.784C12.7391 137.573 12.429 137.467 12.0062 137.467C11.668 137.467 11.3931 137.534 11.1817 137.668C10.9703 137.795 10.84 137.974 10.7907 138.207C10.7695 138.277 10.7272 138.309 10.6638 138.302L10.093 138.228C10.0155 138.214 9.98381 138.186 9.9979 138.143C10.0543 137.749 10.2657 137.428 10.6321 137.182C10.9985 136.935 11.4566 136.812 12.0062 136.812ZM11.7102 141.684C12.126 141.684 12.4854 141.582 12.7884 141.378C13.0914 141.166 13.2429 140.885 13.2429 140.532V139.708C13.2429 139.68 13.2288 139.666 13.2006 139.666H12.0908C11.6257 139.666 11.2522 139.761 10.9703 139.951C10.6885 140.141 10.5475 140.405 10.5475 140.744C10.5475 141.054 10.6532 141.29 10.8646 141.452C11.0831 141.607 11.365 141.684 11.7102 141.684ZM17.2462 136.822C17.8099 136.822 18.2574 136.988 18.5886 137.319C18.9268 137.65 19.0959 138.094 19.0959 138.651V142.139C19.0959 142.209 19.0607 142.245 18.9902 142.245H18.4512C18.3807 142.245 18.3455 142.209 18.3455 142.139V138.799C18.3455 138.411 18.2257 138.094 17.9861 137.848C17.7536 137.601 17.4505 137.478 17.0771 137.478C16.6895 137.478 16.3759 137.597 16.1363 137.837C15.8968 138.077 15.777 138.39 15.777 138.778V142.139C15.777 142.209 15.7417 142.245 15.6713 142.245H15.1322C15.0617 142.245 15.0265 142.209 15.0265 142.139V137.002C15.0265 136.931 15.0617 136.896 15.1322 136.896H15.6713C15.7417 136.896 15.777 136.931 15.777 137.002V137.456C15.777 137.471 15.7805 137.481 15.7875 137.488C15.8016 137.495 15.8122 137.492 15.8192 137.478C16.1293 137.041 16.6049 136.822 17.2462 136.822Z" fill="#425466"/>
<path d="M53.3496 134.92C53.3848 134.87 53.4271 134.846 53.4765 134.846H54.0261C54.0966 134.846 54.1318 134.881 54.1318 134.951V142.139C54.1318 142.209 54.0966 142.245 54.0261 142.245H53.487C53.4166 142.245 53.3813 142.209 53.3813 142.139V136.262C53.3813 136.241 53.3743 136.227 53.3602 136.22C53.3461 136.213 53.3355 136.22 53.3285 136.241L51.6056 138.883C51.5703 138.933 51.528 138.957 51.4787 138.957H51.2039C51.1546 138.957 51.1123 138.936 51.0771 138.894L49.3542 136.273C49.3471 136.251 49.3365 136.244 49.3224 136.251C49.3083 136.258 49.3013 136.273 49.3013 136.294V142.139C49.3013 142.209 49.2661 142.245 49.1956 142.245H48.6565C48.5861 142.245 48.5508 142.209 48.5508 142.139V134.951C48.5508 134.881 48.5861 134.846 48.6565 134.846H49.2062C49.2625 134.846 49.3048 134.867 49.333 134.909L51.3202 137.921C51.3272 137.929 51.3378 137.932 51.3519 137.932C51.366 137.932 51.3765 137.929 51.3836 137.921L53.3496 134.92ZM57.28 136.812C57.9142 136.812 58.4039 136.974 58.7492 137.298C59.0945 137.622 59.2672 138.052 59.2672 138.587V142.139C59.2672 142.209 59.2319 142.245 59.1615 142.245H58.6224C58.5519 142.245 58.5167 142.209 58.5167 142.139V141.706C58.5167 141.691 58.5096 141.681 58.4955 141.674C58.4885 141.667 58.4779 141.67 58.4638 141.684C58.2877 141.896 58.0587 142.058 57.7768 142.171C57.4949 142.276 57.1813 142.329 56.8361 142.329C56.3357 142.329 55.9165 142.202 55.5782 141.949C55.24 141.695 55.0709 141.307 55.0709 140.786C55.0709 140.257 55.2611 139.842 55.6416 139.539C56.0292 139.229 56.5648 139.074 57.2483 139.074H58.4744C58.5026 139.074 58.5167 139.06 58.5167 139.031V138.63C58.5167 138.27 58.4145 137.988 58.2102 137.784C58.0129 137.573 57.7028 137.467 57.28 137.467C56.9418 137.467 56.6669 137.534 56.4555 137.668C56.2441 137.795 56.1138 137.974 56.0644 138.207C56.0433 138.277 56.001 138.309 55.9376 138.302L55.3668 138.228C55.2893 138.214 55.2576 138.186 55.2717 138.143C55.3281 137.749 55.5395 137.428 55.9059 137.182C56.2723 136.935 56.7304 136.812 57.28 136.812ZM56.984 141.684C57.3998 141.684 57.7592 141.582 58.0622 141.378C58.3652 141.166 58.5167 140.885 58.5167 140.532V139.708C58.5167 139.68 58.5026 139.666 58.4744 139.666H57.3646C56.8995 139.666 56.526 139.761 56.2441 139.951C55.9623 140.141 55.8213 140.405 55.8213 140.744C55.8213 141.054 55.927 141.29 56.1384 141.452C56.3569 141.607 56.6388 141.684 56.984 141.684ZM62.4566 136.843C62.6891 136.843 62.8899 136.889 63.0591 136.981C63.1154 137.009 63.1366 137.055 63.1225 137.118L63.0062 137.636C62.9851 137.707 62.9393 137.728 62.8688 137.7C62.749 137.65 62.6116 137.626 62.4566 137.626L62.3192 137.636C61.9527 137.65 61.6497 137.788 61.4101 138.048C61.1706 138.302 61.0508 138.626 61.0508 139.021V142.139C61.0508 142.209 61.0155 142.245 60.9451 142.245H60.406C60.3355 142.245 60.3003 142.209 60.3003 142.139V137.002C60.3003 136.931 60.3355 136.896 60.406 136.896H60.9451C61.0155 136.896 61.0508 136.931 61.0508 137.002V137.647C61.0508 137.668 61.0543 137.682 61.0613 137.689C61.0754 137.689 61.086 137.682 61.093 137.668C61.241 137.407 61.4278 137.206 61.6533 137.065C61.8858 136.917 62.1536 136.843 62.4566 136.843Z" fill="#425466"/>
<path d="M96.1681 134.92C96.2033 134.87 96.2456 134.846 96.2949 134.846H96.8446C96.915 134.846 96.9503 134.881 96.9503 134.951V142.139C96.9503 142.209 96.915 142.245 96.8446 142.245H96.3055C96.235 142.245 96.1998 142.209 96.1998 142.139V136.262C96.1998 136.241 96.1928 136.227 96.1787 136.22C96.1646 136.213 96.154 136.22 96.147 136.241L94.424 138.883C94.3888 138.933 94.3465 138.957 94.2972 138.957H94.0224C93.9731 138.957 93.9308 138.936 93.8955 138.894L92.1726 136.273C92.1656 136.251 92.155 136.244 92.1409 136.251C92.1268 136.258 92.1198 136.273 92.1198 136.294V142.139C92.1198 142.209 92.0845 142.245 92.0141 142.245H91.475C91.4045 142.245 91.3693 142.209 91.3693 142.139V134.951C91.3693 134.881 91.4045 134.846 91.475 134.846H92.0247C92.081 134.846 92.1233 134.867 92.1515 134.909L94.1387 137.921C94.1457 137.929 94.1563 137.932 94.1704 137.932C94.1845 137.932 94.195 137.929 94.2021 137.921L96.1681 134.92ZM100.098 136.812C100.733 136.812 101.222 136.974 101.568 137.298C101.913 137.622 102.086 138.052 102.086 138.587V142.139C102.086 142.209 102.05 142.245 101.98 142.245H101.441C101.37 142.245 101.335 142.209 101.335 142.139V141.706C101.335 141.691 101.328 141.681 101.314 141.674C101.307 141.667 101.296 141.67 101.282 141.684C101.106 141.896 100.877 142.058 100.595 142.171C100.313 142.276 99.9998 142.329 99.6545 142.329C99.1542 142.329 98.735 142.202 98.3967 141.949C98.0585 141.695 97.8894 141.307 97.8894 140.786C97.8894 140.257 98.0796 139.842 98.4601 139.539C98.8477 139.229 99.3832 139.074 100.067 139.074H101.293C101.321 139.074 101.335 139.06 101.335 139.031V138.63C101.335 138.27 101.233 137.988 101.029 137.784C100.831 137.573 100.521 137.467 100.098 137.467C99.7602 137.467 99.4854 137.534 99.274 137.668C99.0626 137.795 98.9323 137.974 98.8829 138.207C98.8618 138.277 98.8195 138.309 98.7561 138.302L98.1853 138.228C98.1078 138.214 98.0761 138.186 98.0902 138.143C98.1466 137.749 98.358 137.428 98.7244 137.182C99.0908 136.935 99.5488 136.812 100.098 136.812ZM99.8025 141.684C100.218 141.684 100.578 141.582 100.881 141.378C101.184 141.166 101.335 140.885 101.335 140.532V139.708C101.335 139.68 101.321 139.666 101.293 139.666H100.183C99.718 139.666 99.3445 139.761 99.0626 139.951C98.7808 140.141 98.6398 140.405 98.6398 140.744C98.6398 141.054 98.7455 141.29 98.9569 141.452C99.1754 141.607 99.4572 141.684 99.8025 141.684ZM102.814 144.359C102.764 144.359 102.74 144.323 102.74 144.253V143.83C102.74 143.76 102.775 143.724 102.845 143.724H102.888C103.163 143.717 103.374 143.675 103.522 143.598C103.677 143.527 103.807 143.39 103.913 143.185C104.026 142.988 104.146 142.685 104.272 142.276C104.286 142.248 104.286 142.227 104.272 142.213L102.486 137.012L102.475 136.97C102.475 136.921 102.507 136.896 102.571 136.896H103.131C103.194 136.896 103.237 136.924 103.258 136.981L104.632 141.251C104.639 141.265 104.649 141.272 104.663 141.272C104.678 141.272 104.688 141.265 104.695 141.251L106.048 136.981C106.069 136.924 106.112 136.896 106.175 136.896H106.725C106.802 136.896 106.83 136.935 106.809 137.012L104.854 142.71C104.685 143.182 104.526 143.531 104.378 143.756C104.23 143.982 104.043 144.137 103.818 144.221C103.599 144.313 103.289 144.359 102.888 144.359H102.814Z" fill="#425466"/>
<path d="M136.9 142.329C136.421 142.329 135.998 142.238 135.632 142.054C135.272 141.871 134.994 141.614 134.797 141.283C134.599 140.945 134.501 140.557 134.501 140.12V139.317C134.501 139.246 134.536 139.211 134.606 139.211H135.145C135.216 139.211 135.251 139.246 135.251 139.317V140.12C135.251 140.585 135.399 140.962 135.695 141.251C135.998 141.533 136.4 141.674 136.9 141.674C137.393 141.674 137.791 141.533 138.094 141.251C138.397 140.962 138.549 140.585 138.549 140.12V134.951C138.549 134.881 138.584 134.846 138.655 134.846H139.194C139.264 134.846 139.299 134.881 139.299 134.951V140.12C139.299 140.557 139.197 140.945 138.993 141.283C138.796 141.614 138.514 141.871 138.147 142.054C137.788 142.238 137.372 142.329 136.9 142.329ZM143.846 137.002C143.846 136.931 143.881 136.896 143.952 136.896H144.491C144.561 136.896 144.597 136.931 144.597 137.002V142.139C144.597 142.209 144.561 142.245 144.491 142.245H143.952C143.881 142.245 143.846 142.209 143.846 142.139V141.684C143.846 141.67 143.839 141.66 143.825 141.653C143.811 141.646 143.8 141.649 143.793 141.663C143.497 142.1 143.029 142.319 142.387 142.319C142.049 142.319 141.736 142.252 141.447 142.118C141.165 141.977 140.939 141.776 140.77 141.515C140.608 141.255 140.527 140.941 140.527 140.575V137.002C140.527 136.931 140.562 136.896 140.633 136.896H141.172C141.242 136.896 141.278 136.931 141.278 137.002V140.353C141.278 140.754 141.39 141.075 141.616 141.314C141.841 141.547 142.148 141.663 142.535 141.663C142.937 141.663 143.254 141.543 143.487 141.304C143.726 141.064 143.846 140.747 143.846 140.353V137.002ZM145.856 142.245C145.785 142.245 145.75 142.209 145.75 142.139V134.951C145.75 134.881 145.785 134.846 145.856 134.846H146.395C146.465 134.846 146.501 134.881 146.501 134.951V142.139C146.501 142.209 146.465 142.245 146.395 142.245H145.856Z" fill="#425466"/>
<path d="M178.141 142.329C177.345 142.329 176.714 142.149 176.249 141.79C175.791 141.431 175.562 140.952 175.562 140.353V140.025C175.562 139.954 175.597 139.919 175.668 139.919H176.186C176.256 139.919 176.292 139.954 176.292 140.025V140.31C176.292 140.719 176.461 141.05 176.799 141.304C177.137 141.551 177.606 141.674 178.205 141.674C178.747 141.674 179.16 141.561 179.441 141.336C179.723 141.103 179.864 140.797 179.864 140.416C179.864 140.169 179.797 139.958 179.663 139.782C179.537 139.606 179.336 139.44 179.061 139.285C178.793 139.13 178.413 138.95 177.919 138.746C177.391 138.535 176.979 138.351 176.683 138.196C176.394 138.034 176.158 137.83 175.974 137.583C175.798 137.33 175.71 137.012 175.71 136.632C175.71 136.04 175.915 135.582 176.323 135.258C176.739 134.927 177.306 134.761 178.025 134.761C178.807 134.761 179.424 134.944 179.875 135.311C180.326 135.677 180.551 136.163 180.551 136.769V137.002C180.551 137.072 180.516 137.108 180.446 137.108H179.917C179.847 137.108 179.811 137.072 179.811 137.002V136.812C179.811 136.403 179.649 136.068 179.325 135.807C179.008 135.547 178.564 135.416 177.993 135.416C177.493 135.416 177.109 135.519 176.841 135.723C176.573 135.927 176.44 136.223 176.44 136.611C176.44 136.864 176.503 137.076 176.63 137.245C176.764 137.407 176.95 137.552 177.19 137.678C177.437 137.798 177.814 137.957 178.321 138.154C178.835 138.365 179.248 138.563 179.558 138.746C179.875 138.929 180.128 139.155 180.319 139.422C180.516 139.683 180.615 140.004 180.615 140.384C180.615 140.976 180.396 141.448 179.959 141.801C179.522 142.153 178.916 142.329 178.141 142.329ZM185.604 138.672C185.632 138.869 185.646 139.116 185.646 139.412V139.75C185.646 139.821 185.611 139.856 185.54 139.856H182.126C182.098 139.856 182.084 139.87 182.084 139.898C182.098 140.286 182.119 140.536 182.147 140.649C182.225 140.966 182.39 141.216 182.644 141.399C182.898 141.582 183.222 141.674 183.616 141.674C183.912 141.674 184.173 141.607 184.399 141.473C184.624 141.339 184.8 141.149 184.927 140.902C184.969 140.839 185.019 140.825 185.075 140.86L185.487 141.103C185.544 141.138 185.558 141.188 185.53 141.251C185.353 141.589 185.089 141.857 184.737 142.054C184.384 142.245 183.979 142.34 183.521 142.34C183.021 142.333 182.602 142.213 182.263 141.98C181.925 141.748 181.682 141.424 181.534 141.008C181.407 140.67 181.344 140.183 181.344 139.549C181.344 139.253 181.347 139.014 181.354 138.831C181.369 138.64 181.397 138.471 181.439 138.323C181.559 137.865 181.798 137.499 182.158 137.224C182.524 136.949 182.965 136.812 183.479 136.812C184.12 136.812 184.613 136.974 184.959 137.298C185.304 137.622 185.519 138.08 185.604 138.672ZM183.479 137.467C183.134 137.467 182.845 137.559 182.612 137.742C182.387 137.918 182.239 138.158 182.168 138.461C182.126 138.609 182.098 138.848 182.084 139.179C182.084 139.208 182.098 139.222 182.126 139.222H184.864C184.892 139.222 184.906 139.208 184.906 139.179C184.892 138.862 184.871 138.637 184.843 138.503C184.765 138.186 184.606 137.936 184.367 137.752C184.134 137.562 183.838 137.467 183.479 137.467ZM190.764 138.228C190.87 138.566 190.922 139.014 190.922 139.57C190.922 140.134 190.877 140.571 190.785 140.881C190.658 141.332 190.426 141.688 190.087 141.949C189.756 142.202 189.337 142.329 188.83 142.329C188.555 142.329 188.301 142.276 188.069 142.171C187.836 142.058 187.642 141.899 187.487 141.695C187.473 141.681 187.459 141.677 187.445 141.684C187.438 141.684 187.434 141.691 187.434 141.706V144.19C187.434 144.26 187.399 144.295 187.329 144.295H186.79C186.719 144.295 186.684 144.26 186.684 144.19V137.002C186.684 136.931 186.719 136.896 186.79 136.896H187.329C187.399 136.896 187.434 136.931 187.434 137.002V137.446C187.434 137.46 187.438 137.471 187.445 137.478C187.459 137.478 187.473 137.471 187.487 137.456C187.642 137.252 187.832 137.094 188.058 136.981C188.29 136.868 188.548 136.812 188.83 136.812C189.323 136.812 189.735 136.938 190.066 137.192C190.404 137.446 190.637 137.791 190.764 138.228ZM189.929 140.902C190.006 140.747 190.063 140.575 190.098 140.384C190.14 140.187 190.161 139.916 190.161 139.57C190.161 139.239 190.147 138.982 190.119 138.799C190.091 138.609 190.042 138.439 189.971 138.291C189.887 138.038 189.735 137.837 189.517 137.689C189.305 137.541 189.052 137.467 188.756 137.467C188.474 137.467 188.238 137.541 188.047 137.689C187.857 137.837 187.716 138.034 187.625 138.281C187.561 138.422 187.515 138.587 187.487 138.778C187.459 138.968 187.445 139.232 187.445 139.57C187.445 139.909 187.459 140.176 187.487 140.374C187.515 140.564 187.565 140.733 187.635 140.881C187.72 141.121 187.857 141.314 188.047 141.462C188.245 141.603 188.477 141.674 188.745 141.674C189.027 141.674 189.27 141.603 189.474 141.462C189.686 141.322 189.837 141.135 189.929 140.902Z" fill="#425466"/>
<path d="M224.232 134.951C224.232 134.881 224.267 134.846 224.338 134.846H224.877C224.947 134.846 224.983 134.881 224.983 134.951V142.139C224.983 142.209 224.947 142.245 224.877 142.245H224.348C224.299 142.245 224.257 142.22 224.222 142.171L220.617 136.304C220.61 136.283 220.6 136.276 220.586 136.283C220.571 136.283 220.564 136.294 220.564 136.315L220.575 142.139C220.575 142.209 220.54 142.245 220.469 142.245H219.93C219.86 142.245 219.825 142.209 219.825 142.139V134.951C219.825 134.881 219.86 134.846 219.93 134.846H220.459C220.508 134.846 220.55 134.87 220.586 134.92L224.19 140.786C224.197 140.807 224.208 140.818 224.222 140.818C224.236 140.811 224.243 140.797 224.243 140.775L224.232 134.951ZM228.331 142.329C227.824 142.329 227.387 142.199 227.02 141.938C226.654 141.677 226.4 141.318 226.259 140.86C226.161 140.536 226.111 140.102 226.111 139.56C226.111 139.017 226.161 138.587 226.259 138.27C226.393 137.819 226.643 137.463 227.01 137.203C227.376 136.942 227.82 136.812 228.342 136.812C228.842 136.812 229.272 136.942 229.631 137.203C229.998 137.463 230.248 137.816 230.382 138.26C230.48 138.563 230.53 138.996 230.53 139.56C230.53 140.131 230.48 140.564 230.382 140.86C230.248 141.318 229.998 141.677 229.631 141.938C229.272 142.199 228.838 142.329 228.331 142.329ZM228.331 141.674C228.669 141.674 228.958 141.582 229.198 141.399C229.437 141.209 229.599 140.955 229.684 140.638C229.747 140.384 229.779 140.028 229.779 139.57C229.779 139.105 229.751 138.749 229.695 138.503C229.61 138.186 229.444 137.936 229.198 137.752C228.958 137.562 228.666 137.467 228.32 137.467C227.975 137.467 227.683 137.562 227.443 137.752C227.204 137.936 227.042 138.186 226.957 138.503C226.901 138.749 226.872 139.105 226.872 139.57C226.872 140.035 226.901 140.391 226.957 140.638C227.034 140.955 227.193 141.209 227.433 141.399C227.679 141.582 227.979 141.674 228.331 141.674ZM232.679 142.245C232.616 142.245 232.574 142.216 232.553 142.16L230.819 137.012L230.809 136.97C230.809 136.921 230.84 136.896 230.904 136.896H231.506C231.57 136.896 231.612 136.924 231.633 136.981L232.954 141.124C232.961 141.138 232.972 141.145 232.986 141.145C233 141.145 233.011 141.138 233.018 141.124L234.339 136.981C234.36 136.924 234.402 136.896 234.466 136.896L235.068 136.907C235.146 136.907 235.174 136.946 235.153 137.023L233.419 142.16C233.398 142.216 233.356 142.245 233.293 142.245H232.679Z" fill="#425466"/>
<path d="M263.749 142.245C263.678 142.245 263.643 142.209 263.643 142.139V134.951C263.643 134.881 263.678 134.846 263.749 134.846H266.243C266.941 134.846 267.494 135.029 267.903 135.395C268.318 135.762 268.526 136.258 268.526 136.886V140.205C268.526 140.832 268.318 141.329 267.903 141.695C267.494 142.061 266.941 142.245 266.243 142.245H263.749ZM264.393 141.547C264.393 141.575 264.408 141.589 264.436 141.589H266.275C266.733 141.589 267.096 141.455 267.364 141.188C267.638 140.92 267.776 140.56 267.776 140.109V136.991C267.776 136.533 267.642 136.17 267.374 135.903C267.106 135.635 266.74 135.501 266.275 135.501H264.436C264.408 135.501 264.393 135.515 264.393 135.543V141.547ZM273.602 138.672C273.63 138.869 273.644 139.116 273.644 139.412V139.75C273.644 139.821 273.609 139.856 273.538 139.856H270.124C270.096 139.856 270.082 139.87 270.082 139.898C270.096 140.286 270.117 140.536 270.145 140.649C270.223 140.966 270.388 141.216 270.642 141.399C270.896 141.582 271.22 141.674 271.615 141.674C271.91 141.674 272.171 141.607 272.397 141.473C272.622 141.339 272.798 141.149 272.925 140.902C272.967 140.839 273.017 140.825 273.073 140.86L273.485 141.103C273.542 141.138 273.556 141.188 273.528 141.251C273.352 141.589 273.087 141.857 272.735 142.054C272.383 142.245 271.977 142.34 271.519 142.34C271.019 142.333 270.6 142.213 270.262 141.98C269.923 141.748 269.68 141.424 269.532 141.008C269.405 140.67 269.342 140.183 269.342 139.549C269.342 139.253 269.345 139.014 269.353 138.831C269.367 138.64 269.395 138.471 269.437 138.323C269.557 137.865 269.796 137.499 270.156 137.224C270.522 136.949 270.963 136.812 271.477 136.812C272.118 136.812 272.612 136.974 272.957 137.298C273.302 137.622 273.517 138.08 273.602 138.672ZM271.477 137.467C271.132 137.467 270.843 137.559 270.61 137.742C270.385 137.918 270.237 138.158 270.166 138.461C270.124 138.609 270.096 138.848 270.082 139.179C270.082 139.208 270.096 139.222 270.124 139.222H272.862C272.89 139.222 272.904 139.208 272.904 139.179C272.89 138.862 272.869 138.637 272.841 138.503C272.763 138.186 272.605 137.936 272.365 137.752C272.132 137.562 271.836 137.467 271.477 137.467ZM276.627 142.329C276.119 142.329 275.683 142.199 275.316 141.938C274.957 141.67 274.71 141.311 274.576 140.86C274.485 140.55 274.439 140.113 274.439 139.549C274.439 139.042 274.485 138.612 274.576 138.26C274.703 137.823 274.95 137.474 275.316 137.213C275.683 136.946 276.119 136.812 276.627 136.812C277.141 136.812 277.585 136.942 277.959 137.203C278.339 137.463 278.586 137.788 278.699 138.175C278.734 138.302 278.755 138.408 278.762 138.492V138.513C278.762 138.563 278.73 138.594 278.667 138.609L278.138 138.683H278.117C278.068 138.683 278.036 138.651 278.022 138.587L277.99 138.429C277.927 138.161 277.772 137.936 277.525 137.752C277.279 137.562 276.979 137.467 276.627 137.467C276.275 137.467 275.979 137.562 275.739 137.752C275.506 137.936 275.355 138.182 275.284 138.492C275.221 138.76 275.189 139.116 275.189 139.56C275.189 140.025 275.221 140.384 275.284 140.638C275.355 140.955 275.506 141.209 275.739 141.399C275.979 141.582 276.275 141.674 276.627 141.674C276.972 141.674 277.268 141.586 277.515 141.41C277.768 141.226 277.927 140.994 277.99 140.712V140.67L278.001 140.627C278.008 140.557 278.05 140.529 278.128 140.543L278.646 140.627C278.716 140.642 278.748 140.68 278.741 140.744L278.699 140.955C278.593 141.364 278.35 141.695 277.969 141.949C277.589 142.202 277.141 142.329 276.627 142.329Z" fill="#425466"/>
<mask id="mask0_11_1204" style="mask-type:alpha" maskUnits="userSpaceOnUse" x="0" y="17" width="283" height="120">
<rect width="281.544" height="118.559" transform="translate(0.694092 17.752)" fill="url(#paint0_linear_11_1204)"/>
</mask>
<g mask="url(#mask0_11_1204)">
<path opacity="0.1" d="M7.07468 58.2072L0.694092 60.4825V136.311H282.238V32.844L276.256 36.6229H269.875L266.884 40.1613H262.897C261.833 40.751 259.626 41.9305 259.307 41.9305C258.988 41.9305 256.915 42.6382 255.918 42.992L247.344 44.0536L242.359 45.4689L234.383 44.0536L230.196 42.992L224.214 45.4689H218.033L212.849 42.992C210.855 42.6382 206.787 41.9305 206.468 41.9305C206.149 41.9305 203.544 41.2228 202.281 40.869H199.091L191.514 41.9305L184.934 42.992L181.943 45.4689L172.97 46.5305L168.384 47.592L163.2 49.3612L158.215 53.6073H156.022L150.04 52.5457L144.257 49.3612L139.273 47.592H136.282L131.097 46.5305L123.72 47.592H116.741L109.762 49.3612L102.784 51.4842L97.5993 53.6073L92.0163 54.6688L84.4394 53.6073L78.4576 54.6688L72.4758 55.7303L66.8927 54.6688L59.3158 57.1457L52.9352 55.7303L46.5546 57.1457H40.3734L33.7934 58.2072H27.014L20.2347 59.2687L13.6547 57.1457L7.07468 58.2072Z" fill="#005DE8"/>
</g>
<path d="M0.694092 60.4825L7.07468 58.2072L13.6547 57.1457L20.2347 59.2687L27.014 58.2072H33.7934L40.3734 57.1457H46.5546L52.9352 55.7303L59.3158 57.1457L66.8927 54.6688L72.4758 55.7303L78.4576 54.6688L84.4394 53.6073L92.0163 54.6688L97.5993 53.6073L102.784 51.4842L109.762 49.3612L116.741 47.592H123.72L131.097 46.5304L136.282 47.592H139.273L144.257 49.3612L150.04 52.5457L156.022 53.6073H158.215L163.2 49.3612L168.384 47.592L172.97 46.5304L181.943 45.4689L184.934 42.992L191.514 41.9305L199.091 40.869H202.281C203.544 41.2228 206.149 41.9305 206.468 41.9305C206.787 41.9305 210.855 42.6382 212.849 42.992L218.033 45.4689H224.214L230.196 42.992L234.383 44.0536L242.359 45.4689L247.344 44.0536L255.918 42.992C256.915 42.6382 258.988 41.9305 259.307 41.9305C259.627 41.9305 261.833 40.751 262.897 40.1613H266.884L269.875 36.6229H276.256L282.238 32.844" stroke="#000080" stroke-width="0.761187" stroke-linecap="round" stroke-linejoin="round"/>
<path d="M0.694092 88.0092L7.07468 86.5598L13.6547 85.8837L20.2347 87.236L27.014 86.5598H33.7934L40.3734 85.8837H46.5546L52.9352 84.9821L59.3158 85.8837L66.8927 84.3059L72.4758 84.9821L78.4576 84.3059L84.4394 83.6297L92.0163 84.3059L97.5993 83.6297L102.784 82.2774L109.762 80.925L116.741 79.7981H123.72L131.097 79.1219L136.282 79.7981H139.273L144.257 80.925L150.04 82.9536L156.022 83.6297H158.215L163.2 80.925L168.384 79.7981L172.97 79.1219L181.943 78.4457L184.934 76.868L191.514 76.1918L199.091 75.5156H202.281C203.544 75.741 206.149 76.1918 206.468 76.1918C206.787 76.1918 210.855 76.6426 212.849 76.868L218.033 78.4457H224.214L230.196 76.868L234.383 77.5442L242.359 78.4457L247.344 77.5442L255.918 76.868C256.915 76.6426 258.988 76.1918 259.307 76.1918C259.626 76.1918 261.833 75.4405 262.897 75.0648H266.884L269.875 72.8109H276.256L282.238 70.4038" stroke="#005DE8" stroke-width="0.761187" stroke-linecap="round" stroke-linejoin="round"/>
<path d="M0.694092 122.846L7.07468 118.996L13.6547 117.199L20.2347 120.792L27.014 118.996H33.7934L40.3734 117.199H46.5546L52.9352 114.804L59.3158 117.199L66.8927 113.008L72.4758 114.804L78.4576 113.008L84.4394 111.211L92.0163 113.008L97.5993 111.211L102.784 107.618L109.762 104.025L116.741 101.031H123.72L131.097 99.2349L136.282 101.031H139.273L144.257 104.025L150.04 109.415L156.022 111.211H158.215L163.2 104.025L168.384 101.031L172.97 99.2349L181.943 97.4385L184.934 93.2469L191.514 91.4504L199.091 89.654H202.281C203.544 90.2528 206.149 91.4504 206.468 91.4504C206.787 91.4504 210.855 92.6481 212.849 93.2469L218.033 97.4385H224.214L230.196 93.2469L234.383 95.0433L242.359 97.4385L247.344 95.0433L255.918 93.2469C256.915 92.6481 258.988 91.4504 259.307 91.4504C259.626 91.4504 261.833 89.4544 262.897 88.4564H266.884L269.875 82.4683H276.256L282.238 76.0732" stroke="#AFCFFF" stroke-width="0.761187" stroke-linecap="round" stroke-linejoin="round"/>
<defs>
<linearGradient id="paint0_linear_11_1204" x1="140.772" y1="0" x2="140.772" y2="118.559" gradientUnits="userSpaceOnUse">
<stop/>
<stop offset="1" stop-opacity="0"/>
</linearGradient>
</defs>
</svg>
