<svg width="101" height="25" viewBox="0 0 101 25" fill="none" xmlns="http://www.w3.org/2000/svg">
<path fill-rule="evenodd" clip-rule="evenodd" d="M0.308995 22.9398C1.96062 23.8046 4.26667 24.2988 6.07411 24.2988C11.9016 24.2988 16.3267 19.5731 16.3267 13.7663C16.3267 10.2761 14.6439 8.14492 11.995 8.14492C9.47086 8.14492 7.44528 10.1217 5.48202 14.8474L5.13923 14.693L7.38295 1.3189L6.72853 0.824707L0.402483 2.77059L0.277832 3.6972L1.74248 3.85163C2.52155 3.94429 2.83318 4.22227 2.83318 4.77824C2.83318 5.14888 2.67737 6.19904 2.55272 7.0021L0.308995 22.9398ZM11.9327 14.0134C11.9327 18.4303 9.40853 22.3529 6.60388 22.7545C5.85597 22.6309 5.20156 22.4147 4.36016 21.9823C5.57551 16.0829 8.349 10.863 10.2499 10.863C11.3095 10.863 11.9327 12.0058 11.9327 14.0134ZM59.6227 22.878C59.6227 23.7119 60.0901 24.2988 60.9627 24.2988C62.552 24.2988 64.3594 23.2486 67.3199 20.5615L66.9771 19.6349L63.9855 21.0557L63.8296 20.9321L66.6655 1.3189L66.0422 0.824707L59.7473 2.77059L59.6227 3.6972L61.0562 3.85163C61.8352 3.97518 62.1469 4.22227 62.1469 4.77824C62.1469 5.14888 61.991 6.32259 61.8975 7.0021L59.872 20.6541C59.7785 21.2719 59.6227 22.5691 59.6227 22.878ZM70.3454 8.55244C69.7282 8.55244 69.2108 8.35452 68.7933 7.95869C68.3939 7.54486 68.1942 7.03208 68.1942 6.42034C68.1942 5.7906 68.3939 5.27782 68.7933 4.88199C69.1927 4.48615 69.71 4.28824 70.3454 4.28824C70.9807 4.28824 71.4981 4.48615 71.8975 4.88199C72.2968 5.27782 72.4965 5.7906 72.4965 6.42034C72.4965 7.03208 72.2878 7.54486 71.8702 7.95869C71.4709 8.35452 70.9626 8.55244 70.3454 8.55244ZM68.7116 23.9899C68.6208 23.9899 68.5391 23.9629 68.4665 23.909C68.4121 23.837 68.3848 23.756 68.3848 23.6661V10.4147C68.3848 10.3247 68.4121 10.2527 68.4665 10.1987C68.5391 10.1268 68.6208 10.0908 68.7116 10.0908H71.8975C71.9882 10.0908 72.0608 10.1268 72.1153 10.1987C72.1879 10.2527 72.2242 10.3247 72.2242 10.4147V23.6661C72.2242 23.756 72.1879 23.837 72.1153 23.909C72.0608 23.9629 71.9882 23.9899 71.8975 23.9899H68.7116ZM88.5288 23.909C88.6014 23.9629 88.6831 23.9899 88.7739 23.9899H91.9597C92.0505 23.9899 92.1231 23.9629 92.1776 23.909C92.2502 23.837 92.2865 23.756 92.2865 23.6661V19.7257C92.2865 19.6897 92.3046 19.6358 92.341 19.5638L94.0836 17.4047C94.1018 17.3687 94.129 17.3597 94.1653 17.3777C94.2198 17.3777 94.2561 17.3957 94.2743 17.4317L96.97 23.747C97.0426 23.909 97.1697 23.9899 97.3512 23.9899H100.7C100.9 23.9899 101 23.918 101 23.774C101 23.738 100.982 23.6841 100.946 23.6121L96.8883 15.0567C96.8701 15.0027 96.8792 14.9397 96.9155 14.8678L100.374 10.5226C100.428 10.4326 100.455 10.3607 100.455 10.3067C100.455 10.1808 100.365 10.1178 100.183 10.1178H96.5615C96.4163 10.1178 96.2802 10.1808 96.1531 10.3067L92.4499 14.5709C92.4136 14.6069 92.3773 14.6249 92.341 14.6249C92.3046 14.6069 92.2865 14.5709 92.2865 14.5169V5.42176C92.2865 5.3318 92.2502 5.25983 92.1776 5.20585C92.1231 5.13388 92.0505 5.0979 91.9597 5.0979H88.7739C88.6831 5.0979 88.6014 5.13388 88.5288 5.20585C88.4743 5.25983 88.4471 5.3318 88.4471 5.42176V23.6661C88.4471 23.756 88.4743 23.837 88.5288 23.909ZM85.2095 11.2243C84.3201 10.3427 83.1492 9.90187 81.6969 9.90187C80.2265 9.90187 79.1192 10.4237 78.3749 11.4672C78.3568 11.5032 78.3295 11.5122 78.2932 11.4942C78.2569 11.4762 78.2388 11.4402 78.2388 11.3862V10.4416C78.2388 10.3517 78.2025 10.2797 78.1299 10.2257C78.0754 10.1538 78.0028 10.1178 77.912 10.1178H74.7261C74.6354 10.1178 74.5537 10.1538 74.4811 10.2257C74.4266 10.2797 74.3994 10.3517 74.3994 10.4416V23.6661C74.3994 23.756 74.4266 23.837 74.4811 23.909C74.5537 23.9629 74.6354 23.9899 74.7261 23.9899H77.912C78.0028 23.9899 78.0754 23.9629 78.1299 23.909C78.2025 23.837 78.2388 23.756 78.2388 23.6661V15.5965C78.2388 14.8768 78.4385 14.292 78.8378 13.8422C79.2553 13.3924 79.7999 13.1675 80.4716 13.1675C81.1433 13.1675 81.6788 13.3924 82.0781 13.8422C82.4957 14.292 82.7044 14.8768 82.7044 15.5965V23.6661C82.7044 23.756 82.7317 23.837 82.7861 23.909C82.8587 23.9629 82.9404 23.9899 83.0312 23.9899H86.2171C86.3078 23.9899 86.3804 23.9629 86.4349 23.909C86.5075 23.837 86.5438 23.756 86.5438 23.6661V14.8138C86.5438 13.3024 86.0991 12.1059 85.2095 11.2243ZM45.7624 23.9899C45.6716 23.9899 45.5899 23.9629 45.5173 23.909C45.4629 23.837 45.4356 23.756 45.4356 23.6661V5.42176C45.4356 5.3318 45.4629 5.25983 45.5173 5.20585C45.5899 5.13388 45.6716 5.0979 45.7624 5.0979H48.9483C49.039 5.0979 49.1116 5.13388 49.1661 5.20585C49.2387 5.25983 49.275 5.3318 49.275 5.42176V14.5169C49.275 14.5709 49.2932 14.6069 49.3295 14.6249C49.3658 14.6249 49.4021 14.6069 49.4384 14.5709L53.1416 10.3067C53.2687 10.1808 53.4048 10.1178 53.5501 10.1178H57.1716C57.3531 10.1178 57.4439 10.1808 57.4439 10.3067C57.4439 10.3607 57.4167 10.4326 57.3622 10.5226L53.904 14.8678C53.8677 14.9397 53.8587 15.0027 53.8768 15.0567L57.934 23.6121C57.9703 23.6841 57.9885 23.738 57.9885 23.774C57.9885 23.918 57.8887 23.9899 57.689 23.9899H54.3397C54.1582 23.9899 54.0311 23.909 53.9585 23.747L51.2628 17.4317C51.2446 17.3957 51.2083 17.3777 51.1539 17.3777C51.1175 17.3597 51.0903 17.3687 51.0722 17.4047L49.3295 19.5638C49.2932 19.6358 49.275 19.6897 49.275 19.7257V23.6661C49.275 23.756 49.2387 23.837 49.1661 23.909C49.1116 23.9629 49.039 23.9899 48.9483 23.9899H45.7624ZM42.1981 11.2243C41.3086 10.3427 40.1377 9.90187 38.6854 9.90187C37.215 9.90187 36.1077 10.4237 35.3634 11.4672C35.3453 11.5032 35.3181 11.5122 35.2817 11.4942C35.2454 11.4762 35.2273 11.4402 35.2273 11.3862V10.4416C35.2273 10.3517 35.191 10.2797 35.1184 10.2257C35.0639 10.1538 34.9913 10.1178 34.9005 10.1178H31.7147C31.6239 10.1178 31.5422 10.1538 31.4696 10.2257C31.4151 10.2797 31.3879 10.3517 31.3879 10.4416V23.6661C31.3879 23.756 31.4151 23.837 31.4696 23.909C31.5422 23.9629 31.6239 23.9899 31.7147 23.9899H34.9005C34.9913 23.9899 35.0639 23.9629 35.1184 23.909C35.191 23.837 35.2273 23.756 35.2273 23.6661V15.5965C35.2273 14.8768 35.427 14.292 35.8263 13.8422C36.2439 13.3924 36.7885 13.1675 37.4601 13.1675C38.1318 13.1675 38.6673 13.3924 39.0667 13.8422C39.4842 14.292 39.6929 14.8768 39.6929 15.5965V23.6661C39.6929 23.756 39.7202 23.837 39.7746 23.909C39.8472 23.9629 39.9289 23.9899 40.0197 23.9899H43.2056C43.2963 23.9899 43.3689 23.9629 43.4234 23.909C43.496 23.837 43.5323 23.756 43.5323 23.6661V14.8138C43.5323 13.3024 43.0876 12.1059 42.1981 11.2243ZM23.4009 9.90187C24.5809 9.90187 25.6337 10.1088 26.5595 10.5226C27.4853 10.9184 28.2024 11.4672 28.7107 12.1689C29.2371 12.8706 29.5003 13.6533 29.5003 14.5169V23.6661C29.5003 23.756 29.464 23.837 29.3914 23.909C29.337 23.9629 29.2643 23.9899 29.1736 23.9899H25.9877C25.8969 23.9899 25.8153 23.9629 25.7426 23.909C25.6882 23.837 25.661 23.756 25.661 23.6661V22.7754C25.661 22.7215 25.6428 22.6855 25.6065 22.6675C25.5702 22.6495 25.5339 22.6675 25.4976 22.7215C24.7352 23.711 23.5098 24.2058 21.8216 24.2058C20.4056 24.2058 19.262 23.864 18.3906 23.1803C17.5193 22.4966 17.0836 21.489 17.0836 20.1575C17.0836 18.7721 17.5738 17.7016 18.554 16.9459C19.5343 16.1722 20.9321 15.7854 22.7474 15.7854H25.5248C25.6156 15.7854 25.661 15.7404 25.661 15.6504V15.0567C25.661 14.4629 25.4794 14.0041 25.1164 13.6803C24.7533 13.3384 24.2087 13.1675 23.4826 13.1675C22.9198 13.1675 22.4479 13.2665 22.0666 13.4644C21.7036 13.6623 21.4676 13.9412 21.3587 14.301C21.3042 14.4989 21.1862 14.5889 21.0047 14.5709L17.7099 14.1391C17.4921 14.1031 17.3922 14.0221 17.4104 13.8962C17.483 13.1405 17.7825 12.4568 18.309 11.8451C18.8535 11.2333 19.5615 10.7565 20.4329 10.4147C21.3224 10.0728 22.3117 9.90187 23.4009 9.90187ZM22.8563 21.372C23.6369 21.372 24.2995 21.1651 24.8441 20.7513C25.3887 20.3375 25.661 19.8067 25.661 19.159V18.1874C25.661 18.0974 25.6156 18.0524 25.5248 18.0524H23.5643C22.7474 18.0524 22.103 18.2054 21.631 18.5112C21.1771 18.8171 20.9502 19.2489 20.9502 19.8067C20.9502 20.2925 21.1227 20.6793 21.4676 20.9672C21.8125 21.2371 22.2754 21.372 22.8563 21.372Z" fill="#05263F"/>
</svg>
