<svg width="40" height="40" viewBox="0 0 40 40" fill="none" xmlns="http://www.w3.org/2000/svg">
    <path fill-rule="evenodd" clip-rule="evenodd" d="M8.69411 0C3.89249 0 0 3.89249 0 8.69411V30.4294C0 35.231 3.89249 39.1235 8.69411 39.1235H30.4294C35.231 39.1235 39.1235 35.231 39.1235 30.4294V8.69411C39.1235 3.89249 35.231 0 30.4294 0H8.69411ZM17.1175 32.6029C15.1347 32.6029 12.605 32.0538 10.7931 31.0929L13.2545 13.3844C13.3912 12.4921 13.5622 11.3252 13.5622 10.9134C13.5622 10.2957 13.2203 9.98678 12.3657 9.88383L10.759 9.71223L10.8957 8.68267L17.8354 6.52058L18.5533 7.06968L16.0919 21.9297L16.4679 22.1013C18.6216 16.8506 20.8437 14.6541 23.6127 14.6541C26.5185 14.6541 28.3645 17.0221 28.3645 20.9002C28.3645 27.3521 23.5102 32.6029 17.1175 32.6029ZM17.6986 30.887C20.7753 30.4408 23.5444 26.0823 23.5444 21.1747C23.5444 18.944 22.8606 17.6742 21.6983 17.6742C19.613 17.6742 16.5705 23.4741 15.2373 30.029C16.1603 30.5095 16.8782 30.7497 17.6986 30.887Z" fill="#000080"/>
</svg>
