<svg width="37" height="36" viewBox="0 0 37 36" fill="none" xmlns="http://www.w3.org/2000/svg">
    <path fill-rule="evenodd" clip-rule="evenodd" d="M5.09395 17.0519C5.09395 25.0323 11.5634 31.5018 19.5438 31.5018C27.5242 31.5018 33.9936 25.0323 33.9936 17.0519C33.9936 9.07152 27.5242 2.60211 19.5438 2.60211C11.5634 2.60211 5.09395 9.07152 5.09395 17.0519ZM19.5438 33.9789C10.1953 33.9789 2.61684 26.4004 2.61684 17.0519C2.61684 7.70345 10.1953 0.125 19.5438 0.125C28.8923 0.125 36.4707 7.70345 36.4707 17.0519C36.4707 26.4004 28.8923 33.9789 19.5438 33.9789ZM4.63094 30.2132C5.11462 29.7295 5.89883 29.7295 6.38252 30.2132C6.86621 30.6969 6.86621 31.4811 6.38252 31.9648L3.07974 35.2675C2.59605 35.7512 1.81184 35.7512 1.32816 35.2675C0.844471 34.7839 0.844471 33.9996 1.32816 33.516L4.63094 30.2132Z" fill="#005DE8"/>
</svg>
