<svg width="146" height="39" viewBox="0 0 146 39" fill="none" xmlns="http://www.w3.org/2000/svg">
<g clip-path="url(#clip0_1_1557)">
<path d="M22.3583 3.73923L19.0018 2.83984L16.1732 13.3963L13.6195 3.86586L10.2629 4.76524L13.022 15.0621L6.14976 8.1899L3.69261 10.6471L11.2306 18.1851L1.84323 15.6698L0.943848 19.0263L11.2008 21.7746C11.0833 21.2681 11.0212 20.7403 11.0212 20.1981C11.0212 16.3597 14.1328 13.2482 17.9711 13.2482C21.8094 13.2482 24.921 16.3597 24.921 20.1981C24.921 20.7368 24.8596 21.2614 24.7436 21.7649L34.0653 24.2626L34.9646 20.9061L24.6669 18.1468L34.0549 15.6313L33.1555 12.2748L22.8583 15.0339L29.7305 8.16169L27.2733 5.70454L19.8399 13.138L22.3583 3.73923Z" fill="#ACB2B8"/>
<path d="M24.7338 21.804C24.4461 23.0206 23.8385 24.1136 23.0049 24.9893L29.758 31.7424L32.2151 29.2853L24.7338 21.804Z" fill="#ACB2B8"/>
<path d="M22.9367 25.0599C22.093 25.9215 21.0268 26.5646 19.8312 26.896L22.2885 36.0668L25.645 35.1674L22.9367 25.0599Z" fill="#ACB2B8"/>
<path d="M19.7058 26.9295C19.1511 27.0721 18.5697 27.1479 17.9705 27.1479C17.3286 27.1479 16.7069 27.0609 16.1168 26.898L13.6572 36.0772L17.0137 36.9765L19.7058 26.9295Z" fill="#ACB2B8"/>
<path d="M15.9981 26.8641C14.8207 26.5163 13.7735 25.865 12.9471 25.0009L6.17734 31.7706L8.63449 34.2278L15.9981 26.8641Z" fill="#ACB2B8"/>
<path d="M12.8913 24.941C12.079 24.0714 11.4873 22.993 11.2057 21.7951L1.85363 24.301L2.753 27.6575L12.8913 24.941Z" fill="#ACB2B8"/>
</g>
<path d="M55.162 10.7273V22.8227L47.4085 10.7273H44.3071V27.4271H47.4085V15.4271L55.162 27.4271H58.2634V10.7273H55.162Z" fill="#ACB2B8"/>
<path d="M59.6609 13.8526H62.8577V10.7273H59.6609V13.8526ZM59.7086 27.4271V15.4987H62.81V27.4271H59.7086Z" fill="#ACB2B8"/>
<path d="M76.154 21.4629C76.154 17.3357 73.2196 15.3794 70.1182 15.3555C66.9929 15.3317 64.1063 17.3357 64.1063 21.4629C64.1063 25.5901 66.9929 27.5941 70.1182 27.5703C72.9572 27.5464 74.9134 26.2343 75.82 24.0633L73.4104 23.0613C72.6709 24.5404 71.5019 25.0653 70.1182 25.0892C68.9253 25.113 67.5655 24.5404 67.2792 22.4172H76.0824C76.1301 22.107 76.154 21.7969 76.154 21.4629ZM70.1182 17.8128C71.311 17.8367 72.5277 18.4808 72.9095 20.1985H67.3269C67.7325 18.4569 68.9492 17.7889 70.1182 17.8128Z" fill="#ACB2B8"/>
<path d="M83.3215 17.7174V15.3555H81.3652V12.1587L78.2638 13.113V15.3555H76.3076V17.7174H78.2638V23.8963C78.2638 26.2343 78.4547 27.4271 82.0809 27.4271H82.9159V24.7074H82.0809C81.5084 24.7074 81.3652 24.612 81.3652 23.8963V17.7174H83.3215Z" fill="#ACB2B8"/>
<path d="M87.93 24.8267L94.5145 18.0991V15.4987H84.6377V18.0991H91.0314L84.4469 24.8267V27.4271H94.5861V24.8267H87.93Z" fill="#ACB2B8"/>
<path d="M95.698 24.0633L98.8233 23.5862C99.038 24.779 100.446 25.2323 101.304 25.2323C102.187 25.2323 103.714 25.0414 103.714 23.61C103.714 20.8188 96.0559 24.3019 96.0559 18.9579C96.0559 15.5225 100.04 15.3317 101.304 15.3317C102.497 15.3317 105.956 15.5225 106.672 18.2899L103.714 18.9102C103.452 17.6458 102.116 17.4072 101.4 17.4072C100.684 17.4072 99.1573 17.5742 99.1573 18.9579C99.1573 21.7253 106.815 18.1945 106.815 23.61C106.815 27.2601 102.617 27.5703 101.304 27.5703C100.112 27.5703 96.3183 27.2601 95.698 24.0633Z" fill="#ACB2B8"/>
<path d="M110.844 21.4629C110.844 24.3734 112.395 25.2562 114.017 25.2323C115.473 25.2084 116.475 24.612 117.071 22.942L119.624 24.1826C118.693 26.616 116.427 27.5464 114.017 27.5703C110.892 27.5941 107.743 25.5901 107.743 21.4629C107.743 17.3357 110.892 15.3317 114.017 15.3555C116.427 15.3794 118.693 16.3098 119.624 18.7432L117.071 19.9838C116.475 18.3138 115.473 17.7174 114.017 17.6935C112.395 17.6697 110.844 18.5524 110.844 21.4629Z" fill="#ACB2B8"/>
<path d="M127.95 15.3078C126.351 15.3078 124.896 16.1428 123.965 17.9321V10.7273H120.864V27.4271H123.965V23.2045C123.965 17.7412 126.232 17.2879 127.067 17.2879C128.403 17.2879 128.594 18.6716 128.594 20.6995V27.4271H131.695V20.6995C131.695 18.1707 131.29 15.3078 127.95 15.3078Z" fill="#ACB2B8"/>
<path d="M144.789 21.4629C144.789 17.3357 141.855 15.3794 138.753 15.3555C135.628 15.3317 132.741 17.3357 132.741 21.4629C132.741 25.5901 135.628 27.5941 138.753 27.5703C141.592 27.5464 143.549 26.2343 144.455 24.0633L142.046 23.0613C141.306 24.5404 140.137 25.0653 138.753 25.0892C137.561 25.113 136.201 24.5404 135.914 22.4172H144.718C144.765 22.107 144.789 21.7969 144.789 21.4629ZM138.753 17.8128C139.946 17.8367 141.163 18.4808 141.545 20.1985H135.962C136.368 18.4569 137.584 17.7889 138.753 17.8128Z" fill="#ACB2B8"/>
<defs>
<clipPath id="clip0_1_1557">
<rect width="34.9901" height="34.9901" fill="white" transform="translate(0.672791 2.052)"/>
</clipPath>
</defs>
</svg>
