<svg width="37" height="33" viewBox="0 0 37 33" fill="none" xmlns="http://www.w3.org/2000/svg">
<path d="M35.6523 31.7214V28.3552C35.6523 25.2182 33.5067 22.5823 30.603 21.8349M24.7121 1.91491C27.1794 2.91365 28.9199 5.33255 28.9199 8.15795C28.9199 10.9834 27.1794 13.4023 24.7121 14.401M27.2368 31.7214C27.2368 28.5845 27.2368 27.016 26.7243 25.7788C26.041 24.1292 24.7304 22.8186 23.0808 22.1353C21.8435 21.6228 20.2751 21.6228 17.1382 21.6228H12.0889C8.95195 21.6228 7.38349 21.6228 6.14627 22.1353C4.49664 22.8186 3.18601 24.1292 2.50271 25.7788C1.99023 27.016 1.99023 28.5845 1.99023 31.7214M21.3459 8.15795C21.3459 11.8762 18.3317 14.8904 14.6135 14.8904C10.8953 14.8904 7.8811 11.8762 7.8811 8.15795C7.8811 4.43974 10.8953 1.42554 14.6135 1.42554C18.3317 1.42554 21.3459 4.43974 21.3459 8.15795Z" stroke="#000080" stroke-width="2.18349" stroke-linecap="round" stroke-linejoin="round"/>
</svg>
