<svg width="143" height="39" viewBox="0 0 143 39" fill="none" xmlns="http://www.w3.org/2000/svg">
<circle cx="16.6809" cy="19.5469" r="13.5189" stroke="#ACB2B8" stroke-width="4.77138"/>
<path d="M53.4078 16.6947C53.4078 17.526 53.2074 18.3053 52.8066 19.0327C52.4206 19.76 51.8046 20.3464 50.9585 20.7917C50.1272 21.2371 49.0732 21.4597 47.7966 21.4597H45.1915V27.4271H42.0742V11.8851H47.7966C48.999 11.8851 50.0233 12.093 50.8694 12.5086C51.7155 12.9242 52.3464 13.4957 52.7621 14.2231C53.1925 14.9505 53.4078 15.7743 53.4078 16.6947ZM47.663 18.9436C48.524 18.9436 49.1623 18.7506 49.578 18.3647C49.9936 17.9639 50.2014 17.4072 50.2014 16.6947C50.2014 15.1806 49.3553 14.4235 47.663 14.4235H45.1915V18.9436H47.663Z" fill="#ACB2B8"/>
<path d="M60.2079 27.6275C59.0204 27.6275 57.9516 27.3677 57.0015 26.8482C56.0515 26.3138 55.3019 25.5642 54.7526 24.5993C54.2182 23.6344 53.951 22.5211 53.951 21.2593C53.951 19.9976 54.2257 18.8842 54.7749 17.9193C55.339 16.9545 56.1035 16.2123 57.0683 15.6927C58.0332 15.1583 59.1094 14.8911 60.297 14.8911C61.4845 14.8911 62.5607 15.1583 63.5256 15.6927C64.4905 16.2123 65.2476 16.9545 65.7968 17.9193C66.3609 18.8842 66.6429 19.9976 66.6429 21.2593C66.6429 22.5211 66.3535 23.6344 65.7745 24.5993C65.2104 25.5642 64.4385 26.3138 63.4588 26.8482C62.4939 27.3677 61.4103 27.6275 60.2079 27.6275ZM60.2079 24.911C60.772 24.911 61.299 24.7774 61.7888 24.5102C62.2935 24.2282 62.6943 23.8125 62.9912 23.2633C63.2881 22.7141 63.4366 22.0461 63.4366 21.2593C63.4366 20.0866 63.1248 19.1885 62.5014 18.5651C61.8927 17.9268 61.1431 17.6076 60.2525 17.6076C59.3618 17.6076 58.6122 17.9268 58.0035 18.5651C57.4098 19.1885 57.1129 20.0866 57.1129 21.2593C57.1129 22.432 57.4023 23.3375 57.9813 23.9758C58.575 24.5993 59.3173 24.911 60.2079 24.911Z" fill="#ACB2B8"/>
<path d="M71.1562 10.95V27.4271H68.0389V10.95H71.1562Z" fill="#ACB2B8"/>
<path d="M85.1467 15.0915L77.5093 33.2609H74.1916L76.8636 27.1154L71.9204 15.0915H75.4162L78.6004 23.7086L81.829 15.0915H85.1467Z" fill="#ACB2B8"/>
<path d="M101.256 14.9134C102.77 14.9134 103.987 15.381 104.907 16.3162C105.843 17.2365 106.31 18.528 106.31 20.1905V27.4271H103.193V20.6136C103.193 19.6487 102.948 18.9139 102.458 18.4092C101.968 17.8897 101.3 17.6299 100.454 17.6299C99.6081 17.6299 98.9326 17.8897 98.4279 18.4092C97.9381 18.9139 97.6931 19.6487 97.6931 20.6136V27.4271H94.5758V20.6136C94.5758 19.6487 94.3309 18.9139 93.841 18.4092C93.3512 17.8897 92.6832 17.6299 91.8371 17.6299C90.9761 17.6299 90.2933 17.8897 89.7885 18.4092C89.2987 18.9139 89.0538 19.6487 89.0538 20.6136V27.4271H85.9365V15.0915H89.0538V16.5834C89.4546 16.0638 89.9667 15.6556 90.5901 15.3587C91.2284 15.0618 91.9261 14.9134 92.6832 14.9134C93.6481 14.9134 94.509 15.1212 95.2661 15.5368C96.0232 15.9376 96.6095 16.5166 97.0251 17.2736C97.4259 16.5611 98.0049 15.9896 98.7619 15.5591C99.5338 15.1286 100.365 14.9134 101.256 14.9134Z" fill="#ACB2B8"/>
<path d="M107.576 21.2148C107.576 19.9679 107.821 18.862 108.311 17.8971C108.816 16.9322 109.491 16.19 110.337 15.6704C111.198 15.1509 112.156 14.8911 113.21 14.8911C114.13 14.8911 114.931 15.0767 115.614 15.4478C116.312 15.8189 116.869 16.2865 117.284 16.8506V15.0915H120.424V27.4271H117.284V25.6235C116.884 26.2025 116.327 26.6849 115.614 27.0709C114.917 27.442 114.108 27.6275 113.187 27.6275C112.148 27.6275 111.198 27.3603 110.337 26.8259C109.491 26.2915 108.816 25.5419 108.311 24.577C107.821 23.5973 107.576 22.4765 107.576 21.2148ZM117.284 21.2593C117.284 20.5023 117.136 19.8565 116.839 19.3221C116.542 18.7729 116.141 18.3573 115.637 18.0752C115.132 17.7783 114.59 17.6299 114.011 17.6299C113.432 17.6299 112.898 17.7709 112.408 18.0529C111.918 18.335 111.517 18.7506 111.206 19.2999C110.909 19.8343 110.76 20.4726 110.76 21.2148C110.76 21.957 110.909 22.6101 111.206 23.1742C111.517 23.7235 111.918 24.1465 112.408 24.4434C112.913 24.7403 113.447 24.8887 114.011 24.8887C114.59 24.8887 115.132 24.7477 115.637 24.4657C116.141 24.1688 116.542 23.7532 116.839 23.2188C117.136 22.6695 117.284 22.0164 117.284 21.2593Z" fill="#ACB2B8"/>
<path d="M126.207 17.6522V23.6196C126.207 24.0352 126.304 24.3395 126.497 24.5325C126.705 24.7106 127.046 24.7997 127.521 24.7997H128.968V27.4271H127.009C124.381 27.4271 123.068 26.1505 123.068 23.5973V17.6522H121.598V15.0915H123.068V12.041H126.207V15.0915H128.968V17.6522H126.207Z" fill="#ACB2B8"/>
<path d="M137.267 14.9134C138.202 14.9134 139.033 15.1212 139.761 15.5368C140.488 15.9376 141.052 16.5388 141.453 17.3404C141.869 18.1272 142.076 19.0772 142.076 20.1905V27.4271H138.959V20.6136C138.959 19.6339 138.714 18.8842 138.224 18.3647C137.734 17.8303 137.066 17.5631 136.22 17.5631C135.359 17.5631 134.677 17.8303 134.172 18.3647C133.682 18.8842 133.437 19.6339 133.437 20.6136V27.4271H130.32V10.95H133.437V16.6279C133.838 16.0935 134.372 15.6779 135.04 15.381C135.708 15.0692 136.45 14.9134 137.267 14.9134Z" fill="#ACB2B8"/>
</svg>
