<svg width="217" height="217" viewBox="0 0 217 217" fill="none" xmlns="http://www.w3.org/2000/svg">
<g filter="url(#filter0_d_1_1278)">
<mask id="path-1-inside-1_1_1278" fill="white">
<path d="M211.061 116.337L169.564 157.837C167.883 159.518 165.158 159.518 163.477 157.837C162.242 156.605 160.241 156.602 159.004 157.837C157.767 159.072 157.769 161.075 159.004 162.31C160.685 163.991 160.685 166.716 159.004 168.397L117.337 210.061C112.414 214.985 104.406 214.99 99.4755 210.061L59.643 170.226C56.9505 167.534 56.9506 163.168 59.6432 160.476C60.8778 159.241 60.8778 157.237 59.6432 156.003C58.4085 154.768 56.4073 154.768 55.1701 156.003C52.4776 158.695 48.1121 158.695 45.4195 156.003L5.93886 116.522C1.01548 111.599 1.01548 103.586 5.93886 98.6602L45.4732 59.1259C48.2381 56.3609 52.7209 56.3609 55.4858 59.1259L60.2974 63.9374C62.6924 66.3324 62.088 70.418 59.9645 73.0566C57.2979 76.3734 55.9418 80.5808 56.1416 84.9046C56.2201 86.5997 57.6192 87.9204 59.2991 87.9204C59.3497 87.9204 59.3978 87.9203 59.4509 87.9178C61.1941 87.8369 62.5451 86.3568 62.4616 84.6111C62.33 81.8306 63.1953 79.1337 64.8954 77.0211C66.5754 74.9313 68.822 73.5525 71.3874 73.0313C72.5285 72.7985 73.4519 71.9586 73.7884 70.8428C74.1249 69.7296 73.8187 68.5178 72.9965 67.6955L59.957 54.6579C57.1918 51.893 57.1916 47.4099 59.9567 44.6449L99.6627 4.93887C104.589 0.018023 112.596 0.0129629 117.525 4.93887L157.228 44.6427C159.993 47.4076 159.993 51.8904 157.228 54.6553L151.025 60.8585C149.324 62.5593 146.459 62.1415 144.755 60.4445C141.213 56.9025 136.317 55.0202 131.293 55.3162C126.288 55.5996 121.616 58.0259 118.473 61.9727C113.401 68.3407 113.426 77.5676 118.529 83.9103C120.649 86.5497 121.255 90.6296 118.861 93.0234L113.602 98.2833C110.837 101.048 106.355 101.049 103.589 98.284L90.1018 84.7983C89.277 83.9761 88.0652 83.675 86.9545 84.0064C85.8388 84.3429 84.9988 85.2638 84.7661 86.4074C84.3334 88.5402 83.2835 90.4934 81.7275 92.0493C79.4986 94.2757 76.3993 95.4749 73.2546 95.3434C70.0592 95.2093 67.1573 93.7798 65.0801 91.3181C63.9568 89.9874 61.9581 89.8153 60.6223 90.9437C59.2864 92.0721 59.1195 94.0657 60.2478 95.4016C63.4812 99.2294 68.0048 101.456 72.9914 101.666C77.8769 101.845 82.7269 99.996 86.2006 96.5224C87.9012 94.8217 90.77 94.4075 92.4707 96.1082L98.7651 102.403C101.53 105.168 101.53 109.65 98.7651 112.415L85.4466 125.734C84.6244 126.559 84.3182 127.768 84.6547 128.884C84.9912 129.997 85.9147 130.837 87.0557 131.07C89.6236 131.591 91.8652 132.97 93.5477 135.059C96.8114 139.117 96.8266 145.017 93.5856 149.091C91.5313 151.669 88.6091 153.189 85.353 153.374C82.1349 153.556 78.9901 152.357 76.7207 150.088C75.1647 148.534 74.1122 146.581 73.6771 144.443C73.4443 143.302 72.6044 142.381 71.4911 142.047C70.3704 141.708 69.1635 142.017 68.3438 142.839L61.5027 149.683C60.2681 150.917 60.2681 152.919 61.5027 154.156C62.7374 155.393 64.7386 155.39 65.9757 154.156C67.676 152.456 70.5487 152.867 72.2527 154.563C75.5619 157.872 80.0577 159.722 84.7205 159.722C85.0519 159.722 85.3834 159.712 85.7173 159.694C90.7217 159.411 95.3946 156.984 98.5368 153.037C103.609 146.669 103.584 137.443 98.4812 131.1C96.3615 128.461 95.7556 124.381 98.149 121.987L103.408 116.727C106.173 113.962 110.656 113.961 113.421 116.726L126.908 130.212C127.736 131.034 128.947 131.343 130.056 131.004C131.171 130.667 132.011 129.746 132.244 128.603C132.677 126.47 133.727 124.517 135.283 122.961C137.552 120.691 140.674 119.485 143.917 119.674C147.171 119.859 150.096 121.38 152.15 123.955C155.391 128.028 155.376 133.931 152.11 137.989C150.43 140.079 148.183 141.458 145.618 141.979C144.474 142.212 143.553 143.052 143.217 144.167C142.88 145.283 143.186 146.492 144.009 147.315L152.37 155.674C153.605 156.908 155.606 156.908 156.843 155.674C158.08 154.439 158.078 152.438 156.843 151.201L156.709 151.066C154.315 148.672 154.92 144.588 157.041 141.949C162.144 135.606 162.166 126.381 157.096 120.013C153.951 116.064 149.279 113.638 144.274 113.357C139.267 113.061 134.354 114.943 130.812 118.488C129.111 120.188 126.243 120.603 124.542 118.902L118.248 112.608C115.483 109.843 115.483 105.36 118.248 102.595L131.566 89.2764C132.388 88.4516 132.694 87.2423 132.358 86.1266C132.021 85.0134 131.098 84.1734 129.957 83.9407C127.389 83.4195 125.147 82.0406 123.465 79.9509C120.201 75.8927 120.186 69.9928 123.427 65.9195C125.481 63.3414 128.403 61.8209 131.66 61.6362C134.865 61.4515 138.023 62.6532 140.292 64.9226C141.848 66.4761 142.9 68.4292 143.336 70.5671C143.568 71.7081 144.408 72.629 145.521 72.963C146.642 73.2995 147.849 72.9959 148.669 72.1711L161.706 59.1334C164.471 56.3685 168.954 56.3685 171.719 59.1334L211.069 98.4831C215.985 103.401 215.985 111.414 211.061 116.337Z"/>
</mask>
<path d="M211.061 116.337L169.564 157.837C167.883 159.518 165.158 159.518 163.477 157.837C162.242 156.605 160.241 156.602 159.004 157.837C157.767 159.072 157.769 161.075 159.004 162.31C160.685 163.991 160.685 166.716 159.004 168.397L117.337 210.061C112.414 214.985 104.406 214.99 99.4755 210.061L59.643 170.226C56.9505 167.534 56.9506 163.168 59.6432 160.476C60.8778 159.241 60.8778 157.237 59.6432 156.003C58.4085 154.768 56.4073 154.768 55.1701 156.003C52.4776 158.695 48.1121 158.695 45.4195 156.003L5.93886 116.522C1.01548 111.599 1.01548 103.586 5.93886 98.6602L45.4732 59.1259C48.2381 56.3609 52.7209 56.3609 55.4858 59.1259L60.2974 63.9374C62.6924 66.3324 62.088 70.418 59.9645 73.0566C57.2979 76.3734 55.9418 80.5808 56.1416 84.9046C56.2201 86.5997 57.6192 87.9204 59.2991 87.9204C59.3497 87.9204 59.3978 87.9203 59.4509 87.9178C61.1941 87.8369 62.5451 86.3568 62.4616 84.6111C62.33 81.8306 63.1953 79.1337 64.8954 77.0211C66.5754 74.9313 68.822 73.5525 71.3874 73.0313C72.5285 72.7985 73.4519 71.9586 73.7884 70.8428C74.1249 69.7296 73.8187 68.5178 72.9965 67.6955L59.957 54.6579C57.1918 51.893 57.1916 47.4099 59.9567 44.6449L99.6627 4.93887C104.589 0.018023 112.596 0.0129629 117.525 4.93887L157.228 44.6427C159.993 47.4076 159.993 51.8904 157.228 54.6553L151.025 60.8585C149.324 62.5593 146.459 62.1415 144.755 60.4445C141.213 56.9025 136.317 55.0202 131.293 55.3162C126.288 55.5996 121.616 58.0259 118.473 61.9727C113.401 68.3407 113.426 77.5676 118.529 83.9103C120.649 86.5497 121.255 90.6296 118.861 93.0234L113.602 98.2833C110.837 101.048 106.355 101.049 103.589 98.284L90.1018 84.7983C89.277 83.9761 88.0652 83.675 86.9545 84.0064C85.8388 84.3429 84.9988 85.2638 84.7661 86.4074C84.3334 88.5402 83.2835 90.4934 81.7275 92.0493C79.4986 94.2757 76.3993 95.4749 73.2546 95.3434C70.0592 95.2093 67.1573 93.7798 65.0801 91.3181C63.9568 89.9874 61.9581 89.8153 60.6223 90.9437C59.2864 92.0721 59.1195 94.0657 60.2478 95.4016C63.4812 99.2294 68.0048 101.456 72.9914 101.666C77.8769 101.845 82.7269 99.996 86.2006 96.5224C87.9012 94.8217 90.77 94.4075 92.4707 96.1082L98.7651 102.403C101.53 105.168 101.53 109.65 98.7651 112.415L85.4466 125.734C84.6244 126.559 84.3182 127.768 84.6547 128.884C84.9912 129.997 85.9147 130.837 87.0557 131.07C89.6236 131.591 91.8652 132.97 93.5477 135.059C96.8114 139.117 96.8266 145.017 93.5856 149.091C91.5313 151.669 88.6091 153.189 85.353 153.374C82.1349 153.556 78.9901 152.357 76.7207 150.088C75.1647 148.534 74.1122 146.581 73.6771 144.443C73.4443 143.302 72.6044 142.381 71.4911 142.047C70.3704 141.708 69.1635 142.017 68.3438 142.839L61.5027 149.683C60.2681 150.917 60.2681 152.919 61.5027 154.156C62.7374 155.393 64.7386 155.39 65.9757 154.156C67.676 152.456 70.5487 152.867 72.2527 154.563C75.5619 157.872 80.0577 159.722 84.7205 159.722C85.0519 159.722 85.3834 159.712 85.7173 159.694C90.7217 159.411 95.3946 156.984 98.5368 153.037C103.609 146.669 103.584 137.443 98.4812 131.1C96.3615 128.461 95.7556 124.381 98.149 121.987L103.408 116.727C106.173 113.962 110.656 113.961 113.421 116.726L126.908 130.212C127.736 131.034 128.947 131.343 130.056 131.004C131.171 130.667 132.011 129.746 132.244 128.603C132.677 126.47 133.727 124.517 135.283 122.961C137.552 120.691 140.674 119.485 143.917 119.674C147.171 119.859 150.096 121.38 152.15 123.955C155.391 128.028 155.376 133.931 152.11 137.989C150.43 140.079 148.183 141.458 145.618 141.979C144.474 142.212 143.553 143.052 143.217 144.167C142.88 145.283 143.186 146.492 144.009 147.315L152.37 155.674C153.605 156.908 155.606 156.908 156.843 155.674C158.08 154.439 158.078 152.438 156.843 151.201L156.709 151.066C154.315 148.672 154.92 144.588 157.041 141.949C162.144 135.606 162.166 126.381 157.096 120.013C153.951 116.064 149.279 113.638 144.274 113.357C139.267 113.061 134.354 114.943 130.812 118.488C129.111 120.188 126.243 120.603 124.542 118.902L118.248 112.608C115.483 109.843 115.483 105.36 118.248 102.595L131.566 89.2764C132.388 88.4516 132.694 87.2423 132.358 86.1266C132.021 85.0134 131.098 84.1734 129.957 83.9407C127.389 83.4195 125.147 82.0406 123.465 79.9509C120.201 75.8927 120.186 69.9928 123.427 65.9195C125.481 63.3414 128.403 61.8209 131.66 61.6362C134.865 61.4515 138.023 62.6532 140.292 64.9226C141.848 66.4761 142.9 68.4292 143.336 70.5671C143.568 71.7081 144.408 72.629 145.521 72.963C146.642 73.2995 147.849 72.9959 148.669 72.1711L161.706 59.1334C164.471 56.3685 168.954 56.3685 171.719 59.1334L211.069 98.4831C215.985 103.401 215.985 111.414 211.061 116.337Z" fill="white"/>
<path d="M211.061 116.337L169.564 157.837C167.883 159.518 165.158 159.518 163.477 157.837C162.242 156.605 160.241 156.602 159.004 157.837C157.767 159.072 157.769 161.075 159.004 162.31C160.685 163.991 160.685 166.716 159.004 168.397L117.337 210.061C112.414 214.985 104.406 214.99 99.4755 210.061L59.643 170.226C56.9505 167.534 56.9506 163.168 59.6432 160.476C60.8778 159.241 60.8778 157.237 59.6432 156.003C58.4085 154.768 56.4073 154.768 55.1701 156.003C52.4776 158.695 48.1121 158.695 45.4195 156.003L5.93886 116.522C1.01548 111.599 1.01548 103.586 5.93886 98.6602L45.4732 59.1259C48.2381 56.3609 52.7209 56.3609 55.4858 59.1259L60.2974 63.9374C62.6924 66.3324 62.088 70.418 59.9645 73.0566C57.2979 76.3734 55.9418 80.5808 56.1416 84.9046C56.2201 86.5997 57.6192 87.9204 59.2991 87.9204C59.3497 87.9204 59.3978 87.9203 59.4509 87.9178C61.1941 87.8369 62.5451 86.3568 62.4616 84.6111C62.33 81.8306 63.1953 79.1337 64.8954 77.0211C66.5754 74.9313 68.822 73.5525 71.3874 73.0313C72.5285 72.7985 73.4519 71.9586 73.7884 70.8428C74.1249 69.7296 73.8187 68.5178 72.9965 67.6955L59.957 54.6579C57.1918 51.893 57.1916 47.4099 59.9567 44.6449L99.6627 4.93887C104.589 0.018023 112.596 0.0129629 117.525 4.93887L157.228 44.6427C159.993 47.4076 159.993 51.8904 157.228 54.6553L151.025 60.8585C149.324 62.5593 146.459 62.1415 144.755 60.4445C141.213 56.9025 136.317 55.0202 131.293 55.3162C126.288 55.5996 121.616 58.0259 118.473 61.9727C113.401 68.3407 113.426 77.5676 118.529 83.9103C120.649 86.5497 121.255 90.6296 118.861 93.0234L113.602 98.2833C110.837 101.048 106.355 101.049 103.589 98.284L90.1018 84.7983C89.277 83.9761 88.0652 83.675 86.9545 84.0064C85.8388 84.3429 84.9988 85.2638 84.7661 86.4074C84.3334 88.5402 83.2835 90.4934 81.7275 92.0493C79.4986 94.2757 76.3993 95.4749 73.2546 95.3434C70.0592 95.2093 67.1573 93.7798 65.0801 91.3181C63.9568 89.9874 61.9581 89.8153 60.6223 90.9437C59.2864 92.0721 59.1195 94.0657 60.2478 95.4016C63.4812 99.2294 68.0048 101.456 72.9914 101.666C77.8769 101.845 82.7269 99.996 86.2006 96.5224C87.9012 94.8217 90.77 94.4075 92.4707 96.1082L98.7651 102.403C101.53 105.168 101.53 109.65 98.7651 112.415L85.4466 125.734C84.6244 126.559 84.3182 127.768 84.6547 128.884C84.9912 129.997 85.9147 130.837 87.0557 131.07C89.6236 131.591 91.8652 132.97 93.5477 135.059C96.8114 139.117 96.8266 145.017 93.5856 149.091C91.5313 151.669 88.6091 153.189 85.353 153.374C82.1349 153.556 78.9901 152.357 76.7207 150.088C75.1647 148.534 74.1122 146.581 73.6771 144.443C73.4443 143.302 72.6044 142.381 71.4911 142.047C70.3704 141.708 69.1635 142.017 68.3438 142.839L61.5027 149.683C60.2681 150.917 60.2681 152.919 61.5027 154.156C62.7374 155.393 64.7386 155.39 65.9757 154.156C67.676 152.456 70.5487 152.867 72.2527 154.563C75.5619 157.872 80.0577 159.722 84.7205 159.722C85.0519 159.722 85.3834 159.712 85.7173 159.694C90.7217 159.411 95.3946 156.984 98.5368 153.037C103.609 146.669 103.584 137.443 98.4812 131.1C96.3615 128.461 95.7556 124.381 98.149 121.987L103.408 116.727C106.173 113.962 110.656 113.961 113.421 116.726L126.908 130.212C127.736 131.034 128.947 131.343 130.056 131.004C131.171 130.667 132.011 129.746 132.244 128.603C132.677 126.47 133.727 124.517 135.283 122.961C137.552 120.691 140.674 119.485 143.917 119.674C147.171 119.859 150.096 121.38 152.15 123.955C155.391 128.028 155.376 133.931 152.11 137.989C150.43 140.079 148.183 141.458 145.618 141.979C144.474 142.212 143.553 143.052 143.217 144.167C142.88 145.283 143.186 146.492 144.009 147.315L152.37 155.674C153.605 156.908 155.606 156.908 156.843 155.674C158.08 154.439 158.078 152.438 156.843 151.201L156.709 151.066C154.315 148.672 154.92 144.588 157.041 141.949C162.144 135.606 162.166 126.381 157.096 120.013C153.951 116.064 149.279 113.638 144.274 113.357C139.267 113.061 134.354 114.943 130.812 118.488C129.111 120.188 126.243 120.603 124.542 118.902L118.248 112.608C115.483 109.843 115.483 105.36 118.248 102.595L131.566 89.2764C132.388 88.4516 132.694 87.2423 132.358 86.1266C132.021 85.0134 131.098 84.1734 129.957 83.9407C127.389 83.4195 125.147 82.0406 123.465 79.9509C120.201 75.8927 120.186 69.9928 123.427 65.9195C125.481 63.3414 128.403 61.8209 131.66 61.6362C134.865 61.4515 138.023 62.6532 140.292 64.9226C141.848 66.4761 142.9 68.4292 143.336 70.5671C143.568 71.7081 144.408 72.629 145.521 72.963C146.642 73.2995 147.849 72.9959 148.669 72.1711L161.706 59.1334C164.471 56.3685 168.954 56.3685 171.719 59.1334L211.069 98.4831C215.985 103.401 215.985 111.414 211.061 116.337Z" stroke="#EAECF0" stroke-width="1.80928" mask="url(#path-1-inside-1_1_1278)"/>
</g>
<defs>
<filter id="filter0_d_1_1278" x="0.437044" y="0.341699" width="216.127" height="216.128" filterUnits="userSpaceOnUse" color-interpolation-filters="sRGB">
<feFlood flood-opacity="0" result="BackgroundImageFix"/>
<feColorMatrix in="SourceAlpha" type="matrix" values="0 0 0 0 0 0 0 0 0 0 0 0 0 0 0 0 0 0 127 0" result="hardAlpha"/>
<feOffset dy="0.904639"/>
<feGaussianBlur stdDeviation="0.904639"/>
<feComposite in2="hardAlpha" operator="out"/>
<feColorMatrix type="matrix" values="0 0 0 0 0.0627451 0 0 0 0 0.0941176 0 0 0 0 0.156863 0 0 0 0.05 0"/>
<feBlend mode="normal" in2="BackgroundImageFix" result="effect1_dropShadow_1_1278"/>
<feBlend mode="normal" in="SourceGraphic" in2="effect1_dropShadow_1_1278" result="shape"/>
</filter>
</defs>
</svg>
