<svg width="248" height="247" viewBox="0 0 248 247" fill="none" xmlns="http://www.w3.org/2000/svg">
    <g filter="url(#filter0_d_3493_29)">
        <mask id="path-1-inside-1_3493_29" fill="white">
            <path d="M240.844 132.525L193.77 179.601C191.863 181.508 188.772 181.508 186.865 179.601C185.465 178.203 183.194 178.201 181.791 179.601C180.387 181.002 180.39 183.275 181.791 184.675C183.698 186.582 183.698 189.674 181.791 191.58L134.525 238.844C128.94 244.429 119.856 244.434 114.263 238.844L69.0773 193.656C66.0229 190.601 66.023 185.649 69.0774 182.595C70.478 181.194 70.478 178.921 69.0774 177.52C67.6769 176.12 65.4067 176.12 64.0033 177.52C60.9489 180.575 55.9967 180.575 52.9423 177.52L8.15593 132.734C2.57091 127.149 2.57091 118.06 8.15593 112.472L53.0032 67.6246C56.1397 64.4881 61.2249 64.4881 64.3614 67.6246L69.8196 73.0828C72.5364 75.7996 71.8508 80.4342 69.4419 83.4274C66.4169 87.19 64.8786 91.9628 65.1053 96.8677C65.1943 98.7906 66.7814 100.289 68.6871 100.289C68.7445 100.289 68.799 100.289 68.8593 100.286C70.8367 100.194 72.3693 98.515 72.2746 96.5347C72.1254 93.3806 73.1069 90.3212 75.0355 87.9247C76.9412 85.5541 79.4898 83.99 82.4 83.3987C83.6943 83.1347 84.7419 82.1819 85.1236 80.9162C85.5053 79.6534 85.158 78.2787 84.2253 77.3459L69.4335 62.5562C66.2966 59.4198 66.2964 54.3342 69.4331 51.1976L114.475 6.15556C120.063 0.573412 129.147 0.567672 134.737 6.15556L179.777 51.1951C182.913 54.3316 182.913 59.4168 179.777 62.5533L172.74 69.5901C170.811 71.5194 167.561 71.0455 165.627 69.1205C161.609 65.1025 156.056 62.9672 150.356 63.303C144.679 63.6244 139.378 66.3768 135.814 70.854C130.059 78.0778 130.088 88.5446 135.877 95.7397C138.281 98.7338 138.969 103.362 136.253 106.078L130.288 112.044C127.152 115.181 122.066 115.181 118.929 112.045L103.629 96.7471C102.694 95.8144 101.319 95.4728 100.059 95.8488C98.7934 96.2305 97.8406 97.2752 97.5765 98.5724C97.0857 100.992 95.8947 103.208 94.1296 104.973C91.6012 107.498 88.0854 108.859 84.518 108.709C80.8932 108.557 77.6013 106.936 75.245 104.143C73.9708 102.633 71.7035 102.438 70.1881 103.718C68.6728 104.998 68.4833 107.26 69.7634 108.775C73.4312 113.118 78.5628 115.643 84.2195 115.881C89.7615 116.085 95.2633 113.987 99.2038 110.047C101.133 108.118 104.387 107.648 106.317 109.577L113.457 116.717C116.593 119.854 116.593 124.939 113.457 128.075L98.3485 143.184C97.4158 144.119 97.0685 145.491 97.4502 146.757C97.8319 148.02 98.8795 148.973 100.174 149.237C103.087 149.828 105.63 151.392 107.538 153.763C111.241 158.366 111.258 165.059 107.581 169.68C105.251 172.604 101.936 174.329 98.2424 174.538C94.5917 174.745 91.0243 173.385 88.4499 170.81C86.6849 169.048 85.491 166.833 84.9973 164.407C84.7333 163.113 83.7804 162.068 82.5176 161.689C81.2462 161.305 79.8772 161.655 78.9473 162.588L71.1869 170.351C69.7863 171.752 69.7863 174.022 71.1869 175.425C72.5874 176.829 74.8576 176.826 76.261 175.425C78.1897 173.497 81.4485 173.963 83.3815 175.887C87.1355 179.641 92.2355 181.739 97.5249 181.739C97.9008 181.739 98.2768 181.728 98.6556 181.708C104.332 181.386 109.633 178.634 113.198 174.157C118.952 166.933 118.924 156.466 113.135 149.271C110.73 146.277 110.043 141.649 112.758 138.933L118.724 132.966C121.86 129.83 126.945 129.829 130.082 132.966L145.382 148.264C146.321 149.196 147.695 149.547 148.952 149.162C150.218 148.78 151.171 147.736 151.435 146.438C151.926 144.019 153.117 141.803 154.882 140.038C157.456 137.464 160.998 136.095 164.677 136.31C168.368 136.52 171.686 138.244 174.016 141.166C177.693 145.787 177.675 152.483 173.97 157.086C172.064 159.457 169.516 161.021 166.606 161.612C165.308 161.876 164.264 162.829 163.882 164.095C163.5 165.36 163.848 166.732 164.78 167.665L174.266 177.147C175.666 178.548 177.937 178.548 179.34 177.147C180.743 175.747 180.741 173.477 179.34 172.073L179.188 171.921C176.471 169.205 177.158 164.572 179.564 161.578C185.353 154.382 185.378 143.918 179.627 136.695C176.06 132.215 170.759 129.462 165.082 129.144C159.402 128.808 153.829 130.943 149.811 134.964C147.881 136.893 144.627 137.363 142.698 135.434L135.557 128.294C132.421 125.157 132.421 120.072 135.557 116.935L150.666 101.827C151.599 100.891 151.946 99.5195 151.564 98.2539C151.182 96.9911 150.135 96.0382 148.84 95.7742C145.927 95.183 143.385 93.6188 141.476 91.2482C137.774 86.6447 137.757 79.9519 141.433 75.3312C143.763 72.4066 147.078 70.6818 150.772 70.4723C154.408 70.2628 157.99 71.626 160.564 74.2004C162.329 75.9626 163.523 78.1782 164.017 80.6034C164.281 81.8977 165.234 82.9424 166.497 83.3213C167.768 83.703 169.137 83.3586 170.067 82.4229L184.857 67.6332C187.993 64.4967 193.078 64.4967 196.215 67.6332L240.853 112.271C246.429 117.85 246.429 126.94 240.844 132.525Z"/>
        </mask>
        <path d="M240.844 132.525L193.77 179.601C191.863 181.508 188.772 181.508 186.865 179.601C185.465 178.203 183.194 178.201 181.791 179.601C180.387 181.002 180.39 183.275 181.791 184.675C183.698 186.582 183.698 189.674 181.791 191.58L134.525 238.844C128.94 244.429 119.856 244.434 114.263 238.844L69.0773 193.656C66.0229 190.601 66.023 185.649 69.0774 182.595C70.478 181.194 70.478 178.921 69.0774 177.52C67.6769 176.12 65.4067 176.12 64.0033 177.52C60.9489 180.575 55.9967 180.575 52.9423 177.52L8.15593 132.734C2.57091 127.149 2.57091 118.06 8.15593 112.472L53.0032 67.6246C56.1397 64.4881 61.2249 64.4881 64.3614 67.6246L69.8196 73.0828C72.5364 75.7996 71.8508 80.4342 69.4419 83.4274C66.4169 87.19 64.8786 91.9628 65.1053 96.8677C65.1943 98.7906 66.7814 100.289 68.6871 100.289C68.7445 100.289 68.799 100.289 68.8593 100.286C70.8367 100.194 72.3693 98.515 72.2746 96.5347C72.1254 93.3806 73.1069 90.3212 75.0355 87.9247C76.9412 85.5541 79.4898 83.99 82.4 83.3987C83.6943 83.1347 84.7419 82.1819 85.1236 80.9162C85.5053 79.6534 85.158 78.2787 84.2253 77.3459L69.4335 62.5562C66.2966 59.4198 66.2964 54.3342 69.4331 51.1976L114.475 6.15556C120.063 0.573412 129.147 0.567672 134.737 6.15556L179.777 51.1951C182.913 54.3316 182.913 59.4168 179.777 62.5533L172.74 69.5901C170.811 71.5194 167.561 71.0455 165.627 69.1205C161.609 65.1025 156.056 62.9672 150.356 63.303C144.679 63.6244 139.378 66.3768 135.814 70.854C130.059 78.0778 130.088 88.5446 135.877 95.7397C138.281 98.7338 138.969 103.362 136.253 106.078L130.288 112.044C127.152 115.181 122.066 115.181 118.929 112.045L103.629 96.7471C102.694 95.8144 101.319 95.4728 100.059 95.8488C98.7934 96.2305 97.8406 97.2752 97.5765 98.5724C97.0857 100.992 95.8947 103.208 94.1296 104.973C91.6012 107.498 88.0854 108.859 84.518 108.709C80.8932 108.557 77.6013 106.936 75.245 104.143C73.9708 102.633 71.7035 102.438 70.1881 103.718C68.6728 104.998 68.4833 107.26 69.7634 108.775C73.4312 113.118 78.5628 115.643 84.2195 115.881C89.7615 116.085 95.2633 113.987 99.2038 110.047C101.133 108.118 104.387 107.648 106.317 109.577L113.457 116.717C116.593 119.854 116.593 124.939 113.457 128.075L98.3485 143.184C97.4158 144.119 97.0685 145.491 97.4502 146.757C97.8319 148.02 98.8795 148.973 100.174 149.237C103.087 149.828 105.63 151.392 107.538 153.763C111.241 158.366 111.258 165.059 107.581 169.68C105.251 172.604 101.936 174.329 98.2424 174.538C94.5917 174.745 91.0243 173.385 88.4499 170.81C86.6849 169.048 85.491 166.833 84.9973 164.407C84.7333 163.113 83.7804 162.068 82.5176 161.689C81.2462 161.305 79.8772 161.655 78.9473 162.588L71.1869 170.351C69.7863 171.752 69.7863 174.022 71.1869 175.425C72.5874 176.829 74.8576 176.826 76.261 175.425C78.1897 173.497 81.4485 173.963 83.3815 175.887C87.1355 179.641 92.2355 181.739 97.5249 181.739C97.9008 181.739 98.2768 181.728 98.6556 181.708C104.332 181.386 109.633 178.634 113.198 174.157C118.952 166.933 118.924 156.466 113.135 149.271C110.73 146.277 110.043 141.649 112.758 138.933L118.724 132.966C121.86 129.83 126.945 129.829 130.082 132.966L145.382 148.264C146.321 149.196 147.695 149.547 148.952 149.162C150.218 148.78 151.171 147.736 151.435 146.438C151.926 144.019 153.117 141.803 154.882 140.038C157.456 137.464 160.998 136.095 164.677 136.31C168.368 136.52 171.686 138.244 174.016 141.166C177.693 145.787 177.675 152.483 173.97 157.086C172.064 159.457 169.516 161.021 166.606 161.612C165.308 161.876 164.264 162.829 163.882 164.095C163.5 165.36 163.848 166.732 164.78 167.665L174.266 177.147C175.666 178.548 177.937 178.548 179.34 177.147C180.743 175.747 180.741 173.477 179.34 172.073L179.188 171.921C176.471 169.205 177.158 164.572 179.564 161.578C185.353 154.382 185.378 143.918 179.627 136.695C176.06 132.215 170.759 129.462 165.082 129.144C159.402 128.808 153.829 130.943 149.811 134.964C147.881 136.893 144.627 137.363 142.698 135.434L135.557 128.294C132.421 125.157 132.421 120.072 135.557 116.935L150.666 101.827C151.599 100.891 151.946 99.5195 151.564 98.2539C151.182 96.9911 150.135 96.0382 148.84 95.7742C145.927 95.183 143.385 93.6188 141.476 91.2482C137.774 86.6447 137.757 79.9519 141.433 75.3312C143.763 72.4066 147.078 70.6818 150.772 70.4723C154.408 70.2628 157.99 71.626 160.564 74.2004C162.329 75.9626 163.523 78.1782 164.017 80.6034C164.281 81.8977 165.234 82.9424 166.497 83.3213C167.768 83.703 169.137 83.3586 170.067 82.4229L184.857 67.6332C187.993 64.4967 193.078 64.4967 196.215 67.6332L240.853 112.271C246.429 117.85 246.429 126.94 240.844 132.525Z" fill="white"/>
        <path d="M240.844 132.525L193.77 179.601C191.863 181.508 188.772 181.508 186.865 179.601C185.465 178.203 183.194 178.201 181.791 179.601C180.387 181.002 180.39 183.275 181.791 184.675C183.698 186.582 183.698 189.674 181.791 191.58L134.525 238.844C128.94 244.429 119.856 244.434 114.263 238.844L69.0773 193.656C66.0229 190.601 66.023 185.649 69.0774 182.595C70.478 181.194 70.478 178.921 69.0774 177.52C67.6769 176.12 65.4067 176.12 64.0033 177.52C60.9489 180.575 55.9967 180.575 52.9423 177.52L8.15593 132.734C2.57091 127.149 2.57091 118.06 8.15593 112.472L53.0032 67.6246C56.1397 64.4881 61.2249 64.4881 64.3614 67.6246L69.8196 73.0828C72.5364 75.7996 71.8508 80.4342 69.4419 83.4274C66.4169 87.19 64.8786 91.9628 65.1053 96.8677C65.1943 98.7906 66.7814 100.289 68.6871 100.289C68.7445 100.289 68.799 100.289 68.8593 100.286C70.8367 100.194 72.3693 98.515 72.2746 96.5347C72.1254 93.3806 73.1069 90.3212 75.0355 87.9247C76.9412 85.5541 79.4898 83.99 82.4 83.3987C83.6943 83.1347 84.7419 82.1819 85.1236 80.9162C85.5053 79.6534 85.158 78.2787 84.2253 77.3459L69.4335 62.5562C66.2966 59.4198 66.2964 54.3342 69.4331 51.1976L114.475 6.15556C120.063 0.573412 129.147 0.567672 134.737 6.15556L179.777 51.1951C182.913 54.3316 182.913 59.4168 179.777 62.5533L172.74 69.5901C170.811 71.5194 167.561 71.0455 165.627 69.1205C161.609 65.1025 156.056 62.9672 150.356 63.303C144.679 63.6244 139.378 66.3768 135.814 70.854C130.059 78.0778 130.088 88.5446 135.877 95.7397C138.281 98.7338 138.969 103.362 136.253 106.078L130.288 112.044C127.152 115.181 122.066 115.181 118.929 112.045L103.629 96.7471C102.694 95.8144 101.319 95.4728 100.059 95.8488C98.7934 96.2305 97.8406 97.2752 97.5765 98.5724C97.0857 100.992 95.8947 103.208 94.1296 104.973C91.6012 107.498 88.0854 108.859 84.518 108.709C80.8932 108.557 77.6013 106.936 75.245 104.143C73.9708 102.633 71.7035 102.438 70.1881 103.718C68.6728 104.998 68.4833 107.26 69.7634 108.775C73.4312 113.118 78.5628 115.643 84.2195 115.881C89.7615 116.085 95.2633 113.987 99.2038 110.047C101.133 108.118 104.387 107.648 106.317 109.577L113.457 116.717C116.593 119.854 116.593 124.939 113.457 128.075L98.3485 143.184C97.4158 144.119 97.0685 145.491 97.4502 146.757C97.8319 148.02 98.8795 148.973 100.174 149.237C103.087 149.828 105.63 151.392 107.538 153.763C111.241 158.366 111.258 165.059 107.581 169.68C105.251 172.604 101.936 174.329 98.2424 174.538C94.5917 174.745 91.0243 173.385 88.4499 170.81C86.6849 169.048 85.491 166.833 84.9973 164.407C84.7333 163.113 83.7804 162.068 82.5176 161.689C81.2462 161.305 79.8772 161.655 78.9473 162.588L71.1869 170.351C69.7863 171.752 69.7863 174.022 71.1869 175.425C72.5874 176.829 74.8576 176.826 76.261 175.425C78.1897 173.497 81.4485 173.963 83.3815 175.887C87.1355 179.641 92.2355 181.739 97.5249 181.739C97.9008 181.739 98.2768 181.728 98.6556 181.708C104.332 181.386 109.633 178.634 113.198 174.157C118.952 166.933 118.924 156.466 113.135 149.271C110.73 146.277 110.043 141.649 112.758 138.933L118.724 132.966C121.86 129.83 126.945 129.829 130.082 132.966L145.382 148.264C146.321 149.196 147.695 149.547 148.952 149.162C150.218 148.78 151.171 147.736 151.435 146.438C151.926 144.019 153.117 141.803 154.882 140.038C157.456 137.464 160.998 136.095 164.677 136.31C168.368 136.52 171.686 138.244 174.016 141.166C177.693 145.787 177.675 152.483 173.97 157.086C172.064 159.457 169.516 161.021 166.606 161.612C165.308 161.876 164.264 162.829 163.882 164.095C163.5 165.36 163.848 166.732 164.78 167.665L174.266 177.147C175.666 178.548 177.937 178.548 179.34 177.147C180.743 175.747 180.741 173.477 179.34 172.073L179.188 171.921C176.471 169.205 177.158 164.572 179.564 161.578C185.353 154.382 185.378 143.918 179.627 136.695C176.06 132.215 170.759 129.462 165.082 129.144C159.402 128.808 153.829 130.943 149.811 134.964C147.881 136.893 144.627 137.363 142.698 135.434L135.557 128.294C132.421 125.157 132.421 120.072 135.557 116.935L150.666 101.827C151.599 100.891 151.946 99.5195 151.564 98.2539C151.182 96.9911 150.135 96.0382 148.84 95.7742C145.927 95.183 143.385 93.6188 141.476 91.2482C137.774 86.6447 137.757 79.9519 141.433 75.3312C143.763 72.4066 147.078 70.6818 150.772 70.4723C154.408 70.2628 157.99 71.626 160.564 74.2004C162.329 75.9626 163.523 78.1782 164.017 80.6034C164.281 81.8977 165.234 82.9424 166.497 83.3213C167.768 83.703 169.137 83.3586 170.067 82.4229L184.857 67.6332C187.993 64.4967 193.078 64.4967 196.215 67.6332L240.853 112.271C246.429 117.85 246.429 126.94 240.844 132.525Z" stroke="#EAECF0" stroke-width="2.05242" mask="url(#path-1-inside-1_3493_29)"/>
    </g>
    <g filter="url(#filter1_d_3493_29)">
        <path d="M192.803 179.601L239.877 132.525C245.462 126.94 245.462 117.851 239.886 112.271L195.248 67.6335C192.111 64.497 187.026 64.497 183.89 67.6335L169.1 82.4233C168.17 83.3589 166.801 83.7033 165.53 83.3216C164.267 82.9427 163.314 81.8981 163.05 80.6037C162.556 78.1785 161.362 75.9629 159.597 74.2007C157.023 71.6263 153.441 70.2631 149.805 70.4726C146.111 70.6821 142.796 72.407 140.466 75.3315C136.789 79.9522 136.807 86.645 140.509 91.2485C142.417 93.6191 144.96 95.1833 147.873 95.7745C149.168 96.0385 150.215 96.9914 150.597 98.2542C150.979 99.5199 150.631 100.892 149.699 101.827L134.59 116.936C131.454 120.072 131.454 125.157 134.59 128.294L141.731 135.434C143.66 137.363 146.914 136.894 148.843 134.964C152.861 130.943 158.435 128.808 164.115 129.144C169.791 129.463 175.092 132.215 178.66 136.695C184.411 143.919 184.385 154.383 178.597 161.578C176.191 164.572 175.504 169.205 178.22 171.921L178.373 172.073L185.898 179.601C187.805 181.508 190.896 181.508 192.803 179.601Z" fill="#000080"/>
        <path d="M7.18876 132.734L51.9751 177.521C55.0295 180.575 59.9817 180.575 63.0361 177.521L70.2197 170.351L77.9802 162.588C78.9101 161.655 80.2791 161.305 81.5505 161.69C82.8133 162.069 83.7661 163.113 84.0301 164.408C84.5238 166.833 85.7177 169.048 87.4827 170.811C90.0571 173.385 93.6246 174.745 97.2752 174.539C100.969 174.329 104.284 172.604 106.614 169.68C110.291 165.059 110.273 158.366 106.571 153.763C104.663 151.392 102.12 149.828 99.2067 149.237C97.9123 148.973 96.8648 148.02 96.4831 146.757C96.1014 145.492 96.4486 144.12 97.3814 143.184L112.49 128.076C115.626 124.939 115.626 119.854 112.49 116.718L105.349 109.577C103.42 107.648 100.166 108.118 98.2366 110.047C94.2961 113.988 88.7943 116.086 83.2524 115.882C77.5956 115.644 72.4641 113.118 68.7962 108.776C65.8331 106.033 64.4562 99.6944 64.1382 96.868C63.9115 91.9631 65.4498 87.1903 68.4748 83.4278C70.8836 80.4345 71.5693 75.7999 68.8524 73.0831L63.3942 67.6249C60.2577 64.4884 55.1725 64.4884 52.036 67.6249L7.18876 112.472C1.60374 118.06 1.60374 127.149 7.18876 132.734Z" fill="#000080"/>
    </g>
    <defs>
        <filter id="filter0_d_3493_29" x="1.91474" y="0.940586" width="245.172" height="245.173" filterUnits="userSpaceOnUse" color-interpolation-filters="sRGB">
            <feFlood flood-opacity="0" result="BackgroundImageFix"/>
            <feColorMatrix in="SourceAlpha" type="matrix" values="0 0 0 0 0 0 0 0 0 0 0 0 0 0 0 0 0 0 127 0" result="hardAlpha"/>
            <feOffset dy="1.02621"/>
            <feGaussianBlur stdDeviation="1.02621"/>
            <feComposite in2="hardAlpha" operator="out"/>
            <feColorMatrix type="matrix" values="0 0 0 0 0.0627451 0 0 0 0 0.0941176 0 0 0 0 0.156863 0 0 0 0.05 0"/>
            <feBlend mode="normal" in2="BackgroundImageFix" result="effect1_dropShadow_3493_29"/>
            <feBlend mode="normal" in="SourceGraphic" in2="effect1_dropShadow_3493_29" result="shape"/>
        </filter>
        <filter id="filter1_d_3493_29" x="0.947577" y="64.2462" width="245.172" height="119.864" filterUnits="userSpaceOnUse" color-interpolation-filters="sRGB">
            <feFlood flood-opacity="0" result="BackgroundImageFix"/>
            <feColorMatrix in="SourceAlpha" type="matrix" values="0 0 0 0 0 0 0 0 0 0 0 0 0 0 0 0 0 0 127 0" result="hardAlpha"/>
            <feOffset dy="1.02621"/>
            <feGaussianBlur stdDeviation="1.02621"/>
            <feComposite in2="hardAlpha" operator="out"/>
            <feColorMatrix type="matrix" values="0 0 0 0 0.0627451 0 0 0 0 0.0941176 0 0 0 0 0.156863 0 0 0 0.05 0"/>
            <feBlend mode="normal" in2="BackgroundImageFix" result="effect1_dropShadow_3493_29"/>
            <feBlend mode="normal" in="SourceGraphic" in2="effect1_dropShadow_3493_29" result="shape"/>
        </filter>
    </defs>
</svg>
