<svg width="18" height="13" viewBox="0 0 18 13" fill="none" xmlns="http://www.w3.org/2000/svg">
<path d="M0.548652 13C0.345435 13 0.182896 12.9387 0.0609653 12.816C-0.0203218 12.6525 -0.0203218 12.4686 0.0609653 12.2642L4.45046 0.490567C4.57239 0.163522 4.79595 0 5.1211 0H8.41319C8.61641 0 8.75866 0.0613212 8.83995 0.183964C8.96188 0.306606 9.00253 0.470128 8.96189 0.674531L5.73072 12.4481C5.64944 12.816 5.42588 13 5.06009 13H0.548652ZM9.63253 13C9.42931 13 9.26669 12.9387 9.14476 12.816C9.06348 12.6525 9.06348 12.4686 9.14476 12.2642L13.4733 0.490567C13.5953 0.163522 13.8188 0 14.144 0H17.4361C17.6393 0 17.7815 0.0613212 17.8628 0.183964C17.9847 0.306606 18.0254 0.470128 17.9848 0.674531L14.8145 12.4481C14.7332 12.816 14.5098 13 14.144 13H9.63253Z" fill="#000080"/>
</svg>
