<svg width="199" height="34" viewBox="0 0 199 34" fill="none" xmlns="http://www.w3.org/2000/svg">
<path d="M1.46803 11.5415L1.46803 22.4589" stroke="#005DE8" stroke-opacity="0.4" stroke-width="1.09174" stroke-linecap="round"/>
<path d="M14.5689 11.5415L14.5689 22.4589" stroke="#005DE8" stroke-opacity="0.4" stroke-width="1.09174" stroke-linecap="round"/>
<path d="M27.6699 11.5415L27.6699 22.4589" stroke="#005DE8" stroke-opacity="0.4" stroke-width="1.09174" stroke-linecap="round"/>
<path d="M40.7708 11.5415L40.7708 22.4589" stroke="#005DE8" stroke-opacity="0.4" stroke-width="1.09174" stroke-linecap="round"/>
<path d="M53.8717 11.5415L53.8717 22.4589" stroke="#005DE8" stroke-opacity="0.4" stroke-width="1.09174" stroke-linecap="round"/>
<path d="M66.9726 11.5415L66.9726 22.4589" stroke="#005DE8" stroke-opacity="0.4" stroke-width="1.09174" stroke-linecap="round"/>
<path d="M80.0735 11.5415L80.0735 22.4589" stroke="#005DE8" stroke-opacity="0.4" stroke-width="1.09174" stroke-linecap="round"/>
<path d="M93.1744 11.5415L93.1744 22.4589" stroke="#005DE8" stroke-opacity="0.4" stroke-width="1.09174" stroke-linecap="round"/>
<path d="M106.275 11.5415L106.275 22.4589" stroke="#005DE8" stroke-opacity="0.4" stroke-width="1.09174" stroke-linecap="round"/>
<path d="M119.376 11.5415L119.376 22.4589" stroke="#425466" stroke-opacity="0.4" stroke-width="1.09174" stroke-linecap="round"/>
<path d="M132.477 11.5415L132.477 22.4589" stroke="#425466" stroke-opacity="0.4" stroke-width="1.09174" stroke-linecap="round"/>
<path d="M145.578 11.5415L145.578 22.4589" stroke="#425466" stroke-opacity="0.4" stroke-width="1.09174" stroke-linecap="round"/>
<path d="M158.679 11.5415L158.679 22.4589" stroke="#425466" stroke-opacity="0.4" stroke-width="1.09174" stroke-linecap="round"/>
<path d="M171.78 11.5415L171.78 22.4589" stroke="#425466" stroke-opacity="0.4" stroke-width="1.09174" stroke-linecap="round"/>
<path d="M184.881 11.5415L184.881 22.4589" stroke="#425466" stroke-opacity="0.4" stroke-width="1.09174" stroke-linecap="round"/>
<path d="M197.982 11.5415L197.982 22.4589" stroke="#425466" stroke-opacity="0.4" stroke-width="1.09174" stroke-linecap="round"/>
<path d="M8.01849 8.26636L8.01849 25.7342" stroke="#005DE8" stroke-opacity="0.4" stroke-width="1.09174" stroke-linecap="round"/>
<path d="M21.1194 8.26636L21.1194 25.7342" stroke="#005DE8" stroke-opacity="0.4" stroke-width="1.09174" stroke-linecap="round"/>
<path d="M34.2203 8.26636L34.2203 25.7342" stroke="#005DE8" stroke-opacity="0.4" stroke-width="1.09174" stroke-linecap="round"/>
<path d="M47.3212 8.26636L47.3212 25.7342" stroke="#005DE8" stroke-opacity="0.4" stroke-width="1.09174" stroke-linecap="round"/>
<path d="M60.4221 8.26636L60.4222 25.7342" stroke="#005DE8" stroke-opacity="0.4" stroke-width="1.09174" stroke-linecap="round"/>
<path d="M73.5231 8.26636L73.5231 25.7342" stroke="#005DE8" stroke-opacity="0.4" stroke-width="1.09174" stroke-linecap="round"/>
<path d="M86.624 8.26636L86.624 25.7342" stroke="#005DE8" stroke-opacity="0.4" stroke-width="1.09174" stroke-linecap="round"/>
<path d="M100 8.26636L100 25.7342" stroke="#005DE8" stroke-opacity="0.4" stroke-width="1.09174" stroke-linecap="round"/>
<path d="M113 1.71582L113 32.2846" stroke="#005DE8" stroke-width="3.27523" stroke-linecap="round"/>
<path d="M125.927 8.26636L125.927 25.7342" stroke="#425466" stroke-opacity="0.4" stroke-width="1.09174" stroke-linecap="round"/>
<path d="M139.028 8.26636L139.028 25.7342" stroke="#425466" stroke-opacity="0.4" stroke-width="1.09174" stroke-linecap="round"/>
<path d="M152.129 8.26636L152.129 25.7342" stroke="#425466" stroke-opacity="0.4" stroke-width="1.09174" stroke-linecap="round"/>
<path d="M165.229 8.26636L165.229 25.7342" stroke="#425466" stroke-opacity="0.4" stroke-width="1.09174" stroke-linecap="round"/>
<path d="M178.33 8.26636L178.33 25.7342" stroke="#425466" stroke-opacity="0.4" stroke-width="1.09174" stroke-linecap="round"/>
<path d="M191.431 8.26636L191.431 25.7342" stroke="#425466" stroke-opacity="0.4" stroke-width="1.09174" stroke-linecap="round"/>
</svg>
