<svg width="133" height="39" viewBox="0 0 133 39" fill="none" xmlns="http://www.w3.org/2000/svg">
<circle cx="17.8348" cy="19.2844" r="16.3022" stroke="#ACB2B8" stroke-width="2.38569"/>
<path d="M24.3014 25.7508C21.0097 29.0426 17.2804 31.1915 13.9592 32.0455C10.6081 32.9072 7.90697 32.4112 6.30744 30.8116C4.7079 29.2121 4.21185 26.511 5.07358 23.1598C5.9276 19.8386 8.07648 16.1094 11.3683 12.8176C14.66 9.52585 18.3893 7.37697 21.7104 6.52295C25.0616 5.66122 27.7627 6.15727 29.3623 7.75681C30.9618 9.35634 31.4578 12.0574 30.5961 15.4086C29.7421 18.7298 27.5932 22.459 24.3014 25.7508Z" stroke="#ACB2B8" stroke-width="2.38569"/>
<path d="M24.3013 12.8176C27.5931 16.1094 29.7419 19.8386 30.596 23.1598C31.4577 26.511 30.9616 29.2121 29.3621 30.8116C27.7626 32.4111 25.0615 32.9072 21.7103 32.0455C18.3891 31.1915 14.6599 29.0426 11.3681 25.7508C8.07632 22.459 5.92744 18.7298 5.07343 15.4086C4.21169 12.0574 4.70775 9.35632 6.30728 7.75679C7.90681 6.15726 10.6079 5.66121 13.9591 6.52294C17.2803 7.37695 21.0095 9.52583 24.3013 12.8176Z" stroke="#ACB2B8" stroke-width="2.38569"/>
<path d="M50.32 27.2287C54.0655 27.2287 56.5944 25.2724 56.5944 22.1472C56.5944 15.5388 47.815 18.3539 47.815 14.8708C47.815 13.8927 48.6977 13.2247 50.1053 13.2247C51.7037 13.2247 52.7057 14.0836 52.825 15.3957H56.2365C56.1411 12.2227 53.7077 10.1472 50.1053 10.1472C46.7176 10.1472 44.3319 12.1034 44.3319 14.8708C44.3319 21.4315 52.992 18.9265 52.992 22.1949C52.992 23.4593 51.9184 24.1273 50.32 24.1273C48.5546 24.1273 47.4333 23.0537 47.2902 21.3599H43.8548C43.9979 24.9146 46.5268 27.2287 50.32 27.2287Z" fill="#ACB2B8"/>
<path d="M57.4057 31.9047H60.7218V25.9643C61.3659 26.7754 62.5349 27.2287 63.8948 27.2287C67.354 27.2287 69.692 24.7714 69.692 21.0259C69.692 17.2804 67.5449 14.8231 64.1811 14.8231C62.6304 14.8231 61.4375 15.3957 60.7218 16.3261V15.014H57.4057V31.9047ZM63.4892 24.3659C61.6999 24.3659 60.5309 23.0299 60.5309 21.0259C60.5309 18.9981 61.6999 17.6621 63.4892 17.6621C65.2308 17.6621 66.4236 18.9981 66.4236 21.0259C66.4236 23.0299 65.2308 24.3659 63.4892 24.3659Z" fill="#ACB2B8"/>
<path d="M70.4944 27.0379H73.8105V20.4533C73.8105 18.9026 74.8363 17.7814 76.2916 17.7814C77.6753 17.7814 78.6296 18.8311 78.6296 20.2863V27.0379H81.9457V19.5468C81.9457 16.7794 80.1803 14.8231 77.4844 14.8231C75.8145 14.8231 74.5023 15.515 73.8105 16.684V9.78931H70.4944V27.0379Z" fill="#ACB2B8"/>
<path d="M91.2223 22.9583C90.9599 23.9842 90.0772 24.509 88.7412 24.509C87.0712 24.509 85.9976 23.4593 85.7591 21.7655H94.3953C94.4191 21.503 94.443 21.1452 94.443 20.6919C94.443 17.9484 92.7491 14.8231 88.5026 14.8231C84.4231 14.8231 82.5622 17.9484 82.5622 21.0021C82.5622 24.0319 84.6616 27.2287 88.7412 27.2287C91.6994 27.2287 93.9897 25.5587 94.4668 22.9583H91.2223ZM88.5026 17.2565C90.101 17.2565 91.0314 18.3301 91.1269 19.6661H85.8068C86.0931 17.9961 86.9996 17.2565 88.5026 17.2565Z" fill="#ACB2B8"/>
<path d="M103.14 17.7814V15.014H101.429C99.9737 15.014 99.0671 15.515 98.423 17.018V15.014H95.083V27.0379H98.423V21.1929C98.423 19.1412 99.1626 17.7814 100.809 17.7814H103.14Z" fill="#ACB2B8"/>
<path d="M114.591 15.014H111.251V21.5985C111.251 23.1253 110.225 24.2705 108.77 24.2705C107.41 24.2705 106.456 23.2207 106.456 21.7655V15.014H103.14V22.505C103.14 25.2486 104.905 27.2287 107.601 27.2287C109.247 27.2287 110.583 26.513 111.251 25.3679V27.0379H114.591V15.014Z" fill="#ACB2B8"/>
<path d="M116.023 27.0379H119.339V9.78931H116.023V27.0379Z" fill="#ACB2B8"/>
<path d="M128.806 22.9583C128.544 23.9842 127.661 24.509 126.325 24.509C124.655 24.509 123.582 23.4593 123.343 21.7655H131.979C132.003 21.503 132.027 21.1452 132.027 20.6919C132.027 17.9484 130.333 14.8231 126.087 14.8231C122.007 14.8231 120.146 17.9484 120.146 21.0021C120.146 24.0319 122.246 27.2287 126.325 27.2287C129.283 27.2287 131.574 25.5587 132.051 22.9583H128.806ZM126.087 17.2565C127.685 17.2565 128.615 18.3301 128.711 19.6661H123.391C123.677 17.9961 124.584 17.2565 126.087 17.2565Z" fill="#ACB2B8"/>
</svg>
